<?xml version="1.0" encoding="UTF-8" standalone="no"?>
<!DOCTYPE svg PUBLIC "-//W3C//DTD SVG 1.1//EN"
 "http://www.w3.org/Graphics/SVG/1.1/DTD/svg11.dtd">
<!-- Generated by graphviz version 13.1.2 (20250808.2320)
 -->
<!-- Pages: 1 -->
<svg width="214pt" height="274pt"
 viewBox="0.00 0.00 214.00 274.00" xmlns="http://www.w3.org/2000/svg" xmlns:xlink="http://www.w3.org/1999/xlink">
<g id="graph0" class="graph" transform="scale(1 1) rotate(0) translate(4 269.5)">
<polygon fill="white" stroke="none" points="-4,4 -4,-269.5 210,-269.5 210,4 -4,4"/>
<!-- 0 -->
<g id="node1" class="node">
<title>0</title>
<text xml:space="preserve" text-anchor="middle" x="131" y="-252.2" font-family="Times,serif" font-size="14.00">&lt;start&gt;</text>
</g>
<!-- 1 -->
<g id="node2" class="node">
<title>1</title>
<text xml:space="preserve" text-anchor="middle" x="131" y="-201.95" font-family="Times,serif" font-size="14.00">&lt;expr&gt;</text>
</g>
<!-- 0&#45;&gt;1 -->
<g id="edge1" class="edge">
<title>0&#45;&gt;1</title>
<path fill="none" stroke="black" d="M131,-251.46C131,-245.24 131,-235.15 131,-226.39"/>
<polygon fill="black" stroke="black" points="134.5,-226.6 131,-216.6 127.5,-226.6 134.5,-226.6"/>
</g>
<!-- 2 -->
<g id="node3" class="node">
<title>2</title>
<text xml:space="preserve" text-anchor="middle" x="81" y="-151.7" font-family="Times,serif" font-size="14.00">&lt;expr&gt;</text>
</g>
<!-- 1&#45;&gt;2 -->
<g id="edge2" class="edge">
<title>1&#45;&gt;2</title>
<path fill="none" stroke="black" d="M124.87,-201.21C117.52,-194.12 104.98,-182.01 95.18,-172.56"/>
<polygon fill="black" stroke="black" points="97.9,-170.32 88.27,-165.89 93.04,-175.35 97.9,-170.32"/>
</g>
<!-- 8 -->
<g id="node9" class="node">
<title>8</title>
<text xml:space="preserve" text-anchor="middle" x="131" y="-151.7" font-family="Times,serif" font-size="14.00"> + </text>
</g>
<!-- 1&#45;&gt;8 -->
<g id="edge8" class="edge">
<title>1&#45;&gt;8</title>
<path fill="none" stroke="black" d="M131,-201.21C131,-194.99 131,-184.9 131,-176.14"/>
<polygon fill="black" stroke="black" points="134.5,-176.35 131,-166.35 127.5,-176.35 134.5,-176.35"/>
</g>
<!-- 9 -->
<g id="node10" class="node">
<title>9</title>
<text xml:space="preserve" text-anchor="middle" x="180" y="-151.7" font-family="Times,serif" font-size="14.00">&lt;term&gt;</text>
</g>
<!-- 1&#45;&gt;9 -->
<g id="edge9" class="edge">
<title>1&#45;&gt;9</title>
<path fill="none" stroke="black" d="M137.01,-201.21C144.14,-194.19 156.25,-182.26 165.81,-172.85"/>
<polygon fill="black" stroke="black" points="168.19,-175.41 172.86,-165.9 163.28,-170.42 168.19,-175.41"/>
</g>
<!-- 3 -->
<g id="node4" class="node">
<title>3</title>
<text xml:space="preserve" text-anchor="middle" x="27" y="-101.45" font-family="Times,serif" font-size="14.00">&lt;term&gt;</text>
</g>
<!-- 2&#45;&gt;3 -->
<g id="edge3" class="edge">
<title>2&#45;&gt;3</title>
<path fill="none" stroke="black" d="M74.38,-150.96C66.36,-143.8 52.62,-131.51 41.99,-122.02"/>
<polygon fill="black" stroke="black" points="44.59,-119.65 34.8,-115.6 39.93,-124.87 44.59,-119.65"/>
</g>
<!-- 6 -->
<g id="node7" class="node">
<title>6</title>
<text xml:space="preserve" text-anchor="middle" x="74" y="-101.45" font-family="Times,serif" font-size="14.00"> + </text>
</g>
<!-- 2&#45;&gt;6 -->
<g id="edge6" class="edge">
<title>2&#45;&gt;6</title>
<path fill="none" stroke="black" d="M80.14,-150.96C79.24,-144.74 77.78,-134.65 76.5,-125.89"/>
<polygon fill="black" stroke="black" points="79.98,-125.48 75.08,-116.09 73.05,-126.49 79.98,-125.48"/>
</g>
<!-- 7 -->
<g id="node8" class="node">
<title>7</title>
<text xml:space="preserve" text-anchor="middle" x="120" y="-101.45" font-family="Times,serif" font-size="14.00">&lt;expr&gt;</text>
</g>
<!-- 2&#45;&gt;7 -->
<g id="edge7" class="edge">
<title>2&#45;&gt;7</title>
<path fill="none" stroke="black" d="M85.78,-150.96C91.28,-144.16 100.51,-132.74 107.99,-123.48"/>
<polygon fill="black" stroke="black" points="110.66,-125.74 114.23,-115.77 105.22,-121.34 110.66,-125.74"/>
</g>
<!-- 4 -->
<g id="node5" class="node">
<title>4</title>
<text xml:space="preserve" text-anchor="middle" x="27" y="-51.2" font-family="Times,serif" font-size="14.00">&lt;factor&gt;</text>
</g>
<!-- 3&#45;&gt;4 -->
<g id="edge4" class="edge">
<title>3&#45;&gt;4</title>
<path fill="none" stroke="black" d="M27,-100.71C27,-94.49 27,-84.4 27,-75.64"/>
<polygon fill="black" stroke="black" points="30.5,-75.85 27,-65.85 23.5,-75.85 30.5,-75.85"/>
</g>
<!-- 5 -->
<g id="node6" class="node">
<title>5</title>
<text xml:space="preserve" text-anchor="middle" x="27" y="-0.95" font-family="Times,serif" font-size="14.00">&lt;integer&gt;</text>
</g>
<!-- 4&#45;&gt;5 -->
<g id="edge5" class="edge">
<title>4&#45;&gt;5</title>
<path fill="none" stroke="black" d="M27,-50.46C27,-44.24 27,-34.15 27,-25.39"/>
<polygon fill="black" stroke="black" points="30.5,-25.6 27,-15.6 23.5,-25.6 30.5,-25.6"/>
</g>
<!-- 10 -->
<g id="node11" class="node">
<title>10</title>
<text xml:space="preserve" text-anchor="middle" x="182" y="-101.45" font-family="Times,serif" font-size="14.00">&lt;factor&gt;</text>
</g>
<!-- 9&#45;&gt;10 -->
<g id="edge10" class="edge">
<title>9&#45;&gt;10</title>
<path fill="none" stroke="black" d="M180.25,-150.96C180.5,-144.74 180.92,-134.65 181.28,-125.89"/>
<polygon fill="black" stroke="black" points="184.77,-126.24 181.69,-116.1 177.78,-125.95 184.77,-126.24"/>
</g>
</g>
</svg>