<?xml version="1.0" encoding="UTF-8" standalone="no"?>
<!DOCTYPE svg PUBLIC "-//W3C//DTD SVG 1.1//EN"
 "http://www.w3.org/Graphics/SVG/1.1/DTD/svg11.dtd">
<!-- Generated by graphviz version 13.1.2 (20250808.2320)
 -->
<!-- Pages: 1 -->
<svg width="220pt" height="424pt"
 viewBox="0.00 0.00 220.00 424.00" xmlns="http://www.w3.org/2000/svg" xmlns:xlink="http://www.w3.org/1999/xlink">
<g id="graph0" class="graph" transform="scale(1 1) rotate(0) translate(4 420.25)">
<polygon fill="white" stroke="none" points="-4,4 -4,-420.25 216,-420.25 216,4 -4,4"/>
<!-- 0 -->
<g id="node1" class="node">
<title>0</title>
<text xml:space="preserve" text-anchor="middle" x="131" y="-402.95" font-family="Times,serif" font-size="14.00">&lt;start&gt;</text>
</g>
<!-- 1 -->
<g id="node2" class="node">
<title>1</title>
<text xml:space="preserve" text-anchor="middle" x="131" y="-352.7" font-family="Times,serif" font-size="14.00">&lt;expr&gt;</text>
</g>
<!-- 0&#45;&gt;1 -->
<g id="edge1" class="edge">
<title>0&#45;&gt;1</title>
<path fill="none" stroke="black" d="M131,-402.21C131,-395.99 131,-385.9 131,-377.14"/>
<polygon fill="black" stroke="black" points="134.5,-377.35 131,-367.35 127.5,-377.35 134.5,-377.35"/>
</g>
<!-- 2 -->
<g id="node3" class="node">
<title>2</title>
<text xml:space="preserve" text-anchor="middle" x="81" y="-302.45" font-family="Times,serif" font-size="14.00">&lt;expr&gt;</text>
</g>
<!-- 1&#45;&gt;2 -->
<g id="edge2" class="edge">
<title>1&#45;&gt;2</title>
<path fill="none" stroke="black" d="M124.87,-351.96C117.52,-344.87 104.98,-332.76 95.18,-323.31"/>
<polygon fill="black" stroke="black" points="97.9,-321.07 88.27,-316.64 93.04,-326.1 97.9,-321.07"/>
</g>
<!-- 15 -->
<g id="node16" class="node">
<title>15</title>
<text xml:space="preserve" text-anchor="middle" x="131" y="-302.45" font-family="Times,serif" font-size="14.00"> + </text>
</g>
<!-- 1&#45;&gt;15 -->
<g id="edge15" class="edge">
<title>1&#45;&gt;15</title>
<path fill="none" stroke="black" d="M131,-351.96C131,-345.74 131,-335.65 131,-326.89"/>
<polygon fill="black" stroke="black" points="134.5,-327.1 131,-317.1 127.5,-327.1 134.5,-327.1"/>
</g>
<!-- 16 -->
<g id="node17" class="node">
<title>16</title>
<text xml:space="preserve" text-anchor="middle" x="180" y="-302.45" font-family="Times,serif" font-size="14.00">&lt;term&gt;</text>
</g>
<!-- 1&#45;&gt;16 -->
<g id="edge16" class="edge">
<title>1&#45;&gt;16</title>
<path fill="none" stroke="black" d="M137.01,-351.96C144.14,-344.94 156.25,-333.01 165.81,-323.6"/>
<polygon fill="black" stroke="black" points="168.19,-326.16 172.86,-316.65 163.28,-321.17 168.19,-326.16"/>
</g>
<!-- 3 -->
<g id="node4" class="node">
<title>3</title>
<text xml:space="preserve" text-anchor="middle" x="27" y="-252.2" font-family="Times,serif" font-size="14.00">&lt;term&gt;</text>
</g>
<!-- 2&#45;&gt;3 -->
<g id="edge3" class="edge">
<title>2&#45;&gt;3</title>
<path fill="none" stroke="black" d="M74.38,-301.71C66.36,-294.55 52.62,-282.26 41.99,-272.77"/>
<polygon fill="black" stroke="black" points="44.59,-270.4 34.8,-266.35 39.93,-275.62 44.59,-270.4"/>
</g>
<!-- 8 -->
<g id="node9" class="node">
<title>8</title>
<text xml:space="preserve" text-anchor="middle" x="74" y="-252.2" font-family="Times,serif" font-size="14.00"> + </text>
</g>
<!-- 2&#45;&gt;8 -->
<g id="edge8" class="edge">
<title>2&#45;&gt;8</title>
<path fill="none" stroke="black" d="M80.14,-301.71C79.24,-295.49 77.78,-285.4 76.5,-276.64"/>
<polygon fill="black" stroke="black" points="79.98,-276.23 75.08,-266.84 73.05,-277.24 79.98,-276.23"/>
</g>
<!-- 9 -->
<g id="node10" class="node">
<title>9</title>
<text xml:space="preserve" text-anchor="middle" x="120" y="-252.2" font-family="Times,serif" font-size="14.00">&lt;expr&gt;</text>
</g>
<!-- 2&#45;&gt;9 -->
<g id="edge9" class="edge">
<title>2&#45;&gt;9</title>
<path fill="none" stroke="black" d="M85.78,-301.71C91.28,-294.91 100.51,-283.49 107.99,-274.23"/>
<polygon fill="black" stroke="black" points="110.66,-276.49 114.23,-266.52 105.22,-272.09 110.66,-276.49"/>
</g>
<!-- 4 -->
<g id="node5" class="node">
<title>4</title>
<text xml:space="preserve" text-anchor="middle" x="27" y="-201.95" font-family="Times,serif" font-size="14.00">&lt;factor&gt;</text>
</g>
<!-- 3&#45;&gt;4 -->
<g id="edge4" class="edge">
<title>3&#45;&gt;4</title>
<path fill="none" stroke="black" d="M27,-251.46C27,-245.24 27,-235.15 27,-226.39"/>
<polygon fill="black" stroke="black" points="30.5,-226.6 27,-216.6 23.5,-226.6 30.5,-226.6"/>
</g>
<!-- 5 -->
<g id="node6" class="node">
<title>5</title>
<text xml:space="preserve" text-anchor="middle" x="27" y="-151.7" font-family="Times,serif" font-size="14.00">&lt;integer&gt;</text>
</g>
<!-- 4&#45;&gt;5 -->
<g id="edge5" class="edge">
<title>4&#45;&gt;5</title>
<path fill="none" stroke="black" d="M27,-201.21C27,-194.99 27,-184.9 27,-176.14"/>
<polygon fill="black" stroke="black" points="30.5,-176.35 27,-166.35 23.5,-176.35 30.5,-176.35"/>
</g>
<!-- 6 -->
<g id="node7" class="node">
<title>6</title>
<text xml:space="preserve" text-anchor="middle" x="27" y="-101.45" font-family="Times,serif" font-size="14.00">&lt;digit&gt;</text>
</g>
<!-- 5&#45;&gt;6 -->
<g id="edge6" class="edge">
<title>5&#45;&gt;6</title>
<path fill="none" stroke="black" d="M27,-150.96C27,-144.74 27,-134.65 27,-125.89"/>
<polygon fill="black" stroke="black" points="30.5,-126.1 27,-116.1 23.5,-126.1 30.5,-126.1"/>
</g>
<!-- 7 -->
<g id="node8" class="node">
<title>7</title>
<text xml:space="preserve" text-anchor="middle" x="27" y="-51.2" font-family="Times,serif" font-size="14.00">5 (53)</text>
</g>
<!-- 6&#45;&gt;7 -->
<g id="edge7" class="edge">
<title>6&#45;&gt;7</title>
<path fill="none" stroke="black" d="M27,-100.71C27,-94.49 27,-84.4 27,-75.64"/>
<polygon fill="black" stroke="black" points="30.5,-75.85 27,-65.85 23.5,-75.85 30.5,-75.85"/>
</g>
<!-- 10 -->
<g id="node11" class="node">
<title>10</title>
<text xml:space="preserve" text-anchor="middle" x="119" y="-201.95" font-family="Times,serif" font-size="14.00">&lt;term&gt;</text>
</g>
<!-- 9&#45;&gt;10 -->
<g id="edge10" class="edge">
<title>9&#45;&gt;10</title>
<path fill="none" stroke="black" d="M119.88,-251.46C119.75,-245.24 119.54,-235.15 119.36,-226.39"/>
<polygon fill="black" stroke="black" points="122.86,-226.53 119.15,-216.6 115.86,-226.67 122.86,-226.53"/>
</g>
<!-- 11 -->
<g id="node12" class="node">
<title>11</title>
<text xml:space="preserve" text-anchor="middle" x="119" y="-151.7" font-family="Times,serif" font-size="14.00">&lt;factor&gt;</text>
</g>
<!-- 10&#45;&gt;11 -->
<g id="edge11" class="edge">
<title>10&#45;&gt;11</title>
<path fill="none" stroke="black" d="M119,-201.21C119,-194.99 119,-184.9 119,-176.14"/>
<polygon fill="black" stroke="black" points="122.5,-176.35 119,-166.35 115.5,-176.35 122.5,-176.35"/>
</g>
<!-- 12 -->
<g id="node13" class="node">
<title>12</title>
<text xml:space="preserve" text-anchor="middle" x="119" y="-101.45" font-family="Times,serif" font-size="14.00">&lt;integer&gt;</text>
</g>
<!-- 11&#45;&gt;12 -->
<g id="edge12" class="edge">
<title>11&#45;&gt;12</title>
<path fill="none" stroke="black" d="M119,-150.96C119,-144.74 119,-134.65 119,-125.89"/>
<polygon fill="black" stroke="black" points="122.5,-126.1 119,-116.1 115.5,-126.1 122.5,-126.1"/>
</g>
<!-- 13 -->
<g id="node14" class="node">
<title>13</title>
<text xml:space="preserve" text-anchor="middle" x="119" y="-51.2" font-family="Times,serif" font-size="14.00">&lt;digit&gt;</text>
</g>
<!-- 12&#45;&gt;13 -->
<g id="edge13" class="edge">
<title>12&#45;&gt;13</title>
<path fill="none" stroke="black" d="M119,-100.71C119,-94.49 119,-84.4 119,-75.64"/>
<polygon fill="black" stroke="black" points="122.5,-75.85 119,-65.85 115.5,-75.85 122.5,-75.85"/>
</g>
<!-- 14 -->
<g id="node15" class="node">
<title>14</title>
<text xml:space="preserve" text-anchor="middle" x="119" y="-0.95" font-family="Times,serif" font-size="14.00">7 (55)</text>
</g>
<!-- 13&#45;&gt;14 -->
<g id="edge14" class="edge">
<title>13&#45;&gt;14</title>
<path fill="none" stroke="black" d="M119,-50.46C119,-44.24 119,-34.15 119,-25.39"/>
<polygon fill="black" stroke="black" points="122.5,-25.6 119,-15.6 115.5,-25.6 122.5,-25.6"/>
</g>
<!-- 17 -->
<g id="node18" class="node">
<title>17</title>
<text xml:space="preserve" text-anchor="middle" x="184" y="-252.2" font-family="Times,serif" font-size="14.00">&lt;factor&gt;</text>
</g>
<!-- 16&#45;&gt;17 -->
<g id="edge17" class="edge">
<title>16&#45;&gt;17</title>
<path fill="none" stroke="black" d="M180.49,-301.71C181.01,-295.49 181.84,-285.4 182.57,-276.64"/>
<polygon fill="black" stroke="black" points="186.04,-277.1 183.38,-266.85 179.07,-276.52 186.04,-277.1"/>
</g>
<!-- 18 -->
<g id="node19" class="node">
<title>18</title>
<text xml:space="preserve" text-anchor="middle" x="185" y="-201.95" font-family="Times,serif" font-size="14.00">&lt;integer&gt;</text>
</g>
<!-- 17&#45;&gt;18 -->
<g id="edge18" class="edge">
<title>17&#45;&gt;18</title>
<path fill="none" stroke="black" d="M184.12,-251.46C184.25,-245.24 184.46,-235.15 184.64,-226.39"/>
<polygon fill="black" stroke="black" points="188.14,-226.67 184.85,-216.6 181.14,-226.53 188.14,-226.67"/>
</g>
<!-- 19 -->
<g id="node20" class="node">
<title>19</title>
<text xml:space="preserve" text-anchor="middle" x="185" y="-151.7" font-family="Times,serif" font-size="14.00">&lt;digit&gt;</text>
</g>
<!-- 18&#45;&gt;19 -->
<g id="edge19" class="edge">
<title>18&#45;&gt;19</title>
<path fill="none" stroke="black" d="M185,-201.21C185,-194.99 185,-184.9 185,-176.14"/>
<polygon fill="black" stroke="black" points="188.5,-176.35 185,-166.35 181.5,-176.35 188.5,-176.35"/>
</g>
<!-- 20 -->
<g id="node21" class="node">
<title>20</title>
<text xml:space="preserve" text-anchor="middle" x="185" y="-101.45" font-family="Times,serif" font-size="14.00">6 (54)</text>
</g>
<!-- 19&#45;&gt;20 -->
<g id="edge20" class="edge">
<title>19&#45;&gt;20</title>
<path fill="none" stroke="black" d="M185,-150.96C185,-144.74 185,-134.65 185,-125.89"/>
<polygon fill="black" stroke="black" points="188.5,-126.1 185,-116.1 181.5,-126.1 188.5,-126.1"/>
</g>
</g>
</svg>