<?xml version="1.0" encoding="UTF-8" standalone="no"?>
<!DOCTYPE svg PUBLIC "-//W3C//DTD SVG 1.1//EN"
 "http://www.w3.org/Graphics/SVG/1.1/DTD/svg11.dtd">
<!-- Generated by graphviz version 13.1.2 (20250808.2320)
 -->
<!-- Pages: 1 -->
<svg width="388pt" height="434pt"
 viewBox="0.00 0.00 388.00 434.00" xmlns="http://www.w3.org/2000/svg" xmlns:xlink="http://www.w3.org/1999/xlink">
<g id="graph0" class="graph" transform="scale(1 1) rotate(0) translate(4 429.75)">
<polygon fill="white" stroke="none" points="-4,4 -4,-429.75 383.67,-429.75 383.67,4 -4,4"/>
<!-- start -->
<g id="node1" class="node">
<title>start</title>
<ellipse fill="none" stroke="black" cx="182.57" cy="-407.75" rx="35.46" ry="18"/>
<text xml:space="preserve" text-anchor="middle" x="182.57" y="-401.57" font-family="Times,serif" font-size="14.00">&lt;start&gt;</text>
</g>
<!-- state -->
<g id="node2" class="node">
<title>state</title>
<ellipse fill="none" stroke="black" cx="182.57" cy="-334.75" rx="36.41" ry="18"/>
<text xml:space="preserve" text-anchor="middle" x="182.57" y="-328.57" font-family="Times,serif" font-size="14.00">&lt;state&gt;</text>
</g>
<!-- start&#45;&gt;state -->
<g id="edge1" class="edge">
<title>start&#45;&gt;state</title>
<path fill="none" stroke="black" d="M182.57,-389.56C182.57,-381.98 182.57,-372.85 182.57,-364.29"/>
<polygon fill="black" stroke="black" points="186.07,-364.29 182.57,-354.29 179.07,-364.29 186.07,-364.29"/>
</g>
<!-- state&#45;1 -->
<g id="node3" class="node">
<title>state&#45;1</title>
<ellipse fill="none" stroke="black" cx="43.57" cy="-177.25" rx="43.57" ry="18"/>
<text xml:space="preserve" text-anchor="middle" x="43.57" y="-171.07" font-family="Times,serif" font-size="14.00">&lt;state&#45;1&gt;</text>
</g>
<!-- state&#45;&gt;state&#45;1 -->
<g id="edge2" class="edge">
<title>state&#45;&gt;state&#45;1</title>
<path fill="none" stroke="black" d="M146.6,-331.43C102.36,-327.73 31.1,-318.78 14.82,-298.75 -9.15,-269.26 2.01,-249.03 14.82,-213.25 16.06,-209.77 17.82,-206.39 19.86,-203.19"/>
<polygon fill="black" stroke="black" points="22.49,-205.51 25.69,-195.41 16.89,-201.31 22.49,-205.51"/>
<text xml:space="preserve" text-anchor="start" x="14.82" y="-249.82" font-family="Times,serif" font-size="14.00">click(&#39;terms and conditions&#39;)</text>
</g>
<!-- state&#45;2 -->
<g id="node4" class="node">
<title>state&#45;2</title>
<ellipse fill="none" stroke="black" cx="254.57" cy="-177.25" rx="43.57" ry="18"/>
<text xml:space="preserve" text-anchor="middle" x="254.57" y="-171.07" font-family="Times,serif" font-size="14.00">&lt;state&#45;2&gt;</text>
</g>
<!-- state&#45;&gt;state&#45;2 -->
<g id="edge3" class="edge">
<title>state&#45;&gt;state&#45;2</title>
<path fill="none" stroke="black" d="M190.41,-316.81C202.85,-289.94 227.23,-237.29 242.09,-205.2"/>
<polygon fill="black" stroke="black" points="245.07,-207.08 246.1,-196.54 238.72,-204.14 245.07,-207.08"/>
<text xml:space="preserve" text-anchor="start" x="237.17" y="-285.45" font-family="Times,serif" font-size="14.00">fill(&#39;email&#39;, &#39;&lt;email&gt;&#39;)</text>
<text xml:space="preserve" text-anchor="start" x="237.17" y="-271.2" font-family="Times,serif" font-size="14.00">check(&#39;terms&#39;, &lt;boolean&gt;)</text>
<text xml:space="preserve" text-anchor="start" x="237.17" y="-256.95" font-family="Times,serif" font-size="14.00">fill(&#39;zip&#39;, &#39;&lt;number&gt;&#39;)</text>
<text xml:space="preserve" text-anchor="start" x="237.17" y="-242.7" font-family="Times,serif" font-size="14.00">fill(&#39;name&#39;, &#39;&lt;text&gt;&#39;)</text>
<text xml:space="preserve" text-anchor="start" x="237.17" y="-228.45" font-family="Times,serif" font-size="14.00">fill(&#39;city&#39;, &#39;&lt;text&gt;&#39;)</text>
<text xml:space="preserve" text-anchor="start" x="237.17" y="-214.2" font-family="Times,serif" font-size="14.00">submit(&#39;submit&#39;)</text>
</g>
<!-- end -->
<g id="node5" class="node">
<title>end</title>
<ellipse fill="none" stroke="black" cx="159.57" cy="-91" rx="33.07" ry="18"/>
<text xml:space="preserve" text-anchor="middle" x="159.57" y="-84.83" font-family="Times,serif" font-size="14.00">&lt;end&gt;</text>
</g>
<!-- state&#45;&gt;end -->
<g id="edge4" class="edge">
<title>state&#45;&gt;end</title>
<path fill="none" stroke="black" d="M180.91,-316.36C176.99,-275.16 167.11,-171.22 162.29,-120.6"/>
<polygon fill="black" stroke="black" points="165.78,-120.36 161.35,-110.74 158.81,-121.02 165.78,-120.36"/>
</g>
<!-- state&#45;1&#45;&gt;end -->
<g id="edge6" class="edge">
<title>state&#45;1&#45;&gt;end</title>
<path fill="none" stroke="black" d="M84.19,-170.71C104.43,-166 127.88,-157.3 143.57,-141.25 149.23,-135.46 152.88,-127.65 155.25,-119.96"/>
<polygon fill="black" stroke="black" points="158.59,-121.04 157.52,-110.5 151.78,-119.41 158.59,-121.04"/>
</g>
<!-- state&#45;4 -->
<g id="node6" class="node">
<title>state&#45;4</title>
<ellipse fill="none" stroke="black" cx="54.57" cy="-91" rx="43.57" ry="18"/>
<text xml:space="preserve" text-anchor="middle" x="54.57" y="-84.83" font-family="Times,serif" font-size="14.00">&lt;state&#45;4&gt;</text>
</g>
<!-- state&#45;1&#45;&gt;state&#45;4 -->
<g id="edge5" class="edge">
<title>state&#45;1&#45;&gt;state&#45;4</title>
<path fill="none" stroke="black" d="M42.83,-158.84C42.71,-149.37 42.99,-137.49 44.57,-127 44.9,-124.8 45.33,-122.54 45.82,-120.28"/>
<polygon fill="black" stroke="black" points="49.18,-121.28 48.3,-110.72 42.4,-119.52 49.18,-121.28"/>
<text xml:space="preserve" text-anchor="start" x="44.57" y="-127.95" font-family="Times,serif" font-size="14.00">click(&#39;order form&#39;)</text>
</g>
<!-- state&#45;2&#45;&gt;end -->
<g id="edge8" class="edge">
<title>state&#45;2&#45;&gt;end</title>
<path fill="none" stroke="black" d="M236.7,-160.4C222.1,-147.45 201.27,-128.99 184.94,-114.5"/>
<polygon fill="black" stroke="black" points="187.34,-111.95 177.53,-107.93 182.69,-117.19 187.34,-111.95"/>
</g>
<!-- state&#45;3 -->
<g id="node7" class="node">
<title>state&#45;3</title>
<ellipse fill="none" stroke="black" cx="254.57" cy="-91" rx="43.57" ry="18"/>
<text xml:space="preserve" text-anchor="middle" x="254.57" y="-84.83" font-family="Times,serif" font-size="14.00">&lt;state&#45;3&gt;</text>
</g>
<!-- state&#45;2&#45;&gt;state&#45;3 -->
<g id="edge7" class="edge">
<title>state&#45;2&#45;&gt;state&#45;3</title>
<path fill="none" stroke="black" d="M254.57,-158.79C254.57,-147.84 254.57,-133.44 254.57,-120.82"/>
<polygon fill="black" stroke="black" points="258.07,-120.95 254.57,-110.95 251.07,-120.95 258.07,-120.95"/>
<text xml:space="preserve" text-anchor="start" x="254.57" y="-127.95" font-family="Times,serif" font-size="14.00">click(&#39;order form&#39;)</text>
</g>
<!-- unexplored -->
<g id="node8" class="node">
<title>unexplored</title>
<ellipse fill="none" stroke="black" cx="148.57" cy="-18" rx="59.31" ry="18"/>
<text xml:space="preserve" text-anchor="middle" x="148.57" y="-11.82" font-family="Times,serif" font-size="14.00">&lt;unexplored&gt;</text>
</g>
<!-- state&#45;4&#45;&gt;unexplored -->
<g id="edge9" class="edge">
<title>state&#45;4&#45;&gt;unexplored</title>
<path fill="none" stroke="black" d="M74.5,-74.94C87.23,-65.33 103.99,-52.67 118.34,-41.83"/>
<polygon fill="black" stroke="black" points="120.28,-44.75 126.15,-35.93 116.06,-39.17 120.28,-44.75"/>
</g>
<!-- state&#45;3&#45;&gt;unexplored -->
<g id="edge10" class="edge">
<title>state&#45;3&#45;&gt;unexplored</title>
<path fill="none" stroke="black" d="M232.35,-75.12C217.63,-65.26 198.07,-52.16 181.55,-41.09"/>
<polygon fill="black" stroke="black" points="183.75,-38.35 173.49,-35.69 179.85,-44.17 183.75,-38.35"/>
</g>
</g>
</svg>