<?xml version="1.0" encoding="UTF-8" standalone="no"?>
<!DOCTYPE svg PUBLIC "-//W3C//DTD SVG 1.1//EN"
 "http://www.w3.org/Graphics/SVG/1.1/DTD/svg11.dtd">
<!-- Generated by graphviz version 13.1.2 (20250808.2320)
 -->
<!-- Pages: 1 -->
<svg width="319pt" height="223pt"
 viewBox="0.00 0.00 319.00 223.00" xmlns="http://www.w3.org/2000/svg" xmlns:xlink="http://www.w3.org/1999/xlink">
<g id="graph0" class="graph" transform="scale(1 1) rotate(0) translate(4 219.25)">
<polygon fill="white" stroke="none" points="-4,4 -4,-219.25 314.5,-219.25 314.5,4 -4,4"/>
<!-- 0 -->
<g id="node1" class="node">
<title>0</title>
<text xml:space="preserve" text-anchor="middle" x="146.88" y="-201.95" font-family="Times,serif" font-size="14.00">&lt;start&gt;</text>
</g>
<!-- 1 -->
<g id="node2" class="node">
<title>1</title>
<text xml:space="preserve" text-anchor="middle" x="146.88" y="-151.7" font-family="Times,serif" font-size="14.00">&lt;url&gt;</text>
</g>
<!-- 0&#45;&gt;1 -->
<g id="edge1" class="edge">
<title>0&#45;&gt;1</title>
<path fill="none" stroke="black" d="M146.88,-201.21C146.88,-194.99 146.88,-184.9 146.88,-176.14"/>
<polygon fill="black" stroke="black" points="150.38,-176.35 146.88,-166.35 143.38,-176.35 150.38,-176.35"/>
</g>
<!-- 2 -->
<g id="node3" class="node">
<title>2</title>
<text xml:space="preserve" text-anchor="middle" x="28.88" y="-101.45" font-family="Times,serif" font-size="14.00">&lt;scheme&gt;</text>
</g>
<!-- 1&#45;&gt;2 -->
<g id="edge2" class="edge">
<title>1&#45;&gt;2</title>
<path fill="none" stroke="black" d="M131.93,-150.76C112.42,-142.79 77.99,-128.71 54.33,-119.04"/>
<polygon fill="black" stroke="black" points="55.68,-115.8 45.1,-115.26 53.03,-122.28 55.68,-115.8"/>
</g>
<!-- 4 -->
<g id="node5" class="node">
<title>4</title>
<text xml:space="preserve" text-anchor="middle" x="90.88" y="-101.45" font-family="Times,serif" font-size="14.00">://</text>
</g>
<!-- 1&#45;&gt;4 -->
<g id="edge4" class="edge">
<title>1&#45;&gt;4</title>
<path fill="none" stroke="black" d="M140.01,-150.96C131.33,-143.48 116.19,-130.44 105,-120.8"/>
<polygon fill="black" stroke="black" points="107.46,-118.29 97.6,-114.42 102.89,-123.59 107.46,-118.29"/>
</g>
<!-- 5 -->
<g id="node6" class="node">
<title>5</title>
<text xml:space="preserve" text-anchor="middle" x="146.88" y="-101.45" font-family="Times,serif" font-size="14.00">&lt;authority&gt;</text>
</g>
<!-- 1&#45;&gt;5 -->
<g id="edge5" class="edge">
<title>1&#45;&gt;5</title>
<path fill="none" stroke="black" d="M146.88,-150.96C146.88,-144.74 146.88,-134.65 146.88,-125.89"/>
<polygon fill="black" stroke="black" points="150.38,-126.1 146.88,-116.1 143.38,-126.1 150.38,-126.1"/>
</g>
<!-- 11 -->
<g id="node12" class="node">
<title>11</title>
<text xml:space="preserve" text-anchor="middle" x="222.88" y="-101.45" font-family="Times,serif" font-size="14.00">&lt;path&gt;</text>
</g>
<!-- 1&#45;&gt;11 -->
<g id="edge11" class="edge">
<title>1&#45;&gt;11</title>
<path fill="none" stroke="black" d="M156.5,-150.76C168.44,-143.18 189.07,-130.08 204.17,-120.5"/>
<polygon fill="black" stroke="black" points="205.72,-123.66 212.29,-115.35 201.97,-117.75 205.72,-123.66"/>
</g>
<!-- 13 -->
<g id="node14" class="node">
<title>13</title>
<text xml:space="preserve" text-anchor="middle" x="286.88" y="-101.45" font-family="Times,serif" font-size="14.00">&lt;query&gt;</text>
</g>
<!-- 1&#45;&gt;13 -->
<g id="edge13" class="edge">
<title>1&#45;&gt;13</title>
<path fill="none" stroke="black" d="M162.39,-151.53C185.65,-143.51 229.9,-128.26 258.89,-118.27"/>
<polygon fill="black" stroke="black" points="259.79,-121.66 268.11,-115.09 257.51,-115.04 259.79,-121.66"/>
</g>
<!-- 3 -->
<g id="node4" class="node">
<title>3</title>
<text xml:space="preserve" text-anchor="middle" x="18.88" y="-51.2" font-family="Times,serif" font-size="14.00">http</text>
</g>
<!-- 2&#45;&gt;3 -->
<g id="edge3" class="edge">
<title>2&#45;&gt;3</title>
<path fill="none" stroke="black" d="M27.65,-100.71C26.34,-94.41 24.22,-84.17 22.39,-75.33"/>
<polygon fill="black" stroke="black" points="25.88,-74.9 20.42,-65.82 19.02,-76.32 25.88,-74.9"/>
</g>
<!-- 6 -->
<g id="node7" class="node">
<title>6</title>
<text xml:space="preserve" text-anchor="middle" x="77.88" y="-51.2" font-family="Times,serif" font-size="14.00">&lt;userinfo&gt;</text>
</g>
<!-- 5&#45;&gt;6 -->
<g id="edge6" class="edge">
<title>5&#45;&gt;6</title>
<path fill="none" stroke="black" d="M138.14,-100.51C127.5,-93.08 109.28,-80.34 95.65,-70.81"/>
<polygon fill="black" stroke="black" points="97.77,-68.02 87.57,-65.15 93.76,-73.75 97.77,-68.02"/>
</g>
<!-- 8 -->
<g id="node9" class="node">
<title>8</title>
<text xml:space="preserve" text-anchor="middle" x="145.88" y="-51.2" font-family="Times,serif" font-size="14.00">@ (64)</text>
</g>
<!-- 5&#45;&gt;8 -->
<g id="edge8" class="edge">
<title>5&#45;&gt;8</title>
<path fill="none" stroke="black" d="M146.75,-100.71C146.62,-94.49 146.41,-84.4 146.23,-75.64"/>
<polygon fill="black" stroke="black" points="149.74,-75.78 146.03,-65.85 142.74,-75.92 149.74,-75.78"/>
</g>
<!-- 9 -->
<g id="node10" class="node">
<title>9</title>
<text xml:space="preserve" text-anchor="middle" x="202.88" y="-51.2" font-family="Times,serif" font-size="14.00">&lt;host&gt;</text>
</g>
<!-- 5&#45;&gt;9 -->
<g id="edge9" class="edge">
<title>5&#45;&gt;9</title>
<path fill="none" stroke="black" d="M153.74,-100.71C162.05,-93.55 176.31,-81.26 187.33,-71.77"/>
<polygon fill="black" stroke="black" points="189.51,-74.51 194.81,-65.33 184.95,-69.2 189.51,-74.51"/>
</g>
<!-- 7 -->
<g id="node8" class="node">
<title>7</title>
<text xml:space="preserve" text-anchor="middle" x="77.88" y="-0.95" font-family="Times,serif" font-size="14.00">user:password</text>
</g>
<!-- 6&#45;&gt;7 -->
<g id="edge7" class="edge">
<title>6&#45;&gt;7</title>
<path fill="none" stroke="black" d="M77.88,-50.46C77.88,-44.24 77.88,-34.15 77.88,-25.39"/>
<polygon fill="black" stroke="black" points="81.38,-25.6 77.88,-15.6 74.38,-25.6 81.38,-25.6"/>
</g>
<!-- 10 -->
<g id="node11" class="node">
<title>10</title>
<text xml:space="preserve" text-anchor="middle" x="202.88" y="-0.95" font-family="Times,serif" font-size="14.00">fuzzingbook.com</text>
</g>
<!-- 9&#45;&gt;10 -->
<g id="edge10" class="edge">
<title>9&#45;&gt;10</title>
<path fill="none" stroke="black" d="M202.88,-50.46C202.88,-44.24 202.88,-34.15 202.88,-25.39"/>
<polygon fill="black" stroke="black" points="206.38,-25.6 202.88,-15.6 199.38,-25.6 206.38,-25.6"/>
</g>
<!-- 12 -->
<g id="node13" class="node">
<title>12</title>
<text xml:space="preserve" text-anchor="middle" x="255.88" y="-51.2" font-family="Times,serif" font-size="14.00">/ (47)</text>
</g>
<!-- 11&#45;&gt;12 -->
<g id="edge12" class="edge">
<title>11&#45;&gt;12</title>
<path fill="none" stroke="black" d="M226.92,-100.71C231.47,-94.05 239.05,-82.98 245.31,-73.82"/>
<polygon fill="black" stroke="black" points="248.18,-75.82 250.94,-65.59 242.41,-71.87 248.18,-75.82"/>
</g>
<!-- 14 -->
<g id="node15" class="node">
<title>14</title>
</g>
<!-- 13&#45;&gt;14 -->
<g id="edge14" class="edge">
<title>13&#45;&gt;14</title>
<path fill="none" stroke="black" d="M287.12,-100.71C287.12,-100.66 287.12,-100.61 287.13,-100.56"/>
<polygon fill="black" stroke="black" points="290.15,-112.05 287.07,-101.92 283.15,-111.76 290.15,-112.05"/>
</g>
</g>
</svg>