<?xml version="1.0" encoding="UTF-8" standalone="no"?>
<!DOCTYPE svg PUBLIC "-//W3C//DTD SVG 1.1//EN"
 "http://www.w3.org/Graphics/SVG/1.1/DTD/svg11.dtd">
<!-- Generated by graphviz version 13.1.2 (20250808.2320)
 -->
<!-- Pages: 1 -->
<svg width="358pt" height="475pt"
 viewBox="0.00 0.00 358.00 475.00" xmlns="http://www.w3.org/2000/svg" xmlns:xlink="http://www.w3.org/1999/xlink">
<g id="graph0" class="graph" transform="scale(1 1) rotate(0) translate(4 470.5)">
<polygon fill="white" stroke="none" points="-4,4 -4,-470.5 353.62,-470.5 353.62,4 -4,4"/>
<!-- 0 -->
<g id="node1" class="node">
<title>0</title>
<text xml:space="preserve" text-anchor="middle" x="235" y="-453.2" font-family="Times,serif" font-size="14.00">&lt;start&gt;</text>
</g>
<!-- 1 -->
<g id="node2" class="node">
<title>1</title>
<text xml:space="preserve" text-anchor="middle" x="235" y="-402.95" font-family="Times,serif" font-size="14.00">&lt;expr&gt;</text>
</g>
<!-- 0&#45;&gt;1 -->
<g id="edge1" class="edge">
<title>0&#45;&gt;1</title>
<path fill="none" stroke="black" d="M235,-452.46C235,-446.24 235,-436.15 235,-427.39"/>
<polygon fill="black" stroke="black" points="238.5,-427.6 235,-417.6 231.5,-427.6 238.5,-427.6"/>
</g>
<!-- 2 -->
<g id="node3" class="node">
<title>2</title>
<text xml:space="preserve" text-anchor="middle" x="186" y="-352.7" font-family="Times,serif" font-size="14.00">&lt;expr&gt;</text>
</g>
<!-- 1&#45;&gt;2 -->
<g id="edge2" class="edge">
<title>1&#45;&gt;2</title>
<path fill="none" stroke="black" d="M228.99,-402.21C221.86,-395.19 209.75,-383.26 200.19,-373.85"/>
<polygon fill="black" stroke="black" points="202.72,-371.42 193.14,-366.9 197.81,-376.41 202.72,-371.42"/>
</g>
<!-- 27 -->
<g id="node28" class="node">
<title>27</title>
<text xml:space="preserve" text-anchor="middle" x="235" y="-352.7" font-family="Times,serif" font-size="14.00"> + </text>
</g>
<!-- 1&#45;&gt;27 -->
<g id="edge27" class="edge">
<title>1&#45;&gt;27</title>
<path fill="none" stroke="black" d="M235,-402.21C235,-395.99 235,-385.9 235,-377.14"/>
<polygon fill="black" stroke="black" points="238.5,-377.35 235,-367.35 231.5,-377.35 238.5,-377.35"/>
</g>
<!-- 28 -->
<g id="node29" class="node">
<title>28</title>
<text xml:space="preserve" text-anchor="middle" x="284" y="-352.7" font-family="Times,serif" font-size="14.00">&lt;term&gt;</text>
</g>
<!-- 1&#45;&gt;28 -->
<g id="edge28" class="edge">
<title>1&#45;&gt;28</title>
<path fill="none" stroke="black" d="M241.01,-402.21C248.14,-395.19 260.25,-383.26 269.81,-373.85"/>
<polygon fill="black" stroke="black" points="272.19,-376.41 276.86,-366.9 267.28,-371.42 272.19,-376.41"/>
</g>
<!-- 3 -->
<g id="node4" class="node">
<title>3</title>
<text xml:space="preserve" text-anchor="middle" x="113" y="-302.45" font-family="Times,serif" font-size="14.00">&lt;term&gt;</text>
</g>
<!-- 2&#45;&gt;3 -->
<g id="edge3" class="edge">
<title>2&#45;&gt;3</title>
<path fill="none" stroke="black" d="M176.75,-351.76C165.39,-344.25 145.85,-331.34 131.38,-321.78"/>
<polygon fill="black" stroke="black" points="133.48,-318.96 123.2,-316.37 129.62,-324.8 133.48,-318.96"/>
</g>
<!-- 14 -->
<g id="node15" class="node">
<title>14</title>
<text xml:space="preserve" text-anchor="middle" x="180" y="-302.45" font-family="Times,serif" font-size="14.00"> &#45; </text>
</g>
<!-- 2&#45;&gt;14 -->
<g id="edge14" class="edge">
<title>2&#45;&gt;14</title>
<path fill="none" stroke="black" d="M185.26,-351.96C184.49,-345.74 183.24,-335.65 182.15,-326.89"/>
<polygon fill="black" stroke="black" points="185.64,-326.58 180.93,-317.09 178.69,-327.45 185.64,-326.58"/>
</g>
<!-- 15 -->
<g id="node16" class="node">
<title>15</title>
<text xml:space="preserve" text-anchor="middle" x="224" y="-302.45" font-family="Times,serif" font-size="14.00">&lt;expr&gt;</text>
</g>
<!-- 2&#45;&gt;15 -->
<g id="edge15" class="edge">
<title>2&#45;&gt;15</title>
<path fill="none" stroke="black" d="M190.66,-351.96C196.02,-345.16 205.01,-333.74 212.3,-324.48"/>
<polygon fill="black" stroke="black" points="214.93,-326.8 218.37,-316.78 209.43,-322.47 214.93,-326.8"/>
</g>
<!-- 4 -->
<g id="node5" class="node">
<title>4</title>
<text xml:space="preserve" text-anchor="middle" x="27" y="-252.2" font-family="Times,serif" font-size="14.00">&lt;factor&gt;</text>
</g>
<!-- 3&#45;&gt;4 -->
<g id="edge4" class="edge">
<title>3&#45;&gt;4</title>
<path fill="none" stroke="black" d="M102.11,-301.51C88.41,-293.83 64.61,-280.47 47.47,-270.86"/>
<polygon fill="black" stroke="black" points="49.56,-268.02 39.12,-266.18 46.13,-274.12 49.56,-268.02"/>
</g>
<!-- 8 -->
<g id="node9" class="node">
<title>8</title>
<text xml:space="preserve" text-anchor="middle" x="76" y="-252.2" font-family="Times,serif" font-size="14.00"> * </text>
</g>
<!-- 3&#45;&gt;8 -->
<g id="edge8" class="edge">
<title>3&#45;&gt;8</title>
<path fill="none" stroke="black" d="M108.46,-301.71C103.25,-294.91 94.49,-283.49 87.39,-274.23"/>
<polygon fill="black" stroke="black" points="90.36,-272.35 81.5,-266.54 84.8,-276.61 90.36,-272.35"/>
</g>
<!-- 9 -->
<g id="node10" class="node">
<title>9</title>
<text xml:space="preserve" text-anchor="middle" x="122" y="-252.2" font-family="Times,serif" font-size="14.00">&lt;term&gt;</text>
</g>
<!-- 3&#45;&gt;9 -->
<g id="edge9" class="edge">
<title>3&#45;&gt;9</title>
<path fill="none" stroke="black" d="M114.1,-301.71C115.26,-295.49 117.15,-285.4 118.78,-276.64"/>
<polygon fill="black" stroke="black" points="122.22,-277.3 120.61,-266.83 115.34,-276.02 122.22,-277.3"/>
</g>
<!-- 5 -->
<g id="node6" class="node">
<title>5</title>
<text xml:space="preserve" text-anchor="middle" x="27" y="-201.95" font-family="Times,serif" font-size="14.00">&lt;integer&gt;</text>
</g>
<!-- 4&#45;&gt;5 -->
<g id="edge5" class="edge">
<title>4&#45;&gt;5</title>
<path fill="none" stroke="black" d="M27,-251.46C27,-245.24 27,-235.15 27,-226.39"/>
<polygon fill="black" stroke="black" points="30.5,-226.6 27,-216.6 23.5,-226.6 30.5,-226.6"/>
</g>
<!-- 6 -->
<g id="node7" class="node">
<title>6</title>
<text xml:space="preserve" text-anchor="middle" x="27" y="-151.7" font-family="Times,serif" font-size="14.00">&lt;digit&gt;</text>
</g>
<!-- 5&#45;&gt;6 -->
<g id="edge6" class="edge">
<title>5&#45;&gt;6</title>
<path fill="none" stroke="black" d="M27,-201.21C27,-194.99 27,-184.9 27,-176.14"/>
<polygon fill="black" stroke="black" points="30.5,-176.35 27,-166.35 23.5,-176.35 30.5,-176.35"/>
</g>
<!-- 7 -->
<g id="node8" class="node">
<title>7</title>
<text xml:space="preserve" text-anchor="middle" x="27" y="-101.45" font-family="Times,serif" font-size="14.00">5 (53)</text>
</g>
<!-- 6&#45;&gt;7 -->
<g id="edge7" class="edge">
<title>6&#45;&gt;7</title>
<path fill="none" stroke="black" d="M27,-150.96C27,-144.74 27,-134.65 27,-125.89"/>
<polygon fill="black" stroke="black" points="30.5,-126.1 27,-116.1 23.5,-126.1 30.5,-126.1"/>
</g>
<!-- 10 -->
<g id="node11" class="node">
<title>10</title>
<text xml:space="preserve" text-anchor="middle" x="107" y="-201.95" font-family="Times,serif" font-size="14.00">&lt;factor&gt;</text>
</g>
<!-- 9&#45;&gt;10 -->
<g id="edge10" class="edge">
<title>9&#45;&gt;10</title>
<path fill="none" stroke="black" d="M120.16,-251.46C118.2,-245.16 115.02,-234.92 112.27,-226.08"/>
<polygon fill="black" stroke="black" points="115.61,-225.05 109.3,-216.54 108.93,-227.12 115.61,-225.05"/>
</g>
<!-- 11 -->
<g id="node12" class="node">
<title>11</title>
<text xml:space="preserve" text-anchor="middle" x="106" y="-151.7" font-family="Times,serif" font-size="14.00">&lt;integer&gt;</text>
</g>
<!-- 10&#45;&gt;11 -->
<g id="edge11" class="edge">
<title>10&#45;&gt;11</title>
<path fill="none" stroke="black" d="M106.88,-201.21C106.75,-194.99 106.54,-184.9 106.36,-176.14"/>
<polygon fill="black" stroke="black" points="109.86,-176.28 106.15,-166.35 102.86,-176.42 109.86,-176.28"/>
</g>
<!-- 12 -->
<g id="node13" class="node">
<title>12</title>
<text xml:space="preserve" text-anchor="middle" x="106" y="-101.45" font-family="Times,serif" font-size="14.00">&lt;digit&gt;</text>
</g>
<!-- 11&#45;&gt;12 -->
<g id="edge12" class="edge">
<title>11&#45;&gt;12</title>
<path fill="none" stroke="black" d="M106,-150.96C106,-144.74 106,-134.65 106,-125.89"/>
<polygon fill="black" stroke="black" points="109.5,-126.1 106,-116.1 102.5,-126.1 109.5,-126.1"/>
</g>
<!-- 13 -->
<g id="node14" class="node">
<title>13</title>
<text xml:space="preserve" text-anchor="middle" x="106" y="-51.2" font-family="Times,serif" font-size="14.00">0 (48)</text>
</g>
<!-- 12&#45;&gt;13 -->
<g id="edge13" class="edge">
<title>12&#45;&gt;13</title>
<path fill="none" stroke="black" d="M106,-100.71C106,-94.49 106,-84.4 106,-75.64"/>
<polygon fill="black" stroke="black" points="109.5,-75.85 106,-65.85 102.5,-75.85 109.5,-75.85"/>
</g>
<!-- 16 -->
<g id="node17" class="node">
<title>16</title>
<text xml:space="preserve" text-anchor="middle" x="224" y="-252.2" font-family="Times,serif" font-size="14.00">&lt;term&gt;</text>
</g>
<!-- 15&#45;&gt;16 -->
<g id="edge16" class="edge">
<title>15&#45;&gt;16</title>
<path fill="none" stroke="black" d="M224,-301.71C224,-295.49 224,-285.4 224,-276.64"/>
<polygon fill="black" stroke="black" points="227.5,-276.85 224,-266.85 220.5,-276.85 227.5,-276.85"/>
</g>
<!-- 17 -->
<g id="node18" class="node">
<title>17</title>
<text xml:space="preserve" text-anchor="middle" x="176" y="-201.95" font-family="Times,serif" font-size="14.00">&lt;factor&gt;</text>
</g>
<!-- 16&#45;&gt;17 -->
<g id="edge17" class="edge">
<title>16&#45;&gt;17</title>
<path fill="none" stroke="black" d="M218.11,-251.46C211.13,-244.44 199.26,-232.51 189.9,-223.1"/>
<polygon fill="black" stroke="black" points="192.54,-220.78 183,-216.16 187.57,-225.72 192.54,-220.78"/>
</g>
<!-- 21 -->
<g id="node22" class="node">
<title>21</title>
<text xml:space="preserve" text-anchor="middle" x="224" y="-201.95" font-family="Times,serif" font-size="14.00"> / </text>
</g>
<!-- 16&#45;&gt;21 -->
<g id="edge21" class="edge">
<title>16&#45;&gt;21</title>
<path fill="none" stroke="black" d="M224,-251.46C224,-245.24 224,-235.15 224,-226.39"/>
<polygon fill="black" stroke="black" points="227.5,-226.6 224,-216.6 220.5,-226.6 227.5,-226.6"/>
</g>
<!-- 22 -->
<g id="node23" class="node">
<title>22</title>
<text xml:space="preserve" text-anchor="middle" x="269" y="-201.95" font-family="Times,serif" font-size="14.00">&lt;term&gt;</text>
</g>
<!-- 16&#45;&gt;22 -->
<g id="edge22" class="edge">
<title>16&#45;&gt;22</title>
<path fill="none" stroke="black" d="M229.52,-251.46C236,-244.51 246.96,-232.75 255.7,-223.39"/>
<polygon fill="black" stroke="black" points="258.14,-225.9 262.4,-216.2 253.02,-221.12 258.14,-225.9"/>
</g>
<!-- 18 -->
<g id="node19" class="node">
<title>18</title>
<text xml:space="preserve" text-anchor="middle" x="178" y="-151.7" font-family="Times,serif" font-size="14.00">&lt;integer&gt;</text>
</g>
<!-- 17&#45;&gt;18 -->
<g id="edge18" class="edge">
<title>17&#45;&gt;18</title>
<path fill="none" stroke="black" d="M176.25,-201.21C176.5,-194.99 176.92,-184.9 177.28,-176.14"/>
<polygon fill="black" stroke="black" points="180.77,-176.49 177.69,-166.35 173.78,-176.2 180.77,-176.49"/>
</g>
<!-- 19 -->
<g id="node20" class="node">
<title>19</title>
<text xml:space="preserve" text-anchor="middle" x="178" y="-101.45" font-family="Times,serif" font-size="14.00">&lt;digit&gt;</text>
</g>
<!-- 18&#45;&gt;19 -->
<g id="edge19" class="edge">
<title>18&#45;&gt;19</title>
<path fill="none" stroke="black" d="M178,-150.96C178,-144.74 178,-134.65 178,-125.89"/>
<polygon fill="black" stroke="black" points="181.5,-126.1 178,-116.1 174.5,-126.1 181.5,-126.1"/>
</g>
<!-- 20 -->
<g id="node21" class="node">
<title>20</title>
<text xml:space="preserve" text-anchor="middle" x="178" y="-51.2" font-family="Times,serif" font-size="14.00">0 (48)</text>
</g>
<!-- 19&#45;&gt;20 -->
<g id="edge20" class="edge">
<title>19&#45;&gt;20</title>
<path fill="none" stroke="black" d="M178,-100.71C178,-94.49 178,-84.4 178,-75.64"/>
<polygon fill="black" stroke="black" points="181.5,-75.85 178,-65.85 174.5,-75.85 181.5,-75.85"/>
</g>
<!-- 23 -->
<g id="node24" class="node">
<title>23</title>
<text xml:space="preserve" text-anchor="middle" x="269" y="-151.7" font-family="Times,serif" font-size="14.00">&lt;factor&gt;</text>
</g>
<!-- 22&#45;&gt;23 -->
<g id="edge23" class="edge">
<title>22&#45;&gt;23</title>
<path fill="none" stroke="black" d="M269,-201.21C269,-194.99 269,-184.9 269,-176.14"/>
<polygon fill="black" stroke="black" points="272.5,-176.35 269,-166.35 265.5,-176.35 272.5,-176.35"/>
</g>
<!-- 24 -->
<g id="node25" class="node">
<title>24</title>
<text xml:space="preserve" text-anchor="middle" x="269" y="-101.45" font-family="Times,serif" font-size="14.00">&lt;integer&gt;</text>
</g>
<!-- 23&#45;&gt;24 -->
<g id="edge24" class="edge">
<title>23&#45;&gt;24</title>
<path fill="none" stroke="black" d="M269,-150.96C269,-144.74 269,-134.65 269,-125.89"/>
<polygon fill="black" stroke="black" points="272.5,-126.1 269,-116.1 265.5,-126.1 272.5,-126.1"/>
</g>
<!-- 25 -->
<g id="node26" class="node">
<title>25</title>
<text xml:space="preserve" text-anchor="middle" x="269" y="-51.2" font-family="Times,serif" font-size="14.00">&lt;digit&gt;</text>
</g>
<!-- 24&#45;&gt;25 -->
<g id="edge25" class="edge">
<title>24&#45;&gt;25</title>
<path fill="none" stroke="black" d="M269,-100.71C269,-94.49 269,-84.4 269,-75.64"/>
<polygon fill="black" stroke="black" points="272.5,-75.85 269,-65.85 265.5,-75.85 272.5,-75.85"/>
</g>
<!-- 26 -->
<g id="node27" class="node">
<title>26</title>
<text xml:space="preserve" text-anchor="middle" x="269" y="-0.95" font-family="Times,serif" font-size="14.00">8 (56)</text>
</g>
<!-- 25&#45;&gt;26 -->
<g id="edge26" class="edge">
<title>25&#45;&gt;26</title>
<path fill="none" stroke="black" d="M269,-50.46C269,-44.24 269,-34.15 269,-25.39"/>
<polygon fill="black" stroke="black" points="272.5,-25.6 269,-15.6 265.5,-25.6 272.5,-25.6"/>
</g>
<!-- 29 -->
<g id="node30" class="node">
<title>29</title>
<text xml:space="preserve" text-anchor="middle" x="288" y="-302.45" font-family="Times,serif" font-size="14.00">&lt;factor&gt;</text>
</g>
<!-- 28&#45;&gt;29 -->
<g id="edge29" class="edge">
<title>28&#45;&gt;29</title>
<path fill="none" stroke="black" d="M284.49,-351.96C285.01,-345.74 285.84,-335.65 286.57,-326.89"/>
<polygon fill="black" stroke="black" points="290.04,-327.35 287.38,-317.1 283.07,-326.77 290.04,-327.35"/>
</g>
<!-- 30 -->
<g id="node31" class="node">
<title>30</title>
<text xml:space="preserve" text-anchor="middle" x="309" y="-252.2" font-family="Times,serif" font-size="14.00">&lt;integer&gt;</text>
</g>
<!-- 29&#45;&gt;30 -->
<g id="edge30" class="edge">
<title>29&#45;&gt;30</title>
<path fill="none" stroke="black" d="M290.58,-301.71C293.38,-295.27 297.98,-284.69 301.88,-275.72"/>
<polygon fill="black" stroke="black" points="305.02,-277.29 305.8,-266.73 298.6,-274.5 305.02,-277.29"/>
</g>
<!-- 31 -->
<g id="node32" class="node">
<title>31</title>
<text xml:space="preserve" text-anchor="middle" x="329" y="-201.95" font-family="Times,serif" font-size="14.00">&lt;digit&gt;</text>
</g>
<!-- 30&#45;&gt;31 -->
<g id="edge31" class="edge">
<title>30&#45;&gt;31</title>
<path fill="none" stroke="black" d="M311.45,-251.46C314.12,-245.02 318.51,-234.44 322.22,-225.47"/>
<polygon fill="black" stroke="black" points="325.35,-227.07 325.95,-216.49 318.89,-224.39 325.35,-227.07"/>
</g>
<!-- 32 -->
<g id="node33" class="node">
<title>32</title>
<text xml:space="preserve" text-anchor="middle" x="329" y="-151.7" font-family="Times,serif" font-size="14.00">1 (49)</text>
</g>
<!-- 31&#45;&gt;32 -->
<g id="edge32" class="edge">
<title>31&#45;&gt;32</title>
<path fill="none" stroke="black" d="M329,-201.21C329,-194.99 329,-184.9 329,-176.14"/>
<polygon fill="black" stroke="black" points="332.5,-176.35 329,-166.35 325.5,-176.35 332.5,-176.35"/>
</g>
</g>
</svg>