<?xml version="1.0" encoding="UTF-8" standalone="no"?>
<!DOCTYPE svg PUBLIC "-//W3C//DTD SVG 1.1//EN"
 "http://www.w3.org/Graphics/SVG/1.1/DTD/svg11.dtd">
<!-- Generated by graphviz version 13.1.2 (20250808.2320)
 -->
<!-- Pages: 1 -->
<svg width="349pt" height="223pt"
 viewBox="0.00 0.00 349.00 223.00" xmlns="http://www.w3.org/2000/svg" xmlns:xlink="http://www.w3.org/1999/xlink">
<g id="graph0" class="graph" transform="scale(1 1) rotate(0) translate(4 219.25)">
<polygon fill="white" stroke="none" points="-4,4 -4,-219.25 345.12,-219.25 345.12,4 -4,4"/>
<!-- 0 -->
<g id="node1" class="node">
<title>0</title>
<text xml:space="preserve" text-anchor="middle" x="156.5" y="-201.95" font-family="Times,serif" font-size="14.00">&lt;start&gt;</text>
</g>
<!-- 1 -->
<g id="node2" class="node">
<title>1</title>
<text xml:space="preserve" text-anchor="middle" x="156.5" y="-151.7" font-family="Times,serif" font-size="14.00">&lt;url&gt;</text>
</g>
<!-- 0&#45;&gt;1 -->
<g id="edge1" class="edge">
<title>0&#45;&gt;1</title>
<path fill="none" stroke="black" d="M156.5,-201.21C156.5,-194.99 156.5,-184.9 156.5,-176.14"/>
<polygon fill="black" stroke="black" points="160,-176.35 156.5,-166.35 153,-176.35 160,-176.35"/>
</g>
<!-- 2 -->
<g id="node3" class="node">
<title>2</title>
<text xml:space="preserve" text-anchor="middle" x="38.5" y="-101.45" font-family="Times,serif" font-size="14.00">&lt;scheme&gt;</text>
</g>
<!-- 1&#45;&gt;2 -->
<g id="edge2" class="edge">
<title>1&#45;&gt;2</title>
<path fill="none" stroke="black" d="M141.56,-150.76C122.05,-142.79 87.62,-128.71 63.96,-119.04"/>
<polygon fill="black" stroke="black" points="65.31,-115.8 54.72,-115.26 62.66,-122.28 65.31,-115.8"/>
</g>
<!-- 4 -->
<g id="node5" class="node">
<title>4</title>
<text xml:space="preserve" text-anchor="middle" x="100.5" y="-101.45" font-family="Times,serif" font-size="14.00">://</text>
</g>
<!-- 1&#45;&gt;4 -->
<g id="edge4" class="edge">
<title>1&#45;&gt;4</title>
<path fill="none" stroke="black" d="M149.63,-150.96C140.96,-143.48 125.82,-130.44 114.63,-120.8"/>
<polygon fill="black" stroke="black" points="117.08,-118.29 107.22,-114.42 112.51,-123.59 117.08,-118.29"/>
</g>
<!-- 5 -->
<g id="node6" class="node">
<title>5</title>
<text xml:space="preserve" text-anchor="middle" x="156.5" y="-101.45" font-family="Times,serif" font-size="14.00">&lt;authority&gt;</text>
</g>
<!-- 1&#45;&gt;5 -->
<g id="edge5" class="edge">
<title>1&#45;&gt;5</title>
<path fill="none" stroke="black" d="M156.5,-150.96C156.5,-144.74 156.5,-134.65 156.5,-125.89"/>
<polygon fill="black" stroke="black" points="160,-126.1 156.5,-116.1 153,-126.1 160,-126.1"/>
</g>
<!-- 11 -->
<g id="node12" class="node">
<title>11</title>
<text xml:space="preserve" text-anchor="middle" x="247.5" y="-101.45" font-family="Times,serif" font-size="14.00">&lt;path&gt;</text>
</g>
<!-- 1&#45;&gt;11 -->
<g id="edge11" class="edge">
<title>1&#45;&gt;11</title>
<path fill="none" stroke="black" d="M168.03,-150.76C182.59,-143.04 207.94,-129.6 226.1,-119.97"/>
<polygon fill="black" stroke="black" points="227.54,-123.17 234.73,-115.4 224.26,-116.99 227.54,-123.17"/>
</g>
<!-- 15 -->
<g id="node16" class="node">
<title>15</title>
<text xml:space="preserve" text-anchor="middle" x="317.5" y="-101.45" font-family="Times,serif" font-size="14.00">&lt;query&gt;</text>
</g>
<!-- 1&#45;&gt;15 -->
<g id="edge15" class="edge">
<title>1&#45;&gt;15</title>
<path fill="none" stroke="black" d="M172.23,-152.16C198.6,-144.26 252.21,-128.19 286.41,-117.94"/>
<polygon fill="black" stroke="black" points="287.17,-121.37 295.75,-115.14 285.16,-114.66 287.17,-121.37"/>
</g>
<!-- 3 -->
<g id="node4" class="node">
<title>3</title>
<text xml:space="preserve" text-anchor="middle" x="10.5" y="-51.2" font-family="Times,serif" font-size="14.00">http</text>
</g>
<!-- 2&#45;&gt;3 -->
<g id="edge3" class="edge">
<title>2&#45;&gt;3</title>
<path fill="none" stroke="black" d="M35.07,-100.71C31.25,-94.12 24.92,-83.22 19.64,-74.12"/>
<polygon fill="black" stroke="black" points="22.77,-72.54 14.72,-65.65 16.71,-76.05 22.77,-72.54"/>
</g>
<!-- 6 -->
<g id="node7" class="node">
<title>6</title>
<text xml:space="preserve" text-anchor="middle" x="69.5" y="-51.2" font-family="Times,serif" font-size="14.00">&lt;userinfo&gt;</text>
</g>
<!-- 5&#45;&gt;6 -->
<g id="edge6" class="edge">
<title>5&#45;&gt;6</title>
<path fill="none" stroke="black" d="M145.48,-100.51C131.62,-92.83 107.55,-79.47 90.2,-69.86"/>
<polygon fill="black" stroke="black" points="92.2,-66.96 81.75,-65.17 88.8,-73.08 92.2,-66.96"/>
</g>
<!-- 8 -->
<g id="node9" class="node">
<title>8</title>
<text xml:space="preserve" text-anchor="middle" x="137.5" y="-51.2" font-family="Times,serif" font-size="14.00">@ (64)</text>
</g>
<!-- 5&#45;&gt;8 -->
<g id="edge8" class="edge">
<title>5&#45;&gt;8</title>
<path fill="none" stroke="black" d="M154.17,-100.71C151.66,-94.34 147.56,-83.93 144.06,-75.03"/>
<polygon fill="black" stroke="black" points="147.32,-73.77 140.4,-65.75 140.81,-76.34 147.32,-73.77"/>
</g>
<!-- 9 -->
<g id="node10" class="node">
<title>9</title>
<text xml:space="preserve" text-anchor="middle" x="194.5" y="-51.2" font-family="Times,serif" font-size="14.00">&lt;host&gt;</text>
</g>
<!-- 5&#45;&gt;9 -->
<g id="edge9" class="edge">
<title>5&#45;&gt;9</title>
<path fill="none" stroke="black" d="M161.16,-100.71C166.52,-93.91 175.51,-82.49 182.8,-73.23"/>
<polygon fill="black" stroke="black" points="185.43,-75.55 188.87,-65.53 179.93,-71.22 185.43,-75.55"/>
</g>
<!-- 7 -->
<g id="node8" class="node">
<title>7</title>
<text xml:space="preserve" text-anchor="middle" x="69.5" y="-0.95" font-family="Times,serif" font-size="14.00">user:password</text>
</g>
<!-- 6&#45;&gt;7 -->
<g id="edge7" class="edge">
<title>6&#45;&gt;7</title>
<path fill="none" stroke="black" d="M69.5,-50.46C69.5,-44.24 69.5,-34.15 69.5,-25.39"/>
<polygon fill="black" stroke="black" points="73,-25.6 69.5,-15.6 66,-25.6 73,-25.6"/>
</g>
<!-- 10 -->
<g id="node11" class="node">
<title>10</title>
<text xml:space="preserve" text-anchor="middle" x="194.5" y="-0.95" font-family="Times,serif" font-size="14.00">cispa.saarland</text>
</g>
<!-- 9&#45;&gt;10 -->
<g id="edge10" class="edge">
<title>9&#45;&gt;10</title>
<path fill="none" stroke="black" d="M194.5,-50.46C194.5,-44.24 194.5,-34.15 194.5,-25.39"/>
<polygon fill="black" stroke="black" points="198,-25.6 194.5,-15.6 191,-25.6 198,-25.6"/>
</g>
<!-- 12 -->
<g id="node13" class="node">
<title>12</title>
<text xml:space="preserve" text-anchor="middle" x="247.5" y="-51.2" font-family="Times,serif" font-size="14.00">/ (47)</text>
</g>
<!-- 11&#45;&gt;12 -->
<g id="edge12" class="edge">
<title>11&#45;&gt;12</title>
<path fill="none" stroke="black" d="M247.5,-100.71C247.5,-94.49 247.5,-84.4 247.5,-75.64"/>
<polygon fill="black" stroke="black" points="251,-75.85 247.5,-65.85 244,-75.85 251,-75.85"/>
</g>
<!-- 13 -->
<g id="node14" class="node">
<title>13</title>
<text xml:space="preserve" text-anchor="middle" x="294.5" y="-51.2" font-family="Times,serif" font-size="14.00">&lt;id&gt;</text>
</g>
<!-- 11&#45;&gt;13 -->
<g id="edge13" class="edge">
<title>11&#45;&gt;13</title>
<path fill="none" stroke="black" d="M253.26,-100.71C260.1,-93.69 271.72,-81.76 280.89,-72.35"/>
<polygon fill="black" stroke="black" points="283.16,-75.03 287.63,-65.42 278.15,-70.15 283.16,-75.03"/>
</g>
<!-- 14 -->
<g id="node15" class="node">
<title>14</title>
<text xml:space="preserve" text-anchor="middle" x="294.5" y="-0.95" font-family="Times,serif" font-size="14.00">def</text>
</g>
<!-- 13&#45;&gt;14 -->
<g id="edge14" class="edge">
<title>13&#45;&gt;14</title>
<path fill="none" stroke="black" d="M294.5,-50.46C294.5,-44.24 294.5,-34.15 294.5,-25.39"/>
<polygon fill="black" stroke="black" points="298,-25.6 294.5,-15.6 291,-25.6 298,-25.6"/>
</g>
<!-- 16 -->
<g id="node17" class="node">
<title>16</title>
</g>
<!-- 15&#45;&gt;16 -->
<g id="edge16" class="edge">
<title>15&#45;&gt;16</title>
<path fill="none" stroke="black" d="M318.6,-100.71C318.61,-100.66 318.62,-100.61 318.63,-100.56"/>
<polygon fill="black" stroke="black" points="319.98,-112.37 318.38,-101.89 313.1,-111.08 319.98,-112.37"/>
</g>
</g>
</svg>