<?xml version="1.0" encoding="UTF-8" standalone="no"?>
<!DOCTYPE svg PUBLIC "-//W3C//DTD SVG 1.1//EN"
 "http://www.w3.org/Graphics/SVG/1.1/DTD/svg11.dtd">
<!-- Generated by graphviz version 13.1.2 (20250808.2320)
 -->
<!-- Pages: 1 -->
<svg width="188pt" height="223pt"
 viewBox="0.00 0.00 188.00 223.00" xmlns="http://www.w3.org/2000/svg" xmlns:xlink="http://www.w3.org/1999/xlink">
<g id="graph0" class="graph" transform="scale(1 1) rotate(0) translate(4 219.25)">
<polygon fill="white" stroke="none" points="-4,4 -4,-219.25 184,-219.25 184,4 -4,4"/>
<!-- 0 -->
<g id="node1" class="node">
<title>0</title>
<text xml:space="preserve" text-anchor="middle" x="112" y="-201.95" font-family="Times,serif" font-size="14.00">&lt;start&gt;</text>
</g>
<!-- 1 -->
<g id="node2" class="node">
<title>1</title>
<text xml:space="preserve" text-anchor="middle" x="112" y="-151.7" font-family="Times,serif" font-size="14.00">&lt;expr&gt;</text>
</g>
<!-- 0&#45;&gt;1 -->
<g id="edge1" class="edge">
<title>0&#45;&gt;1</title>
<path fill="none" stroke="black" d="M112,-201.21C112,-194.99 112,-184.9 112,-176.14"/>
<polygon fill="black" stroke="black" points="115.5,-176.35 112,-166.35 108.5,-176.35 115.5,-176.35"/>
</g>
<!-- 2 -->
<g id="node3" class="node">
<title>2</title>
<text xml:space="preserve" text-anchor="middle" x="66" y="-101.45" font-family="Times,serif" font-size="14.00">&lt;expr&gt;</text>
</g>
<!-- 1&#45;&gt;2 -->
<g id="edge2" class="edge">
<title>1&#45;&gt;2</title>
<path fill="none" stroke="black" d="M106.36,-150.96C99.74,-144.01 88.53,-132.25 79.6,-122.89"/>
<polygon fill="black" stroke="black" points="82.16,-120.51 72.73,-115.69 77.1,-125.34 82.16,-120.51"/>
</g>
<!-- 9 -->
<g id="node10" class="node">
<title>9</title>
<text xml:space="preserve" text-anchor="middle" x="112" y="-101.45" font-family="Times,serif" font-size="14.00"> + </text>
</g>
<!-- 1&#45;&gt;9 -->
<g id="edge9" class="edge">
<title>1&#45;&gt;9</title>
<path fill="none" stroke="black" d="M112,-150.96C112,-144.74 112,-134.65 112,-125.89"/>
<polygon fill="black" stroke="black" points="115.5,-126.1 112,-116.1 108.5,-126.1 115.5,-126.1"/>
</g>
<!-- 10 -->
<g id="node11" class="node">
<title>10</title>
<text xml:space="preserve" text-anchor="middle" x="159" y="-101.45" font-family="Times,serif" font-size="14.00">&lt;term&gt;</text>
</g>
<!-- 1&#45;&gt;10 -->
<g id="edge10" class="edge">
<title>1&#45;&gt;10</title>
<path fill="none" stroke="black" d="M117.76,-150.96C124.6,-143.94 136.22,-132.01 145.39,-122.6"/>
<polygon fill="black" stroke="black" points="147.66,-125.28 152.13,-115.67 142.65,-120.4 147.66,-125.28"/>
</g>
<!-- 3 -->
<g id="node4" class="node">
<title>3</title>
<text xml:space="preserve" text-anchor="middle" x="21" y="-51.2" font-family="Times,serif" font-size="14.00">&lt;term&gt;</text>
</g>
<!-- 2&#45;&gt;3 -->
<g id="edge3" class="edge">
<title>2&#45;&gt;3</title>
<path fill="none" stroke="black" d="M60.48,-100.71C54,-93.76 43.04,-82 34.3,-72.64"/>
<polygon fill="black" stroke="black" points="36.98,-70.37 27.6,-65.45 31.86,-75.15 36.98,-70.37"/>
</g>
<!-- 4 -->
<g id="node5" class="node">
<title>4</title>
<text xml:space="preserve" text-anchor="middle" x="66" y="-51.2" font-family="Times,serif" font-size="14.00"> &#45; </text>
</g>
<!-- 2&#45;&gt;4 -->
<g id="edge4" class="edge">
<title>2&#45;&gt;4</title>
<path fill="none" stroke="black" d="M66,-100.71C66,-94.49 66,-84.4 66,-75.64"/>
<polygon fill="black" stroke="black" points="69.5,-75.85 66,-65.85 62.5,-75.85 69.5,-75.85"/>
</g>
<!-- 5 -->
<g id="node6" class="node">
<title>5</title>
<text xml:space="preserve" text-anchor="middle" x="110" y="-51.2" font-family="Times,serif" font-size="14.00">&lt;expr&gt;</text>
</g>
<!-- 2&#45;&gt;5 -->
<g id="edge5" class="edge">
<title>2&#45;&gt;5</title>
<path fill="none" stroke="black" d="M71.4,-100.71C77.73,-93.76 88.45,-82 96.99,-72.64"/>
<polygon fill="black" stroke="black" points="99.39,-75.21 103.54,-65.46 94.22,-70.49 99.39,-75.21"/>
</g>
<!-- 6 -->
<g id="node7" class="node">
<title>6</title>
<text xml:space="preserve" text-anchor="middle" x="65" y="-0.95" font-family="Times,serif" font-size="14.00">&lt;term&gt;</text>
</g>
<!-- 5&#45;&gt;6 -->
<g id="edge6" class="edge">
<title>5&#45;&gt;6</title>
<path fill="none" stroke="black" d="M104.48,-50.46C98,-43.51 87.04,-31.75 78.3,-22.39"/>
<polygon fill="black" stroke="black" points="80.98,-20.12 71.6,-15.2 75.86,-24.9 80.98,-20.12"/>
</g>
<!-- 7 -->
<g id="node8" class="node">
<title>7</title>
<text xml:space="preserve" text-anchor="middle" x="110" y="-0.95" font-family="Times,serif" font-size="14.00"> &#45; </text>
</g>
<!-- 5&#45;&gt;7 -->
<g id="edge7" class="edge">
<title>5&#45;&gt;7</title>
<path fill="none" stroke="black" d="M110,-50.46C110,-44.24 110,-34.15 110,-25.39"/>
<polygon fill="black" stroke="black" points="113.5,-25.6 110,-15.6 106.5,-25.6 113.5,-25.6"/>
</g>
<!-- 8 -->
<g id="node9" class="node">
<title>8</title>
<text xml:space="preserve" text-anchor="middle" x="154" y="-0.95" font-family="Times,serif" font-size="14.00">&lt;expr&gt;</text>
</g>
<!-- 5&#45;&gt;8 -->
<g id="edge8" class="edge">
<title>5&#45;&gt;8</title>
<path fill="none" stroke="black" d="M115.4,-50.46C121.73,-43.51 132.45,-31.75 140.99,-22.39"/>
<polygon fill="black" stroke="black" points="143.39,-24.96 147.54,-15.21 138.22,-20.24 143.39,-24.96"/>
</g>
</g>
</svg>