<?xml version="1.0" encoding="UTF-8" standalone="no"?>
<!DOCTYPE svg PUBLIC "-//W3C//DTD SVG 1.1//EN"
 "http://www.w3.org/Graphics/SVG/1.1/DTD/svg11.dtd">
<!-- Generated by graphviz version 13.1.2 (20250808.2320)
 -->
<!-- Pages: 1 -->
<svg width="346pt" height="223pt"
 viewBox="0.00 0.00 346.00 223.00" xmlns="http://www.w3.org/2000/svg" xmlns:xlink="http://www.w3.org/1999/xlink">
<g id="graph0" class="graph" transform="scale(1 1) rotate(0) translate(4 219.25)">
<polygon fill="white" stroke="none" points="-4,4 -4,-219.25 342,-219.25 342,4 -4,4"/>
<!-- 0 -->
<g id="node1" class="node">
<title>0</title>
<text xml:space="preserve" text-anchor="middle" x="194" y="-201.95" font-family="Times,serif" font-size="14.00">&lt;start&gt;</text>
</g>
<!-- 1 -->
<g id="node2" class="node">
<title>1</title>
<text xml:space="preserve" text-anchor="middle" x="194" y="-151.7" font-family="Times,serif" font-size="14.00">&lt;expr&gt;</text>
</g>
<!-- 0&#45;&gt;1 -->
<g id="edge1" class="edge">
<title>0&#45;&gt;1</title>
<path fill="none" stroke="black" d="M194,-201.21C194,-194.99 194,-184.9 194,-176.14"/>
<polygon fill="black" stroke="black" points="197.5,-176.35 194,-166.35 190.5,-176.35 197.5,-176.35"/>
</g>
<!-- 2 -->
<g id="node3" class="node">
<title>2</title>
<text xml:space="preserve" text-anchor="middle" x="142" y="-101.45" font-family="Times,serif" font-size="14.00">&lt;expr&gt;</text>
</g>
<!-- 1&#45;&gt;2 -->
<g id="edge2" class="edge">
<title>1&#45;&gt;2</title>
<path fill="none" stroke="black" d="M187.62,-150.96C179.98,-143.87 166.94,-131.76 156.75,-122.31"/>
<polygon fill="black" stroke="black" points="159.25,-119.86 149.54,-115.62 154.49,-124.99 159.25,-119.86"/>
</g>
<!-- 9 -->
<g id="node10" class="node">
<title>9</title>
<text xml:space="preserve" text-anchor="middle" x="194" y="-101.45" font-family="Times,serif" font-size="14.00"> + </text>
</g>
<!-- 1&#45;&gt;9 -->
<g id="edge9" class="edge">
<title>1&#45;&gt;9</title>
<path fill="none" stroke="black" d="M194,-150.96C194,-144.74 194,-134.65 194,-125.89"/>
<polygon fill="black" stroke="black" points="197.5,-126.1 194,-116.1 190.5,-126.1 197.5,-126.1"/>
</g>
<!-- 10 -->
<g id="node11" class="node">
<title>10</title>
<text xml:space="preserve" text-anchor="middle" x="244" y="-101.45" font-family="Times,serif" font-size="14.00">&lt;term&gt;</text>
</g>
<!-- 1&#45;&gt;10 -->
<g id="edge10" class="edge">
<title>1&#45;&gt;10</title>
<path fill="none" stroke="black" d="M200.13,-150.96C207.48,-143.87 220.02,-131.76 229.82,-122.31"/>
<polygon fill="black" stroke="black" points="231.96,-125.1 236.73,-115.64 227.1,-120.07 231.96,-125.1"/>
</g>
<!-- 3 -->
<g id="node4" class="node">
<title>3</title>
<text xml:space="preserve" text-anchor="middle" x="73" y="-51.2" font-family="Times,serif" font-size="14.00">&lt;term&gt;</text>
</g>
<!-- 2&#45;&gt;3 -->
<g id="edge3" class="edge">
<title>2&#45;&gt;3</title>
<path fill="none" stroke="black" d="M133.26,-100.51C122.63,-93.08 104.41,-80.34 90.78,-70.81"/>
<polygon fill="black" stroke="black" points="92.89,-68.02 82.69,-65.15 88.88,-73.75 92.89,-68.02"/>
</g>
<!-- 7 -->
<g id="node8" class="node">
<title>7</title>
<text xml:space="preserve" text-anchor="middle" x="118" y="-51.2" font-family="Times,serif" font-size="14.00"> &#45; </text>
</g>
<!-- 2&#45;&gt;7 -->
<g id="edge7" class="edge">
<title>2&#45;&gt;7</title>
<path fill="none" stroke="black" d="M139.06,-100.71C135.82,-94.2 130.48,-83.46 125.98,-74.42"/>
<polygon fill="black" stroke="black" points="129.23,-73.09 121.64,-65.69 122.96,-76.21 129.23,-73.09"/>
</g>
<!-- 8 -->
<g id="node9" class="node">
<title>8</title>
<text xml:space="preserve" text-anchor="middle" x="162" y="-51.2" font-family="Times,serif" font-size="14.00">&lt;expr&gt;</text>
</g>
<!-- 2&#45;&gt;8 -->
<g id="edge8" class="edge">
<title>2&#45;&gt;8</title>
<path fill="none" stroke="black" d="M144.45,-100.71C147.12,-94.27 151.51,-83.69 155.22,-74.72"/>
<polygon fill="black" stroke="black" points="158.35,-76.32 158.95,-65.74 151.89,-73.64 158.35,-76.32"/>
</g>
<!-- 4 -->
<g id="node5" class="node">
<title>4</title>
<text xml:space="preserve" text-anchor="middle" x="24" y="-0.95" font-family="Times,serif" font-size="14.00">&lt;factor&gt;</text>
</g>
<!-- 3&#45;&gt;4 -->
<g id="edge4" class="edge">
<title>3&#45;&gt;4</title>
<path fill="none" stroke="black" d="M66.99,-50.46C59.86,-43.44 47.75,-31.51 38.19,-22.1"/>
<polygon fill="black" stroke="black" points="40.72,-19.67 31.14,-15.15 35.81,-24.66 40.72,-19.67"/>
</g>
<!-- 5 -->
<g id="node6" class="node">
<title>5</title>
<text xml:space="preserve" text-anchor="middle" x="73" y="-0.95" font-family="Times,serif" font-size="14.00"> * </text>
</g>
<!-- 3&#45;&gt;5 -->
<g id="edge5" class="edge">
<title>3&#45;&gt;5</title>
<path fill="none" stroke="black" d="M73,-50.46C73,-44.24 73,-34.15 73,-25.39"/>
<polygon fill="black" stroke="black" points="76.5,-25.6 73,-15.6 69.5,-25.6 76.5,-25.6"/>
</g>
<!-- 6 -->
<g id="node7" class="node">
<title>6</title>
<text xml:space="preserve" text-anchor="middle" x="119" y="-0.95" font-family="Times,serif" font-size="14.00">&lt;term&gt;</text>
</g>
<!-- 3&#45;&gt;6 -->
<g id="edge6" class="edge">
<title>3&#45;&gt;6</title>
<path fill="none" stroke="black" d="M78.64,-50.46C85.26,-43.51 96.47,-31.75 105.4,-22.39"/>
<polygon fill="black" stroke="black" points="107.9,-24.84 112.27,-15.19 102.84,-20.01 107.9,-24.84"/>
</g>
<!-- 11 -->
<g id="node12" class="node">
<title>11</title>
<text xml:space="preserve" text-anchor="middle" x="224" y="-51.2" font-family="Times,serif" font-size="14.00">&lt;factor&gt;</text>
</g>
<!-- 10&#45;&gt;11 -->
<g id="edge11" class="edge">
<title>10&#45;&gt;11</title>
<path fill="none" stroke="black" d="M241.55,-100.71C238.88,-94.27 234.49,-83.69 230.78,-74.72"/>
<polygon fill="black" stroke="black" points="234.11,-73.64 227.05,-65.74 227.65,-76.32 234.11,-73.64"/>
</g>
<!-- 12 -->
<g id="node13" class="node">
<title>12</title>
<text xml:space="preserve" text-anchor="middle" x="272" y="-51.2" font-family="Times,serif" font-size="14.00"> / </text>
</g>
<!-- 10&#45;&gt;12 -->
<g id="edge12" class="edge">
<title>10&#45;&gt;12</title>
<path fill="none" stroke="black" d="M247.43,-100.71C251.25,-94.12 257.58,-83.22 262.86,-74.12"/>
<polygon fill="black" stroke="black" points="265.79,-76.05 267.78,-65.65 259.73,-72.54 265.79,-76.05"/>
</g>
<!-- 13 -->
<g id="node14" class="node">
<title>13</title>
<text xml:space="preserve" text-anchor="middle" x="317" y="-51.2" font-family="Times,serif" font-size="14.00">&lt;term&gt;</text>
</g>
<!-- 10&#45;&gt;13 -->
<g id="edge13" class="edge">
<title>10&#45;&gt;13</title>
<path fill="none" stroke="black" d="M253.25,-100.51C264.61,-93 284.15,-80.09 298.62,-70.53"/>
<polygon fill="black" stroke="black" points="300.38,-73.55 306.8,-65.12 296.52,-67.71 300.38,-73.55"/>
</g>
</g>
</svg>