<?xml version="1.0" encoding="UTF-8" standalone="no"?>
<!DOCTYPE svg PUBLIC "-//W3C//DTD SVG 1.1//EN"
 "http://www.w3.org/Graphics/SVG/1.1/DTD/svg11.dtd">
<!-- Generated by graphviz version 13.1.2 (20250808.2320)
 -->
<!-- Pages: 1 -->
<svg width="392pt" height="374pt"
 viewBox="0.00 0.00 392.00 374.00" xmlns="http://www.w3.org/2000/svg" xmlns:xlink="http://www.w3.org/1999/xlink">
<g id="graph0" class="graph" transform="scale(1 1) rotate(0) translate(4 370)">
<polygon fill="white" stroke="none" points="-4,4 -4,-370 387.75,-370 387.75,4 -4,4"/>
<!-- 0 -->
<g id="node1" class="node">
<title>0</title>
<text xml:space="preserve" text-anchor="middle" x="199.12" y="-352.7" font-family="Times,serif" font-size="14.00">&lt;start&gt;</text>
</g>
<!-- 1 -->
<g id="node2" class="node">
<title>1</title>
<text xml:space="preserve" text-anchor="middle" x="199.12" y="-302.45" font-family="Times,serif" font-size="14.00">&lt;string&gt;</text>
</g>
<!-- 0&#45;&gt;1 -->
<g id="edge1" class="edge">
<title>0&#45;&gt;1</title>
<path fill="none" stroke="black" d="M199.12,-351.96C199.12,-345.74 199.12,-335.65 199.12,-326.89"/>
<polygon fill="black" stroke="black" points="202.63,-327.1 199.13,-317.1 195.63,-327.1 202.63,-327.1"/>
</g>
<!-- 2 -->
<g id="node3" class="node">
<title>2</title>
<text xml:space="preserve" text-anchor="middle" x="167.12" y="-252.2" font-family="Times,serif" font-size="14.00">&lt;letter&gt;</text>
</g>
<!-- 1&#45;&gt;2 -->
<g id="edge2" class="edge">
<title>1&#45;&gt;2</title>
<path fill="none" stroke="black" d="M195.2,-301.71C190.79,-295.05 183.44,-283.98 177.37,-274.82"/>
<polygon fill="black" stroke="black" points="180.36,-273 171.92,-266.6 174.53,-276.87 180.36,-273"/>
</g>
<!-- 9 -->
<g id="node10" class="node">
<title>9</title>
<text xml:space="preserve" text-anchor="middle" x="233.12" y="-252.2" font-family="Times,serif" font-size="14.00">&lt;string&gt;</text>
</g>
<!-- 1&#45;&gt;9 -->
<g id="edge9" class="edge">
<title>1&#45;&gt;9</title>
<path fill="none" stroke="black" d="M203.29,-301.71C208.04,-294.98 215.96,-283.73 222.45,-274.52"/>
<polygon fill="black" stroke="black" points="225.15,-276.77 228.05,-266.58 219.43,-272.74 225.15,-276.77"/>
</g>
<!-- 3 -->
<g id="node4" class="node">
<title>3</title>
<text xml:space="preserve" text-anchor="middle" x="127.12" y="-201.95" font-family="Times,serif" font-size="14.00">&lt;percent&gt;</text>
</g>
<!-- 2&#45;&gt;3 -->
<g id="edge3" class="edge">
<title>2&#45;&gt;3</title>
<path fill="none" stroke="black" d="M162.22,-251.46C156.52,-244.59 146.92,-233 139.19,-223.68"/>
<polygon fill="black" stroke="black" points="142.11,-221.72 133.04,-216.25 136.72,-226.19 142.11,-221.72"/>
</g>
<!-- 4 -->
<g id="node5" class="node">
<title>4</title>
<text xml:space="preserve" text-anchor="middle" x="19.12" y="-151.7" font-family="Times,serif" font-size="14.00">% (37)</text>
</g>
<!-- 3&#45;&gt;4 -->
<g id="edge4" class="edge">
<title>3&#45;&gt;4</title>
<path fill="none" stroke="black" d="M113.45,-201.01C95.76,-193.11 64.65,-179.21 43.02,-169.55"/>
<polygon fill="black" stroke="black" points="44.63,-166.44 34.07,-165.55 41.78,-172.83 44.63,-166.44"/>
</g>
<!-- 5 -->
<g id="node6" class="node">
<title>5</title>
<text xml:space="preserve" text-anchor="middle" x="87.12" y="-151.7" font-family="Times,serif" font-size="14.00">&lt;hexdigit&gt;</text>
</g>
<!-- 3&#45;&gt;5 -->
<g id="edge5" class="edge">
<title>3&#45;&gt;5</title>
<path fill="none" stroke="black" d="M122.22,-201.21C116.52,-194.34 106.92,-182.75 99.19,-173.43"/>
<polygon fill="black" stroke="black" points="102.11,-171.47 93.04,-166 96.72,-175.94 102.11,-171.47"/>
</g>
<!-- 7 -->
<g id="node8" class="node">
<title>7</title>
<text xml:space="preserve" text-anchor="middle" x="166.12" y="-151.7" font-family="Times,serif" font-size="14.00">&lt;hexdigit&gt;</text>
</g>
<!-- 3&#45;&gt;7 -->
<g id="edge7" class="edge">
<title>3&#45;&gt;7</title>
<path fill="none" stroke="black" d="M131.91,-201.21C137.4,-194.41 146.63,-182.99 154.12,-173.73"/>
<polygon fill="black" stroke="black" points="156.79,-175.99 160.35,-166.02 151.34,-171.59 156.79,-175.99"/>
</g>
<!-- 6 -->
<g id="node7" class="node">
<title>6</title>
<text xml:space="preserve" text-anchor="middle" x="87.12" y="-101.45" font-family="Times,serif" font-size="14.00">b (98)</text>
</g>
<!-- 5&#45;&gt;6 -->
<g id="edge6" class="edge">
<title>5&#45;&gt;6</title>
<path fill="none" stroke="black" d="M87.12,-150.96C87.12,-144.74 87.12,-134.65 87.12,-125.89"/>
<polygon fill="black" stroke="black" points="90.63,-126.1 87.13,-116.1 83.63,-126.1 90.63,-126.1"/>
</g>
<!-- 8 -->
<g id="node9" class="node">
<title>8</title>
<text xml:space="preserve" text-anchor="middle" x="166.12" y="-101.45" font-family="Times,serif" font-size="14.00">5 (53)</text>
</g>
<!-- 7&#45;&gt;8 -->
<g id="edge8" class="edge">
<title>7&#45;&gt;8</title>
<path fill="none" stroke="black" d="M166.12,-150.96C166.12,-144.74 166.12,-134.65 166.12,-125.89"/>
<polygon fill="black" stroke="black" points="169.63,-126.1 166.13,-116.1 162.63,-126.1 169.63,-126.1"/>
</g>
<!-- 10 -->
<g id="node11" class="node">
<title>10</title>
<text xml:space="preserve" text-anchor="middle" x="233.12" y="-201.95" font-family="Times,serif" font-size="14.00">&lt;letter&gt;</text>
</g>
<!-- 9&#45;&gt;10 -->
<g id="edge10" class="edge">
<title>9&#45;&gt;10</title>
<path fill="none" stroke="black" d="M233.12,-251.46C233.12,-245.24 233.12,-235.15 233.12,-226.39"/>
<polygon fill="black" stroke="black" points="236.63,-226.6 233.13,-216.6 229.63,-226.6 236.63,-226.6"/>
</g>
<!-- 13 -->
<g id="node14" class="node">
<title>13</title>
<text xml:space="preserve" text-anchor="middle" x="297.12" y="-201.95" font-family="Times,serif" font-size="14.00">&lt;string&gt;</text>
</g>
<!-- 9&#45;&gt;13 -->
<g id="edge13" class="edge">
<title>9&#45;&gt;13</title>
<path fill="none" stroke="black" d="M241.23,-251.26C251,-243.9 267.66,-231.34 280.26,-221.84"/>
<polygon fill="black" stroke="black" points="282.2,-224.76 288.08,-215.95 277.98,-219.17 282.2,-224.76"/>
</g>
<!-- 11 -->
<g id="node12" class="node">
<title>11</title>
<text xml:space="preserve" text-anchor="middle" x="234.12" y="-151.7" font-family="Times,serif" font-size="14.00">&lt;plus&gt;</text>
</g>
<!-- 10&#45;&gt;11 -->
<g id="edge11" class="edge">
<title>10&#45;&gt;11</title>
<path fill="none" stroke="black" d="M233.25,-201.21C233.38,-194.99 233.59,-184.9 233.77,-176.14"/>
<polygon fill="black" stroke="black" points="237.26,-176.42 233.97,-166.35 230.26,-176.28 237.26,-176.42"/>
</g>
<!-- 12 -->
<g id="node13" class="node">
<title>12</title>
<text xml:space="preserve" text-anchor="middle" x="234.12" y="-101.45" font-family="Times,serif" font-size="14.00">+ (43)</text>
</g>
<!-- 11&#45;&gt;12 -->
<g id="edge12" class="edge">
<title>11&#45;&gt;12</title>
<path fill="none" stroke="black" d="M234.12,-150.96C234.12,-144.74 234.12,-134.65 234.12,-125.89"/>
<polygon fill="black" stroke="black" points="237.63,-126.1 234.13,-116.1 230.63,-126.1 237.63,-126.1"/>
</g>
<!-- 14 -->
<g id="node15" class="node">
<title>14</title>
<text xml:space="preserve" text-anchor="middle" x="296.12" y="-151.7" font-family="Times,serif" font-size="14.00">&lt;letter&gt;</text>
</g>
<!-- 13&#45;&gt;14 -->
<g id="edge14" class="edge">
<title>13&#45;&gt;14</title>
<path fill="none" stroke="black" d="M297,-201.21C296.87,-194.99 296.66,-184.9 296.48,-176.14"/>
<polygon fill="black" stroke="black" points="299.99,-176.28 296.28,-166.35 292.99,-176.42 299.99,-176.28"/>
</g>
<!-- 17 -->
<g id="node18" class="node">
<title>17</title>
<text xml:space="preserve" text-anchor="middle" x="360.12" y="-151.7" font-family="Times,serif" font-size="14.00">&lt;string&gt;</text>
</g>
<!-- 13&#45;&gt;17 -->
<g id="edge17" class="edge">
<title>13&#45;&gt;17</title>
<path fill="none" stroke="black" d="M305.1,-201.01C314.72,-193.65 331.12,-181.09 343.53,-171.59"/>
<polygon fill="black" stroke="black" points="345.4,-174.56 351.21,-165.71 341.14,-169.01 345.4,-174.56"/>
</g>
<!-- 15 -->
<g id="node16" class="node">
<title>15</title>
<text xml:space="preserve" text-anchor="middle" x="296.12" y="-101.45" font-family="Times,serif" font-size="14.00">&lt;plus&gt;</text>
</g>
<!-- 14&#45;&gt;15 -->
<g id="edge15" class="edge">
<title>14&#45;&gt;15</title>
<path fill="none" stroke="black" d="M296.12,-150.96C296.12,-144.74 296.12,-134.65 296.12,-125.89"/>
<polygon fill="black" stroke="black" points="299.63,-126.1 296.13,-116.1 292.63,-126.1 299.63,-126.1"/>
</g>
<!-- 16 -->
<g id="node17" class="node">
<title>16</title>
<text xml:space="preserve" text-anchor="middle" x="296.12" y="-51.2" font-family="Times,serif" font-size="14.00">+ (43)</text>
</g>
<!-- 15&#45;&gt;16 -->
<g id="edge16" class="edge">
<title>15&#45;&gt;16</title>
<path fill="none" stroke="black" d="M296.12,-100.71C296.12,-94.49 296.12,-84.4 296.12,-75.64"/>
<polygon fill="black" stroke="black" points="299.63,-75.85 296.13,-65.85 292.63,-75.85 299.63,-75.85"/>
</g>
<!-- 18 -->
<g id="node19" class="node">
<title>18</title>
<text xml:space="preserve" text-anchor="middle" x="360.12" y="-101.45" font-family="Times,serif" font-size="14.00">&lt;letter&gt;</text>
</g>
<!-- 17&#45;&gt;18 -->
<g id="edge18" class="edge">
<title>17&#45;&gt;18</title>
<path fill="none" stroke="black" d="M360.12,-150.96C360.12,-144.74 360.12,-134.65 360.12,-125.89"/>
<polygon fill="black" stroke="black" points="363.63,-126.1 360.13,-116.1 356.63,-126.1 363.63,-126.1"/>
</g>
<!-- 19 -->
<g id="node20" class="node">
<title>19</title>
<text xml:space="preserve" text-anchor="middle" x="360.12" y="-51.2" font-family="Times,serif" font-size="14.00">&lt;other&gt;</text>
</g>
<!-- 18&#45;&gt;19 -->
<g id="edge19" class="edge">
<title>18&#45;&gt;19</title>
<path fill="none" stroke="black" d="M360.12,-100.71C360.12,-94.49 360.12,-84.4 360.12,-75.64"/>
<polygon fill="black" stroke="black" points="363.63,-75.85 360.13,-65.85 356.63,-75.85 363.63,-75.85"/>
</g>
<!-- 20 -->
<g id="node21" class="node">
<title>20</title>
<text xml:space="preserve" text-anchor="middle" x="360.12" y="-0.95" font-family="Times,serif" font-size="14.00">3 (51)</text>
</g>
<!-- 19&#45;&gt;20 -->
<g id="edge20" class="edge">
<title>19&#45;&gt;20</title>
<path fill="none" stroke="black" d="M360.12,-50.46C360.12,-44.24 360.12,-34.15 360.12,-25.39"/>
<polygon fill="black" stroke="black" points="363.63,-25.6 360.13,-15.6 356.63,-25.6 363.63,-25.6"/>
</g>
</g>
</svg>