<?xml version="1.0" encoding="UTF-8" standalone="no"?>
<!DOCTYPE svg PUBLIC "-//W3C//DTD SVG 1.1//EN"
 "http://www.w3.org/Graphics/SVG/1.1/DTD/svg11.dtd">
<!-- Generated by graphviz version 13.1.2 (20250808.2320)
 -->
<!-- Pages: 1 -->
<svg width="781pt" height="826pt"
 viewBox="0.00 0.00 781.00 826.00" xmlns="http://www.w3.org/2000/svg" xmlns:xlink="http://www.w3.org/1999/xlink">
<g id="graph0" class="graph" transform="scale(1 1) rotate(0) translate(4 822.25)">
<polygon fill="white" stroke="none" points="-4,4 -4,-822.25 776.62,-822.25 776.62,4 -4,4"/>
<!-- 0 -->
<g id="node1" class="node">
<title>0</title>
<text xml:space="preserve" text-anchor="middle" x="143.38" y="-804.95" font-family="Times,serif" font-size="14.00">&lt;start&gt;</text>
</g>
<!-- 1 -->
<g id="node2" class="node">
<title>1</title>
<text xml:space="preserve" text-anchor="middle" x="143.38" y="-754.7" font-family="Times,serif" font-size="14.00">&lt;config&gt;</text>
</g>
<!-- 0&#45;&gt;1 -->
<g id="edge1" class="edge">
<title>0&#45;&gt;1</title>
<path fill="none" stroke="black" d="M143.38,-804.21C143.38,-797.99 143.38,-787.9 143.38,-779.14"/>
<polygon fill="black" stroke="black" points="146.88,-779.35 143.38,-769.35 139.88,-779.35 146.88,-779.35"/>
</g>
<!-- 2 -->
<g id="node3" class="node">
<title>2</title>
<text xml:space="preserve" text-anchor="middle" x="27.38" y="-704.45" font-family="Times,serif" font-size="14.00">pagesize=</text>
</g>
<!-- 1&#45;&gt;2 -->
<g id="edge2" class="edge">
<title>1&#45;&gt;2</title>
<path fill="none" stroke="black" d="M128.68,-753.76C109.51,-745.79 75.66,-731.71 52.4,-722.04"/>
<polygon fill="black" stroke="black" points="53.92,-718.88 43.34,-718.27 51.23,-725.34 53.92,-718.88"/>
</g>
<!-- 3 -->
<g id="node4" class="node">
<title>3</title>
<text xml:space="preserve" text-anchor="middle" x="104.38" y="-704.45" font-family="Times,serif" font-size="14.00">&lt;pagesize&gt;</text>
</g>
<!-- 1&#45;&gt;3 -->
<g id="edge3" class="edge">
<title>1&#45;&gt;3</title>
<path fill="none" stroke="black" d="M138.59,-753.96C133.1,-747.16 123.87,-735.74 116.38,-726.48"/>
<polygon fill="black" stroke="black" points="119.16,-724.34 110.15,-718.77 113.71,-728.74 119.16,-724.34"/>
</g>
<!-- 41 -->
<g id="node42" class="node">
<title>41</title>
<text xml:space="preserve" text-anchor="middle" x="182.38" y="-704.45" font-family="Times,serif" font-size="14.00">\nbufsize=</text>
</g>
<!-- 1&#45;&gt;41 -->
<g id="edge41" class="edge">
<title>1&#45;&gt;41</title>
<path fill="none" stroke="black" d="M148.16,-753.96C153.65,-747.16 162.88,-735.74 170.37,-726.48"/>
<polygon fill="black" stroke="black" points="173.04,-728.74 176.6,-718.77 167.59,-724.34 173.04,-728.74"/>
</g>
<!-- 42 -->
<g id="node43" class="node">
<title>42</title>
<text xml:space="preserve" text-anchor="middle" x="257.38" y="-704.45" font-family="Times,serif" font-size="14.00">&lt;bufsize&gt;</text>
</g>
<!-- 1&#45;&gt;42 -->
<g id="edge42" class="edge">
<title>1&#45;&gt;42</title>
<path fill="none" stroke="black" d="M157.81,-753.76C176.57,-745.82 209.62,-731.84 232.47,-722.17"/>
<polygon fill="black" stroke="black" points="233.82,-725.4 241.66,-718.28 231.09,-718.95 233.82,-725.4"/>
</g>
<!-- 4 -->
<g id="node5" class="node">
<title>4</title>
<text xml:space="preserve" text-anchor="middle" x="104.38" y="-654.2" font-family="Times,serif" font-size="14.00">&lt;int&gt;</text>
</g>
<!-- 3&#45;&gt;4 -->
<g id="edge4" class="edge">
<title>3&#45;&gt;4</title>
<path fill="none" stroke="black" d="M104.38,-703.71C104.38,-697.49 104.38,-687.4 104.38,-678.64"/>
<polygon fill="black" stroke="black" points="107.88,-678.85 104.38,-668.85 100.88,-678.85 107.88,-678.85"/>
</g>
<!-- 5 -->
<g id="node6" class="node">
<title>5</title>
<text xml:space="preserve" text-anchor="middle" x="42.38" y="-603.95" font-family="Times,serif" font-size="14.00">&lt;leaddigit&gt;</text>
</g>
<!-- 4&#45;&gt;5 -->
<g id="edge5" class="edge">
<title>4&#45;&gt;5</title>
<path fill="none" stroke="black" d="M96.52,-653.26C87.06,-645.9 70.92,-633.34 58.71,-623.84"/>
<polygon fill="black" stroke="black" points="61.21,-621.34 51.16,-617.96 56.91,-626.87 61.21,-621.34"/>
</g>
<!-- 7 -->
<g id="node8" class="node">
<title>7</title>
<text xml:space="preserve" text-anchor="middle" x="115.38" y="-603.95" font-family="Times,serif" font-size="14.00">&lt;digits&gt;</text>
</g>
<!-- 4&#45;&gt;7 -->
<g id="edge7" class="edge">
<title>4&#45;&gt;7</title>
<path fill="none" stroke="black" d="M105.72,-653.46C107.16,-647.16 109.5,-636.92 111.51,-628.08"/>
<polygon fill="black" stroke="black" points="114.87,-629.09 113.68,-618.57 108.04,-627.54 114.87,-629.09"/>
</g>
<!-- 6 -->
<g id="node7" class="node">
<title>6</title>
<text xml:space="preserve" text-anchor="middle" x="42.38" y="-553.7" font-family="Times,serif" font-size="14.00">6 (54)</text>
</g>
<!-- 5&#45;&gt;6 -->
<g id="edge6" class="edge">
<title>5&#45;&gt;6</title>
<path fill="none" stroke="black" d="M42.38,-603.21C42.38,-596.99 42.38,-586.9 42.38,-578.14"/>
<polygon fill="black" stroke="black" points="45.88,-578.35 42.38,-568.35 38.88,-578.35 45.88,-578.35"/>
</g>
<!-- 8 -->
<g id="node9" class="node">
<title>8</title>
<text xml:space="preserve" text-anchor="middle" x="106.38" y="-553.7" font-family="Times,serif" font-size="14.00">&lt;digit&gt;</text>
</g>
<!-- 7&#45;&gt;8 -->
<g id="edge8" class="edge">
<title>7&#45;&gt;8</title>
<path fill="none" stroke="black" d="M114.27,-603.21C113.11,-596.99 111.23,-586.9 109.59,-578.14"/>
<polygon fill="black" stroke="black" points="113.04,-577.52 107.77,-568.33 106.16,-578.8 113.04,-577.52"/>
</g>
<!-- 10 -->
<g id="node11" class="node">
<title>10</title>
<text xml:space="preserve" text-anchor="middle" x="168.38" y="-553.7" font-family="Times,serif" font-size="14.00">&lt;digits&gt;</text>
</g>
<!-- 7&#45;&gt;10 -->
<g id="edge10" class="edge">
<title>7&#45;&gt;10</title>
<path fill="none" stroke="black" d="M121.87,-603.21C129.66,-596.12 142.96,-584.01 153.35,-574.56"/>
<polygon fill="black" stroke="black" points="155.67,-577.18 160.7,-567.86 150.95,-572 155.67,-577.18"/>
</g>
<!-- 9 -->
<g id="node10" class="node">
<title>9</title>
<text xml:space="preserve" text-anchor="middle" x="106.38" y="-503.45" font-family="Times,serif" font-size="14.00">1 (49)</text>
</g>
<!-- 8&#45;&gt;9 -->
<g id="edge9" class="edge">
<title>8&#45;&gt;9</title>
<path fill="none" stroke="black" d="M106.38,-552.96C106.38,-546.74 106.38,-536.65 106.38,-527.89"/>
<polygon fill="black" stroke="black" points="109.88,-528.1 106.38,-518.1 102.88,-528.1 109.88,-528.1"/>
</g>
<!-- 11 -->
<g id="node12" class="node">
<title>11</title>
<text xml:space="preserve" text-anchor="middle" x="164.38" y="-503.45" font-family="Times,serif" font-size="14.00">&lt;digit&gt;</text>
</g>
<!-- 10&#45;&gt;11 -->
<g id="edge11" class="edge">
<title>10&#45;&gt;11</title>
<path fill="none" stroke="black" d="M167.88,-552.96C167.37,-546.74 166.53,-536.65 165.81,-527.89"/>
<polygon fill="black" stroke="black" points="169.31,-527.77 164.99,-518.1 162.33,-528.35 169.31,-527.77"/>
</g>
<!-- 13 -->
<g id="node14" class="node">
<title>13</title>
<text xml:space="preserve" text-anchor="middle" x="226.38" y="-503.45" font-family="Times,serif" font-size="14.00">&lt;digits&gt;</text>
</g>
<!-- 10&#45;&gt;13 -->
<g id="edge13" class="edge">
<title>10&#45;&gt;13</title>
<path fill="none" stroke="black" d="M175.49,-552.96C184.18,-545.72 199.16,-533.27 210.62,-523.73"/>
<polygon fill="black" stroke="black" points="212.59,-526.64 218.04,-517.56 208.12,-521.26 212.59,-526.64"/>
</g>
<!-- 12 -->
<g id="node13" class="node">
<title>12</title>
<text xml:space="preserve" text-anchor="middle" x="164.38" y="-453.2" font-family="Times,serif" font-size="14.00">4 (52)</text>
</g>
<!-- 11&#45;&gt;12 -->
<g id="edge12" class="edge">
<title>11&#45;&gt;12</title>
<path fill="none" stroke="black" d="M164.38,-502.71C164.38,-496.49 164.38,-486.4 164.38,-477.64"/>
<polygon fill="black" stroke="black" points="167.88,-477.85 164.38,-467.85 160.88,-477.85 167.88,-477.85"/>
</g>
<!-- 14 -->
<g id="node15" class="node">
<title>14</title>
<text xml:space="preserve" text-anchor="middle" x="223.38" y="-453.2" font-family="Times,serif" font-size="14.00">&lt;digit&gt;</text>
</g>
<!-- 13&#45;&gt;14 -->
<g id="edge14" class="edge">
<title>13&#45;&gt;14</title>
<path fill="none" stroke="black" d="M226.01,-502.71C225.62,-496.49 224.99,-486.4 224.45,-477.64"/>
<polygon fill="black" stroke="black" points="227.95,-477.61 223.84,-467.85 220.97,-478.05 227.95,-477.61"/>
</g>
<!-- 16 -->
<g id="node17" class="node">
<title>16</title>
<text xml:space="preserve" text-anchor="middle" x="285.38" y="-453.2" font-family="Times,serif" font-size="14.00">&lt;digits&gt;</text>
</g>
<!-- 13&#45;&gt;16 -->
<g id="edge16" class="edge">
<title>13&#45;&gt;16</title>
<path fill="none" stroke="black" d="M233.61,-502.71C242.46,-495.47 257.69,-483.02 269.35,-473.48"/>
<polygon fill="black" stroke="black" points="271.38,-476.34 276.91,-467.3 266.95,-470.92 271.38,-476.34"/>
</g>
<!-- 15 -->
<g id="node16" class="node">
<title>15</title>
<text xml:space="preserve" text-anchor="middle" x="223.38" y="-402.95" font-family="Times,serif" font-size="14.00">5 (53)</text>
</g>
<!-- 14&#45;&gt;15 -->
<g id="edge15" class="edge">
<title>14&#45;&gt;15</title>
<path fill="none" stroke="black" d="M223.38,-452.46C223.38,-446.24 223.38,-436.15 223.38,-427.39"/>
<polygon fill="black" stroke="black" points="226.88,-427.6 223.38,-417.6 219.88,-427.6 226.88,-427.6"/>
</g>
<!-- 17 -->
<g id="node18" class="node">
<title>17</title>
<text xml:space="preserve" text-anchor="middle" x="281.38" y="-402.95" font-family="Times,serif" font-size="14.00">&lt;digit&gt;</text>
</g>
<!-- 16&#45;&gt;17 -->
<g id="edge17" class="edge">
<title>16&#45;&gt;17</title>
<path fill="none" stroke="black" d="M284.88,-452.46C284.37,-446.24 283.53,-436.15 282.81,-427.39"/>
<polygon fill="black" stroke="black" points="286.31,-427.27 281.99,-417.6 279.33,-427.85 286.31,-427.27"/>
</g>
<!-- 19 -->
<g id="node20" class="node">
<title>19</title>
<text xml:space="preserve" text-anchor="middle" x="343.38" y="-402.95" font-family="Times,serif" font-size="14.00">&lt;digits&gt;</text>
</g>
<!-- 16&#45;&gt;19 -->
<g id="edge19" class="edge">
<title>16&#45;&gt;19</title>
<path fill="none" stroke="black" d="M292.49,-452.46C301.18,-445.22 316.16,-432.77 327.62,-423.23"/>
<polygon fill="black" stroke="black" points="329.59,-426.14 335.04,-417.06 325.12,-420.76 329.59,-426.14"/>
</g>
<!-- 18 -->
<g id="node19" class="node">
<title>18</title>
<text xml:space="preserve" text-anchor="middle" x="281.38" y="-352.7" font-family="Times,serif" font-size="14.00">9 (57)</text>
</g>
<!-- 17&#45;&gt;18 -->
<g id="edge18" class="edge">
<title>17&#45;&gt;18</title>
<path fill="none" stroke="black" d="M281.38,-402.21C281.38,-395.99 281.38,-385.9 281.38,-377.14"/>
<polygon fill="black" stroke="black" points="284.88,-377.35 281.38,-367.35 277.88,-377.35 284.88,-377.35"/>
</g>
<!-- 20 -->
<g id="node21" class="node">
<title>20</title>
<text xml:space="preserve" text-anchor="middle" x="339.38" y="-352.7" font-family="Times,serif" font-size="14.00">&lt;digit&gt;</text>
</g>
<!-- 19&#45;&gt;20 -->
<g id="edge20" class="edge">
<title>19&#45;&gt;20</title>
<path fill="none" stroke="black" d="M342.88,-402.21C342.37,-395.99 341.53,-385.9 340.81,-377.14"/>
<polygon fill="black" stroke="black" points="344.31,-377.02 339.99,-367.35 337.33,-377.6 344.31,-377.02"/>
</g>
<!-- 22 -->
<g id="node23" class="node">
<title>22</title>
<text xml:space="preserve" text-anchor="middle" x="401.38" y="-352.7" font-family="Times,serif" font-size="14.00">&lt;digits&gt;</text>
</g>
<!-- 19&#45;&gt;22 -->
<g id="edge22" class="edge">
<title>19&#45;&gt;22</title>
<path fill="none" stroke="black" d="M350.49,-402.21C359.18,-394.97 374.16,-382.52 385.62,-372.98"/>
<polygon fill="black" stroke="black" points="387.59,-375.89 393.04,-366.81 383.12,-370.51 387.59,-375.89"/>
</g>
<!-- 21 -->
<g id="node22" class="node">
<title>21</title>
<text xml:space="preserve" text-anchor="middle" x="339.38" y="-302.45" font-family="Times,serif" font-size="14.00">0 (48)</text>
</g>
<!-- 20&#45;&gt;21 -->
<g id="edge21" class="edge">
<title>20&#45;&gt;21</title>
<path fill="none" stroke="black" d="M339.38,-351.96C339.38,-345.74 339.38,-335.65 339.38,-326.89"/>
<polygon fill="black" stroke="black" points="342.88,-327.1 339.38,-317.1 335.88,-327.1 342.88,-327.1"/>
</g>
<!-- 23 -->
<g id="node24" class="node">
<title>23</title>
<text xml:space="preserve" text-anchor="middle" x="397.38" y="-302.45" font-family="Times,serif" font-size="14.00">&lt;digit&gt;</text>
</g>
<!-- 22&#45;&gt;23 -->
<g id="edge23" class="edge">
<title>22&#45;&gt;23</title>
<path fill="none" stroke="black" d="M400.88,-351.96C400.37,-345.74 399.53,-335.65 398.81,-326.89"/>
<polygon fill="black" stroke="black" points="402.31,-326.77 397.99,-317.1 395.33,-327.35 402.31,-326.77"/>
</g>
<!-- 25 -->
<g id="node26" class="node">
<title>25</title>
<text xml:space="preserve" text-anchor="middle" x="459.38" y="-302.45" font-family="Times,serif" font-size="14.00">&lt;digits&gt;</text>
</g>
<!-- 22&#45;&gt;25 -->
<g id="edge25" class="edge">
<title>22&#45;&gt;25</title>
<path fill="none" stroke="black" d="M408.49,-351.96C417.18,-344.72 432.16,-332.27 443.62,-322.73"/>
<polygon fill="black" stroke="black" points="445.59,-325.64 451.04,-316.56 441.12,-320.26 445.59,-325.64"/>
</g>
<!-- 24 -->
<g id="node25" class="node">
<title>24</title>
<text xml:space="preserve" text-anchor="middle" x="397.38" y="-252.2" font-family="Times,serif" font-size="14.00">9 (57)</text>
</g>
<!-- 23&#45;&gt;24 -->
<g id="edge24" class="edge">
<title>23&#45;&gt;24</title>
<path fill="none" stroke="black" d="M397.38,-301.71C397.38,-295.49 397.38,-285.4 397.38,-276.64"/>
<polygon fill="black" stroke="black" points="400.88,-276.85 397.38,-266.85 393.88,-276.85 400.88,-276.85"/>
</g>
<!-- 26 -->
<g id="node27" class="node">
<title>26</title>
<text xml:space="preserve" text-anchor="middle" x="455.38" y="-252.2" font-family="Times,serif" font-size="14.00">&lt;digit&gt;</text>
</g>
<!-- 25&#45;&gt;26 -->
<g id="edge26" class="edge">
<title>25&#45;&gt;26</title>
<path fill="none" stroke="black" d="M458.88,-301.71C458.37,-295.49 457.53,-285.4 456.81,-276.64"/>
<polygon fill="black" stroke="black" points="460.31,-276.52 455.99,-266.85 453.33,-277.1 460.31,-276.52"/>
</g>
<!-- 28 -->
<g id="node29" class="node">
<title>28</title>
<text xml:space="preserve" text-anchor="middle" x="517.38" y="-252.2" font-family="Times,serif" font-size="14.00">&lt;digits&gt;</text>
</g>
<!-- 25&#45;&gt;28 -->
<g id="edge28" class="edge">
<title>25&#45;&gt;28</title>
<path fill="none" stroke="black" d="M466.49,-301.71C475.18,-294.47 490.16,-282.02 501.62,-272.48"/>
<polygon fill="black" stroke="black" points="503.59,-275.39 509.04,-266.31 499.12,-270.01 503.59,-275.39"/>
</g>
<!-- 27 -->
<g id="node28" class="node">
<title>27</title>
<text xml:space="preserve" text-anchor="middle" x="455.38" y="-201.95" font-family="Times,serif" font-size="14.00">8 (56)</text>
</g>
<!-- 26&#45;&gt;27 -->
<g id="edge27" class="edge">
<title>26&#45;&gt;27</title>
<path fill="none" stroke="black" d="M455.38,-251.46C455.38,-245.24 455.38,-235.15 455.38,-226.39"/>
<polygon fill="black" stroke="black" points="458.88,-226.6 455.38,-216.6 451.88,-226.6 458.88,-226.6"/>
</g>
<!-- 29 -->
<g id="node30" class="node">
<title>29</title>
<text xml:space="preserve" text-anchor="middle" x="513.38" y="-201.95" font-family="Times,serif" font-size="14.00">&lt;digit&gt;</text>
</g>
<!-- 28&#45;&gt;29 -->
<g id="edge29" class="edge">
<title>28&#45;&gt;29</title>
<path fill="none" stroke="black" d="M516.88,-251.46C516.37,-245.24 515.53,-235.15 514.81,-226.39"/>
<polygon fill="black" stroke="black" points="518.31,-226.27 513.99,-216.6 511.33,-226.85 518.31,-226.27"/>
</g>
<!-- 31 -->
<g id="node32" class="node">
<title>31</title>
<text xml:space="preserve" text-anchor="middle" x="575.38" y="-201.95" font-family="Times,serif" font-size="14.00">&lt;digits&gt;</text>
</g>
<!-- 28&#45;&gt;31 -->
<g id="edge31" class="edge">
<title>28&#45;&gt;31</title>
<path fill="none" stroke="black" d="M524.49,-251.46C533.18,-244.22 548.16,-231.77 559.62,-222.23"/>
<polygon fill="black" stroke="black" points="561.59,-225.14 567.04,-216.06 557.12,-219.76 561.59,-225.14"/>
</g>
<!-- 30 -->
<g id="node31" class="node">
<title>30</title>
<text xml:space="preserve" text-anchor="middle" x="513.38" y="-151.7" font-family="Times,serif" font-size="14.00">3 (51)</text>
</g>
<!-- 29&#45;&gt;30 -->
<g id="edge30" class="edge">
<title>29&#45;&gt;30</title>
<path fill="none" stroke="black" d="M513.38,-201.21C513.38,-194.99 513.38,-184.9 513.38,-176.14"/>
<polygon fill="black" stroke="black" points="516.88,-176.35 513.38,-166.35 509.88,-176.35 516.88,-176.35"/>
</g>
<!-- 32 -->
<g id="node33" class="node">
<title>32</title>
<text xml:space="preserve" text-anchor="middle" x="571.38" y="-151.7" font-family="Times,serif" font-size="14.00">&lt;digit&gt;</text>
</g>
<!-- 31&#45;&gt;32 -->
<g id="edge32" class="edge">
<title>31&#45;&gt;32</title>
<path fill="none" stroke="black" d="M574.88,-201.21C574.37,-194.99 573.53,-184.9 572.81,-176.14"/>
<polygon fill="black" stroke="black" points="576.31,-176.02 571.99,-166.35 569.33,-176.6 576.31,-176.02"/>
</g>
<!-- 34 -->
<g id="node35" class="node">
<title>34</title>
<text xml:space="preserve" text-anchor="middle" x="633.38" y="-151.7" font-family="Times,serif" font-size="14.00">&lt;digits&gt;</text>
</g>
<!-- 31&#45;&gt;34 -->
<g id="edge34" class="edge">
<title>31&#45;&gt;34</title>
<path fill="none" stroke="black" d="M582.49,-201.21C591.18,-193.97 606.16,-181.52 617.62,-171.98"/>
<polygon fill="black" stroke="black" points="619.59,-174.89 625.04,-165.81 615.12,-169.51 619.59,-174.89"/>
</g>
<!-- 33 -->
<g id="node34" class="node">
<title>33</title>
<text xml:space="preserve" text-anchor="middle" x="571.38" y="-101.45" font-family="Times,serif" font-size="14.00">5 (53)</text>
</g>
<!-- 32&#45;&gt;33 -->
<g id="edge33" class="edge">
<title>32&#45;&gt;33</title>
<path fill="none" stroke="black" d="M571.38,-150.96C571.38,-144.74 571.38,-134.65 571.38,-125.89"/>
<polygon fill="black" stroke="black" points="574.88,-126.1 571.38,-116.1 567.88,-126.1 574.88,-126.1"/>
</g>
<!-- 35 -->
<g id="node36" class="node">
<title>35</title>
<text xml:space="preserve" text-anchor="middle" x="629.38" y="-101.45" font-family="Times,serif" font-size="14.00">&lt;digit&gt;</text>
</g>
<!-- 34&#45;&gt;35 -->
<g id="edge35" class="edge">
<title>34&#45;&gt;35</title>
<path fill="none" stroke="black" d="M632.88,-150.96C632.37,-144.74 631.53,-134.65 630.81,-125.89"/>
<polygon fill="black" stroke="black" points="634.31,-125.77 629.99,-116.1 627.33,-126.35 634.31,-125.77"/>
</g>
<!-- 37 -->
<g id="node38" class="node">
<title>37</title>
<text xml:space="preserve" text-anchor="middle" x="691.38" y="-101.45" font-family="Times,serif" font-size="14.00">&lt;digits&gt;</text>
</g>
<!-- 34&#45;&gt;37 -->
<g id="edge37" class="edge">
<title>34&#45;&gt;37</title>
<path fill="none" stroke="black" d="M640.49,-150.96C649.18,-143.72 664.16,-131.27 675.62,-121.73"/>
<polygon fill="black" stroke="black" points="677.59,-124.64 683.04,-115.56 673.12,-119.26 677.59,-124.64"/>
</g>
<!-- 36 -->
<g id="node37" class="node">
<title>36</title>
<text xml:space="preserve" text-anchor="middle" x="629.38" y="-51.2" font-family="Times,serif" font-size="14.00">8 (56)</text>
</g>
<!-- 35&#45;&gt;36 -->
<g id="edge36" class="edge">
<title>35&#45;&gt;36</title>
<path fill="none" stroke="black" d="M629.38,-100.71C629.38,-94.49 629.38,-84.4 629.38,-75.64"/>
<polygon fill="black" stroke="black" points="632.88,-75.85 629.38,-65.85 625.88,-75.85 632.88,-75.85"/>
</g>
<!-- 38 -->
<g id="node39" class="node">
<title>38</title>
<text xml:space="preserve" text-anchor="middle" x="687.38" y="-51.2" font-family="Times,serif" font-size="14.00">&lt;digit&gt;</text>
</g>
<!-- 37&#45;&gt;38 -->
<g id="edge38" class="edge">
<title>37&#45;&gt;38</title>
<path fill="none" stroke="black" d="M690.88,-100.71C690.37,-94.49 689.53,-84.4 688.81,-75.64"/>
<polygon fill="black" stroke="black" points="692.31,-75.52 687.99,-65.85 685.33,-76.1 692.31,-75.52"/>
</g>
<!-- 40 -->
<g id="node41" class="node">
<title>40</title>
<text xml:space="preserve" text-anchor="middle" x="749.38" y="-51.2" font-family="Times,serif" font-size="14.00">&lt;digits&gt;</text>
</g>
<!-- 37&#45;&gt;40 -->
<g id="edge40" class="edge">
<title>37&#45;&gt;40</title>
<path fill="none" stroke="black" d="M698.49,-100.71C707.18,-93.47 722.16,-81.02 733.62,-71.48"/>
<polygon fill="black" stroke="black" points="735.59,-74.39 741.04,-65.31 731.12,-69.01 735.59,-74.39"/>
</g>
<!-- 39 -->
<g id="node40" class="node">
<title>39</title>
<text xml:space="preserve" text-anchor="middle" x="687.38" y="-0.95" font-family="Times,serif" font-size="14.00">3 (51)</text>
</g>
<!-- 38&#45;&gt;39 -->
<g id="edge39" class="edge">
<title>38&#45;&gt;39</title>
<path fill="none" stroke="black" d="M687.38,-50.46C687.38,-44.24 687.38,-34.15 687.38,-25.39"/>
<polygon fill="black" stroke="black" points="690.88,-25.6 687.38,-15.6 683.88,-25.6 690.88,-25.6"/>
</g>
<!-- 43 -->
<g id="node44" class="node">
<title>43</title>
<text xml:space="preserve" text-anchor="middle" x="257.38" y="-654.2" font-family="Times,serif" font-size="14.00">&lt;int&gt;</text>
</g>
<!-- 42&#45;&gt;43 -->
<g id="edge43" class="edge">
<title>42&#45;&gt;43</title>
<path fill="none" stroke="black" d="M257.38,-703.71C257.38,-697.49 257.38,-687.4 257.38,-678.64"/>
<polygon fill="black" stroke="black" points="260.88,-678.85 257.38,-668.85 253.88,-678.85 260.88,-678.85"/>
</g>
<!-- 44 -->
<g id="node45" class="node">
<title>44</title>
<text xml:space="preserve" text-anchor="middle" x="247.38" y="-603.95" font-family="Times,serif" font-size="14.00">&lt;leaddigit&gt;</text>
</g>
<!-- 43&#45;&gt;44 -->
<g id="edge44" class="edge">
<title>43&#45;&gt;44</title>
<path fill="none" stroke="black" d="M256.15,-653.46C254.84,-647.16 252.72,-636.92 250.89,-628.08"/>
<polygon fill="black" stroke="black" points="254.38,-627.65 248.92,-618.57 247.52,-629.07 254.38,-627.65"/>
</g>
<!-- 46 -->
<g id="node47" class="node">
<title>46</title>
<text xml:space="preserve" text-anchor="middle" x="320.38" y="-603.95" font-family="Times,serif" font-size="14.00">&lt;digits&gt;</text>
</g>
<!-- 43&#45;&gt;46 -->
<g id="edge46" class="edge">
<title>43&#45;&gt;46</title>
<path fill="none" stroke="black" d="M265.35,-653.26C274.97,-645.9 291.37,-633.34 303.78,-623.84"/>
<polygon fill="black" stroke="black" points="305.65,-626.81 311.46,-617.96 301.39,-621.26 305.65,-626.81"/>
</g>
<!-- 45 -->
<g id="node46" class="node">
<title>45</title>
<text xml:space="preserve" text-anchor="middle" x="247.38" y="-553.7" font-family="Times,serif" font-size="14.00">3 (51)</text>
</g>
<!-- 44&#45;&gt;45 -->
<g id="edge45" class="edge">
<title>44&#45;&gt;45</title>
<path fill="none" stroke="black" d="M247.38,-603.21C247.38,-596.99 247.38,-586.9 247.38,-578.14"/>
<polygon fill="black" stroke="black" points="250.88,-578.35 247.38,-568.35 243.88,-578.35 250.88,-578.35"/>
</g>
<!-- 47 -->
<g id="node48" class="node">
<title>47</title>
<text xml:space="preserve" text-anchor="middle" x="311.38" y="-553.7" font-family="Times,serif" font-size="14.00">&lt;digit&gt;</text>
</g>
<!-- 46&#45;&gt;47 -->
<g id="edge47" class="edge">
<title>46&#45;&gt;47</title>
<path fill="none" stroke="black" d="M319.27,-603.21C318.11,-596.99 316.23,-586.9 314.59,-578.14"/>
<polygon fill="black" stroke="black" points="318.04,-577.52 312.77,-568.33 311.16,-578.8 318.04,-577.52"/>
</g>
<!-- 49 -->
<g id="node50" class="node">
<title>49</title>
<text xml:space="preserve" text-anchor="middle" x="373.38" y="-553.7" font-family="Times,serif" font-size="14.00">&lt;digits&gt;</text>
</g>
<!-- 46&#45;&gt;49 -->
<g id="edge49" class="edge">
<title>46&#45;&gt;49</title>
<path fill="none" stroke="black" d="M326.87,-603.21C334.66,-596.12 347.96,-584.01 358.35,-574.56"/>
<polygon fill="black" stroke="black" points="360.67,-577.18 365.7,-567.86 355.95,-572 360.67,-577.18"/>
</g>
<!-- 48 -->
<g id="node49" class="node">
<title>48</title>
<text xml:space="preserve" text-anchor="middle" x="311.38" y="-503.45" font-family="Times,serif" font-size="14.00">0 (48)</text>
</g>
<!-- 47&#45;&gt;48 -->
<g id="edge48" class="edge">
<title>47&#45;&gt;48</title>
<path fill="none" stroke="black" d="M311.38,-552.96C311.38,-546.74 311.38,-536.65 311.38,-527.89"/>
<polygon fill="black" stroke="black" points="314.88,-528.1 311.38,-518.1 307.88,-528.1 314.88,-528.1"/>
</g>
<!-- 50 -->
<g id="node51" class="node">
<title>50</title>
<text xml:space="preserve" text-anchor="middle" x="369.38" y="-503.45" font-family="Times,serif" font-size="14.00">&lt;digit&gt;</text>
</g>
<!-- 49&#45;&gt;50 -->
<g id="edge50" class="edge">
<title>49&#45;&gt;50</title>
<path fill="none" stroke="black" d="M372.88,-552.96C372.37,-546.74 371.53,-536.65 370.81,-527.89"/>
<polygon fill="black" stroke="black" points="374.31,-527.77 369.99,-518.1 367.33,-528.35 374.31,-527.77"/>
</g>
<!-- 52 -->
<g id="node53" class="node">
<title>52</title>
<text xml:space="preserve" text-anchor="middle" x="431.38" y="-503.45" font-family="Times,serif" font-size="14.00">&lt;digits&gt;</text>
</g>
<!-- 49&#45;&gt;52 -->
<g id="edge52" class="edge">
<title>49&#45;&gt;52</title>
<path fill="none" stroke="black" d="M380.49,-552.96C389.18,-545.72 404.16,-533.27 415.62,-523.73"/>
<polygon fill="black" stroke="black" points="417.59,-526.64 423.04,-517.56 413.12,-521.26 417.59,-526.64"/>
</g>
<!-- 51 -->
<g id="node52" class="node">
<title>51</title>
<text xml:space="preserve" text-anchor="middle" x="369.38" y="-453.2" font-family="Times,serif" font-size="14.00">1 (49)</text>
</g>
<!-- 50&#45;&gt;51 -->
<g id="edge51" class="edge">
<title>50&#45;&gt;51</title>
<path fill="none" stroke="black" d="M369.38,-502.71C369.38,-496.49 369.38,-486.4 369.38,-477.64"/>
<polygon fill="black" stroke="black" points="372.88,-477.85 369.38,-467.85 365.88,-477.85 372.88,-477.85"/>
</g>
<!-- 53 -->
<g id="node54" class="node">
<title>53</title>
</g>
<!-- 52&#45;&gt;53 -->
<g id="edge53" class="edge">
<title>52&#45;&gt;53</title>
<path fill="none" stroke="black" d="M431.38,-502.71C431.38,-502.66 431.38,-502.61 431.38,-502.56"/>
<polygon fill="black" stroke="black" points="434.88,-513.91 431.38,-503.92 427.88,-513.92 434.88,-513.91"/>
</g>
</g>
</svg>