<?xml version="1.0" encoding="UTF-8" standalone="no"?>
<!DOCTYPE svg PUBLIC "-//W3C//DTD SVG 1.1//EN"
 "http://www.w3.org/Graphics/SVG/1.1/DTD/svg11.dtd">
<!-- Generated by graphviz version 13.1.2 (20250808.2320)
 -->
<!-- Pages: 1 -->
<svg width="897pt" height="927pt"
 viewBox="0.00 0.00 897.00 927.00" xmlns="http://www.w3.org/2000/svg" xmlns:xlink="http://www.w3.org/1999/xlink">
<g id="graph0" class="graph" transform="scale(1 1) rotate(0) translate(4 922.75)">
<polygon fill="white" stroke="none" points="-4,4 -4,-922.75 892.62,-922.75 892.62,4 -4,4"/>
<!-- 0 -->
<g id="node1" class="node">
<title>0</title>
<text xml:space="preserve" text-anchor="middle" x="143.38" y="-905.45" font-family="Times,serif" font-size="14.00">&lt;start&gt;</text>
</g>
<!-- 1 -->
<g id="node2" class="node">
<title>1</title>
<text xml:space="preserve" text-anchor="middle" x="143.38" y="-855.2" font-family="Times,serif" font-size="14.00">&lt;config&gt;</text>
</g>
<!-- 0&#45;&gt;1 -->
<g id="edge1" class="edge">
<title>0&#45;&gt;1</title>
<path fill="none" stroke="black" d="M143.38,-904.71C143.38,-898.49 143.38,-888.4 143.38,-879.64"/>
<polygon fill="black" stroke="black" points="146.88,-879.85 143.38,-869.85 139.88,-879.85 146.88,-879.85"/>
</g>
<!-- 2 -->
<g id="node3" class="node">
<title>2</title>
<text xml:space="preserve" text-anchor="middle" x="27.38" y="-804.95" font-family="Times,serif" font-size="14.00">pagesize=</text>
</g>
<!-- 1&#45;&gt;2 -->
<g id="edge2" class="edge">
<title>1&#45;&gt;2</title>
<path fill="none" stroke="black" d="M128.68,-854.26C109.51,-846.29 75.66,-832.21 52.4,-822.54"/>
<polygon fill="black" stroke="black" points="53.92,-819.38 43.34,-818.77 51.23,-825.84 53.92,-819.38"/>
</g>
<!-- 3 -->
<g id="node4" class="node">
<title>3</title>
<text xml:space="preserve" text-anchor="middle" x="104.38" y="-804.95" font-family="Times,serif" font-size="14.00">&lt;pagesize&gt;</text>
</g>
<!-- 1&#45;&gt;3 -->
<g id="edge3" class="edge">
<title>1&#45;&gt;3</title>
<path fill="none" stroke="black" d="M138.59,-854.46C133.1,-847.66 123.87,-836.24 116.38,-826.98"/>
<polygon fill="black" stroke="black" points="119.16,-824.84 110.15,-819.27 113.71,-829.24 119.16,-824.84"/>
</g>
<!-- 47 -->
<g id="node48" class="node">
<title>47</title>
<text xml:space="preserve" text-anchor="middle" x="182.38" y="-804.95" font-family="Times,serif" font-size="14.00">\nbufsize=</text>
</g>
<!-- 1&#45;&gt;47 -->
<g id="edge47" class="edge">
<title>1&#45;&gt;47</title>
<path fill="none" stroke="black" d="M148.16,-854.46C153.65,-847.66 162.88,-836.24 170.37,-826.98"/>
<polygon fill="black" stroke="black" points="173.04,-829.24 176.6,-819.27 167.59,-824.84 173.04,-829.24"/>
</g>
<!-- 48 -->
<g id="node49" class="node">
<title>48</title>
<text xml:space="preserve" text-anchor="middle" x="257.38" y="-804.95" font-family="Times,serif" font-size="14.00">&lt;bufsize&gt;</text>
</g>
<!-- 1&#45;&gt;48 -->
<g id="edge48" class="edge">
<title>1&#45;&gt;48</title>
<path fill="none" stroke="black" d="M157.81,-854.26C176.57,-846.32 209.62,-832.34 232.47,-822.67"/>
<polygon fill="black" stroke="black" points="233.82,-825.9 241.66,-818.78 231.09,-819.45 233.82,-825.9"/>
</g>
<!-- 4 -->
<g id="node5" class="node">
<title>4</title>
<text xml:space="preserve" text-anchor="middle" x="104.38" y="-754.7" font-family="Times,serif" font-size="14.00">&lt;int&gt;</text>
</g>
<!-- 3&#45;&gt;4 -->
<g id="edge4" class="edge">
<title>3&#45;&gt;4</title>
<path fill="none" stroke="black" d="M104.38,-804.21C104.38,-797.99 104.38,-787.9 104.38,-779.14"/>
<polygon fill="black" stroke="black" points="107.88,-779.35 104.38,-769.35 100.88,-779.35 107.88,-779.35"/>
</g>
<!-- 5 -->
<g id="node6" class="node">
<title>5</title>
<text xml:space="preserve" text-anchor="middle" x="42.38" y="-704.45" font-family="Times,serif" font-size="14.00">&lt;leaddigit&gt;</text>
</g>
<!-- 4&#45;&gt;5 -->
<g id="edge5" class="edge">
<title>4&#45;&gt;5</title>
<path fill="none" stroke="black" d="M96.52,-753.76C87.06,-746.4 70.92,-733.84 58.71,-724.34"/>
<polygon fill="black" stroke="black" points="61.21,-721.84 51.16,-718.46 56.91,-727.37 61.21,-721.84"/>
</g>
<!-- 7 -->
<g id="node8" class="node">
<title>7</title>
<text xml:space="preserve" text-anchor="middle" x="115.38" y="-704.45" font-family="Times,serif" font-size="14.00">&lt;digits&gt;</text>
</g>
<!-- 4&#45;&gt;7 -->
<g id="edge7" class="edge">
<title>4&#45;&gt;7</title>
<path fill="none" stroke="black" d="M105.72,-753.96C107.16,-747.66 109.5,-737.42 111.51,-728.58"/>
<polygon fill="black" stroke="black" points="114.87,-729.59 113.68,-719.07 108.04,-728.04 114.87,-729.59"/>
</g>
<!-- 6 -->
<g id="node7" class="node">
<title>6</title>
<text xml:space="preserve" text-anchor="middle" x="42.38" y="-654.2" font-family="Times,serif" font-size="14.00">2 (50)</text>
</g>
<!-- 5&#45;&gt;6 -->
<g id="edge6" class="edge">
<title>5&#45;&gt;6</title>
<path fill="none" stroke="black" d="M42.38,-703.71C42.38,-697.49 42.38,-687.4 42.38,-678.64"/>
<polygon fill="black" stroke="black" points="45.88,-678.85 42.38,-668.85 38.88,-678.85 45.88,-678.85"/>
</g>
<!-- 8 -->
<g id="node9" class="node">
<title>8</title>
<text xml:space="preserve" text-anchor="middle" x="106.38" y="-654.2" font-family="Times,serif" font-size="14.00">&lt;digit&gt;</text>
</g>
<!-- 7&#45;&gt;8 -->
<g id="edge8" class="edge">
<title>7&#45;&gt;8</title>
<path fill="none" stroke="black" d="M114.27,-703.71C113.11,-697.49 111.23,-687.4 109.59,-678.64"/>
<polygon fill="black" stroke="black" points="113.04,-678.02 107.77,-668.83 106.16,-679.3 113.04,-678.02"/>
</g>
<!-- 10 -->
<g id="node11" class="node">
<title>10</title>
<text xml:space="preserve" text-anchor="middle" x="168.38" y="-654.2" font-family="Times,serif" font-size="14.00">&lt;digits&gt;</text>
</g>
<!-- 7&#45;&gt;10 -->
<g id="edge10" class="edge">
<title>7&#45;&gt;10</title>
<path fill="none" stroke="black" d="M121.87,-703.71C129.66,-696.62 142.96,-684.51 153.35,-675.06"/>
<polygon fill="black" stroke="black" points="155.67,-677.68 160.7,-668.36 150.95,-672.5 155.67,-677.68"/>
</g>
<!-- 9 -->
<g id="node10" class="node">
<title>9</title>
<text xml:space="preserve" text-anchor="middle" x="106.38" y="-603.95" font-family="Times,serif" font-size="14.00">5 (53)</text>
</g>
<!-- 8&#45;&gt;9 -->
<g id="edge9" class="edge">
<title>8&#45;&gt;9</title>
<path fill="none" stroke="black" d="M106.38,-653.46C106.38,-647.24 106.38,-637.15 106.38,-628.39"/>
<polygon fill="black" stroke="black" points="109.88,-628.6 106.38,-618.6 102.88,-628.6 109.88,-628.6"/>
</g>
<!-- 11 -->
<g id="node12" class="node">
<title>11</title>
<text xml:space="preserve" text-anchor="middle" x="164.38" y="-603.95" font-family="Times,serif" font-size="14.00">&lt;digit&gt;</text>
</g>
<!-- 10&#45;&gt;11 -->
<g id="edge11" class="edge">
<title>10&#45;&gt;11</title>
<path fill="none" stroke="black" d="M167.88,-653.46C167.37,-647.24 166.53,-637.15 165.81,-628.39"/>
<polygon fill="black" stroke="black" points="169.31,-628.27 164.99,-618.6 162.33,-628.85 169.31,-628.27"/>
</g>
<!-- 13 -->
<g id="node14" class="node">
<title>13</title>
<text xml:space="preserve" text-anchor="middle" x="226.38" y="-603.95" font-family="Times,serif" font-size="14.00">&lt;digits&gt;</text>
</g>
<!-- 10&#45;&gt;13 -->
<g id="edge13" class="edge">
<title>10&#45;&gt;13</title>
<path fill="none" stroke="black" d="M175.49,-653.46C184.18,-646.22 199.16,-633.77 210.62,-624.23"/>
<polygon fill="black" stroke="black" points="212.59,-627.14 218.04,-618.06 208.12,-621.76 212.59,-627.14"/>
</g>
<!-- 12 -->
<g id="node13" class="node">
<title>12</title>
<text xml:space="preserve" text-anchor="middle" x="164.38" y="-553.7" font-family="Times,serif" font-size="14.00">3 (51)</text>
</g>
<!-- 11&#45;&gt;12 -->
<g id="edge12" class="edge">
<title>11&#45;&gt;12</title>
<path fill="none" stroke="black" d="M164.38,-603.21C164.38,-596.99 164.38,-586.9 164.38,-578.14"/>
<polygon fill="black" stroke="black" points="167.88,-578.35 164.38,-568.35 160.88,-578.35 167.88,-578.35"/>
</g>
<!-- 14 -->
<g id="node15" class="node">
<title>14</title>
<text xml:space="preserve" text-anchor="middle" x="223.38" y="-553.7" font-family="Times,serif" font-size="14.00">&lt;digit&gt;</text>
</g>
<!-- 13&#45;&gt;14 -->
<g id="edge14" class="edge">
<title>13&#45;&gt;14</title>
<path fill="none" stroke="black" d="M226.01,-603.21C225.62,-596.99 224.99,-586.9 224.45,-578.14"/>
<polygon fill="black" stroke="black" points="227.95,-578.11 223.84,-568.35 220.97,-578.55 227.95,-578.11"/>
</g>
<!-- 16 -->
<g id="node17" class="node">
<title>16</title>
<text xml:space="preserve" text-anchor="middle" x="285.38" y="-553.7" font-family="Times,serif" font-size="14.00">&lt;digits&gt;</text>
</g>
<!-- 13&#45;&gt;16 -->
<g id="edge16" class="edge">
<title>13&#45;&gt;16</title>
<path fill="none" stroke="black" d="M233.61,-603.21C242.46,-595.97 257.69,-583.52 269.35,-573.98"/>
<polygon fill="black" stroke="black" points="271.38,-576.84 276.91,-567.8 266.95,-571.42 271.38,-576.84"/>
</g>
<!-- 15 -->
<g id="node16" class="node">
<title>15</title>
<text xml:space="preserve" text-anchor="middle" x="223.38" y="-503.45" font-family="Times,serif" font-size="14.00">9 (57)</text>
</g>
<!-- 14&#45;&gt;15 -->
<g id="edge15" class="edge">
<title>14&#45;&gt;15</title>
<path fill="none" stroke="black" d="M223.38,-552.96C223.38,-546.74 223.38,-536.65 223.38,-527.89"/>
<polygon fill="black" stroke="black" points="226.88,-528.1 223.38,-518.1 219.88,-528.1 226.88,-528.1"/>
</g>
<!-- 17 -->
<g id="node18" class="node">
<title>17</title>
<text xml:space="preserve" text-anchor="middle" x="281.38" y="-503.45" font-family="Times,serif" font-size="14.00">&lt;digit&gt;</text>
</g>
<!-- 16&#45;&gt;17 -->
<g id="edge17" class="edge">
<title>16&#45;&gt;17</title>
<path fill="none" stroke="black" d="M284.88,-552.96C284.37,-546.74 283.53,-536.65 282.81,-527.89"/>
<polygon fill="black" stroke="black" points="286.31,-527.77 281.99,-518.1 279.33,-528.35 286.31,-527.77"/>
</g>
<!-- 19 -->
<g id="node20" class="node">
<title>19</title>
<text xml:space="preserve" text-anchor="middle" x="343.38" y="-503.45" font-family="Times,serif" font-size="14.00">&lt;digits&gt;</text>
</g>
<!-- 16&#45;&gt;19 -->
<g id="edge19" class="edge">
<title>16&#45;&gt;19</title>
<path fill="none" stroke="black" d="M292.49,-552.96C301.18,-545.72 316.16,-533.27 327.62,-523.73"/>
<polygon fill="black" stroke="black" points="329.59,-526.64 335.04,-517.56 325.12,-521.26 329.59,-526.64"/>
</g>
<!-- 18 -->
<g id="node19" class="node">
<title>18</title>
<text xml:space="preserve" text-anchor="middle" x="281.38" y="-453.2" font-family="Times,serif" font-size="14.00">5 (53)</text>
</g>
<!-- 17&#45;&gt;18 -->
<g id="edge18" class="edge">
<title>17&#45;&gt;18</title>
<path fill="none" stroke="black" d="M281.38,-502.71C281.38,-496.49 281.38,-486.4 281.38,-477.64"/>
<polygon fill="black" stroke="black" points="284.88,-477.85 281.38,-467.85 277.88,-477.85 284.88,-477.85"/>
</g>
<!-- 20 -->
<g id="node21" class="node">
<title>20</title>
<text xml:space="preserve" text-anchor="middle" x="339.38" y="-453.2" font-family="Times,serif" font-size="14.00">&lt;digit&gt;</text>
</g>
<!-- 19&#45;&gt;20 -->
<g id="edge20" class="edge">
<title>19&#45;&gt;20</title>
<path fill="none" stroke="black" d="M342.88,-502.71C342.37,-496.49 341.53,-486.4 340.81,-477.64"/>
<polygon fill="black" stroke="black" points="344.31,-477.52 339.99,-467.85 337.33,-478.1 344.31,-477.52"/>
</g>
<!-- 22 -->
<g id="node23" class="node">
<title>22</title>
<text xml:space="preserve" text-anchor="middle" x="401.38" y="-453.2" font-family="Times,serif" font-size="14.00">&lt;digits&gt;</text>
</g>
<!-- 19&#45;&gt;22 -->
<g id="edge22" class="edge">
<title>19&#45;&gt;22</title>
<path fill="none" stroke="black" d="M350.49,-502.71C359.18,-495.47 374.16,-483.02 385.62,-473.48"/>
<polygon fill="black" stroke="black" points="387.59,-476.39 393.04,-467.31 383.12,-471.01 387.59,-476.39"/>
</g>
<!-- 21 -->
<g id="node22" class="node">
<title>21</title>
<text xml:space="preserve" text-anchor="middle" x="339.38" y="-402.95" font-family="Times,serif" font-size="14.00">7 (55)</text>
</g>
<!-- 20&#45;&gt;21 -->
<g id="edge21" class="edge">
<title>20&#45;&gt;21</title>
<path fill="none" stroke="black" d="M339.38,-452.46C339.38,-446.24 339.38,-436.15 339.38,-427.39"/>
<polygon fill="black" stroke="black" points="342.88,-427.6 339.38,-417.6 335.88,-427.6 342.88,-427.6"/>
</g>
<!-- 23 -->
<g id="node24" class="node">
<title>23</title>
<text xml:space="preserve" text-anchor="middle" x="397.38" y="-402.95" font-family="Times,serif" font-size="14.00">&lt;digit&gt;</text>
</g>
<!-- 22&#45;&gt;23 -->
<g id="edge23" class="edge">
<title>22&#45;&gt;23</title>
<path fill="none" stroke="black" d="M400.88,-452.46C400.37,-446.24 399.53,-436.15 398.81,-427.39"/>
<polygon fill="black" stroke="black" points="402.31,-427.27 397.99,-417.6 395.33,-427.85 402.31,-427.27"/>
</g>
<!-- 25 -->
<g id="node26" class="node">
<title>25</title>
<text xml:space="preserve" text-anchor="middle" x="459.38" y="-402.95" font-family="Times,serif" font-size="14.00">&lt;digits&gt;</text>
</g>
<!-- 22&#45;&gt;25 -->
<g id="edge25" class="edge">
<title>22&#45;&gt;25</title>
<path fill="none" stroke="black" d="M408.49,-452.46C417.18,-445.22 432.16,-432.77 443.62,-423.23"/>
<polygon fill="black" stroke="black" points="445.59,-426.14 451.04,-417.06 441.12,-420.76 445.59,-426.14"/>
</g>
<!-- 24 -->
<g id="node25" class="node">
<title>24</title>
<text xml:space="preserve" text-anchor="middle" x="397.38" y="-352.7" font-family="Times,serif" font-size="14.00">4 (52)</text>
</g>
<!-- 23&#45;&gt;24 -->
<g id="edge24" class="edge">
<title>23&#45;&gt;24</title>
<path fill="none" stroke="black" d="M397.38,-402.21C397.38,-395.99 397.38,-385.9 397.38,-377.14"/>
<polygon fill="black" stroke="black" points="400.88,-377.35 397.38,-367.35 393.88,-377.35 400.88,-377.35"/>
</g>
<!-- 26 -->
<g id="node27" class="node">
<title>26</title>
<text xml:space="preserve" text-anchor="middle" x="455.38" y="-352.7" font-family="Times,serif" font-size="14.00">&lt;digit&gt;</text>
</g>
<!-- 25&#45;&gt;26 -->
<g id="edge26" class="edge">
<title>25&#45;&gt;26</title>
<path fill="none" stroke="black" d="M458.88,-402.21C458.37,-395.99 457.53,-385.9 456.81,-377.14"/>
<polygon fill="black" stroke="black" points="460.31,-377.02 455.99,-367.35 453.33,-377.6 460.31,-377.02"/>
</g>
<!-- 28 -->
<g id="node29" class="node">
<title>28</title>
<text xml:space="preserve" text-anchor="middle" x="517.38" y="-352.7" font-family="Times,serif" font-size="14.00">&lt;digits&gt;</text>
</g>
<!-- 25&#45;&gt;28 -->
<g id="edge28" class="edge">
<title>25&#45;&gt;28</title>
<path fill="none" stroke="black" d="M466.49,-402.21C475.18,-394.97 490.16,-382.52 501.62,-372.98"/>
<polygon fill="black" stroke="black" points="503.59,-375.89 509.04,-366.81 499.12,-370.51 503.59,-375.89"/>
</g>
<!-- 27 -->
<g id="node28" class="node">
<title>27</title>
<text xml:space="preserve" text-anchor="middle" x="455.38" y="-302.45" font-family="Times,serif" font-size="14.00">6 (54)</text>
</g>
<!-- 26&#45;&gt;27 -->
<g id="edge27" class="edge">
<title>26&#45;&gt;27</title>
<path fill="none" stroke="black" d="M455.38,-351.96C455.38,-345.74 455.38,-335.65 455.38,-326.89"/>
<polygon fill="black" stroke="black" points="458.88,-327.1 455.38,-317.1 451.88,-327.1 458.88,-327.1"/>
</g>
<!-- 29 -->
<g id="node30" class="node">
<title>29</title>
<text xml:space="preserve" text-anchor="middle" x="513.38" y="-302.45" font-family="Times,serif" font-size="14.00">&lt;digit&gt;</text>
</g>
<!-- 28&#45;&gt;29 -->
<g id="edge29" class="edge">
<title>28&#45;&gt;29</title>
<path fill="none" stroke="black" d="M516.88,-351.96C516.37,-345.74 515.53,-335.65 514.81,-326.89"/>
<polygon fill="black" stroke="black" points="518.31,-326.77 513.99,-317.1 511.33,-327.35 518.31,-326.77"/>
</g>
<!-- 31 -->
<g id="node32" class="node">
<title>31</title>
<text xml:space="preserve" text-anchor="middle" x="575.38" y="-302.45" font-family="Times,serif" font-size="14.00">&lt;digits&gt;</text>
</g>
<!-- 28&#45;&gt;31 -->
<g id="edge31" class="edge">
<title>28&#45;&gt;31</title>
<path fill="none" stroke="black" d="M524.49,-351.96C533.18,-344.72 548.16,-332.27 559.62,-322.73"/>
<polygon fill="black" stroke="black" points="561.59,-325.64 567.04,-316.56 557.12,-320.26 561.59,-325.64"/>
</g>
<!-- 30 -->
<g id="node31" class="node">
<title>30</title>
<text xml:space="preserve" text-anchor="middle" x="513.38" y="-252.2" font-family="Times,serif" font-size="14.00">8 (56)</text>
</g>
<!-- 29&#45;&gt;30 -->
<g id="edge30" class="edge">
<title>29&#45;&gt;30</title>
<path fill="none" stroke="black" d="M513.38,-301.71C513.38,-295.49 513.38,-285.4 513.38,-276.64"/>
<polygon fill="black" stroke="black" points="516.88,-276.85 513.38,-266.85 509.88,-276.85 516.88,-276.85"/>
</g>
<!-- 32 -->
<g id="node33" class="node">
<title>32</title>
<text xml:space="preserve" text-anchor="middle" x="571.38" y="-252.2" font-family="Times,serif" font-size="14.00">&lt;digit&gt;</text>
</g>
<!-- 31&#45;&gt;32 -->
<g id="edge32" class="edge">
<title>31&#45;&gt;32</title>
<path fill="none" stroke="black" d="M574.88,-301.71C574.37,-295.49 573.53,-285.4 572.81,-276.64"/>
<polygon fill="black" stroke="black" points="576.31,-276.52 571.99,-266.85 569.33,-277.1 576.31,-276.52"/>
</g>
<!-- 34 -->
<g id="node35" class="node">
<title>34</title>
<text xml:space="preserve" text-anchor="middle" x="633.38" y="-252.2" font-family="Times,serif" font-size="14.00">&lt;digits&gt;</text>
</g>
<!-- 31&#45;&gt;34 -->
<g id="edge34" class="edge">
<title>31&#45;&gt;34</title>
<path fill="none" stroke="black" d="M582.49,-301.71C591.18,-294.47 606.16,-282.02 617.62,-272.48"/>
<polygon fill="black" stroke="black" points="619.59,-275.39 625.04,-266.31 615.12,-270.01 619.59,-275.39"/>
</g>
<!-- 33 -->
<g id="node34" class="node">
<title>33</title>
<text xml:space="preserve" text-anchor="middle" x="571.38" y="-201.95" font-family="Times,serif" font-size="14.00">1 (49)</text>
</g>
<!-- 32&#45;&gt;33 -->
<g id="edge33" class="edge">
<title>32&#45;&gt;33</title>
<path fill="none" stroke="black" d="M571.38,-251.46C571.38,-245.24 571.38,-235.15 571.38,-226.39"/>
<polygon fill="black" stroke="black" points="574.88,-226.6 571.38,-216.6 567.88,-226.6 574.88,-226.6"/>
</g>
<!-- 35 -->
<g id="node36" class="node">
<title>35</title>
<text xml:space="preserve" text-anchor="middle" x="629.38" y="-201.95" font-family="Times,serif" font-size="14.00">&lt;digit&gt;</text>
</g>
<!-- 34&#45;&gt;35 -->
<g id="edge35" class="edge">
<title>34&#45;&gt;35</title>
<path fill="none" stroke="black" d="M632.88,-251.46C632.37,-245.24 631.53,-235.15 630.81,-226.39"/>
<polygon fill="black" stroke="black" points="634.31,-226.27 629.99,-216.6 627.33,-226.85 634.31,-226.27"/>
</g>
<!-- 37 -->
<g id="node38" class="node">
<title>37</title>
<text xml:space="preserve" text-anchor="middle" x="691.38" y="-201.95" font-family="Times,serif" font-size="14.00">&lt;digits&gt;</text>
</g>
<!-- 34&#45;&gt;37 -->
<g id="edge37" class="edge">
<title>34&#45;&gt;37</title>
<path fill="none" stroke="black" d="M640.49,-251.46C649.18,-244.22 664.16,-231.77 675.62,-222.23"/>
<polygon fill="black" stroke="black" points="677.59,-225.14 683.04,-216.06 673.12,-219.76 677.59,-225.14"/>
</g>
<!-- 36 -->
<g id="node37" class="node">
<title>36</title>
<text xml:space="preserve" text-anchor="middle" x="629.38" y="-151.7" font-family="Times,serif" font-size="14.00">5 (53)</text>
</g>
<!-- 35&#45;&gt;36 -->
<g id="edge36" class="edge">
<title>35&#45;&gt;36</title>
<path fill="none" stroke="black" d="M629.38,-201.21C629.38,-194.99 629.38,-184.9 629.38,-176.14"/>
<polygon fill="black" stroke="black" points="632.88,-176.35 629.38,-166.35 625.88,-176.35 632.88,-176.35"/>
</g>
<!-- 38 -->
<g id="node39" class="node">
<title>38</title>
<text xml:space="preserve" text-anchor="middle" x="687.38" y="-151.7" font-family="Times,serif" font-size="14.00">&lt;digit&gt;</text>
</g>
<!-- 37&#45;&gt;38 -->
<g id="edge38" class="edge">
<title>37&#45;&gt;38</title>
<path fill="none" stroke="black" d="M690.88,-201.21C690.37,-194.99 689.53,-184.9 688.81,-176.14"/>
<polygon fill="black" stroke="black" points="692.31,-176.02 687.99,-166.35 685.33,-176.6 692.31,-176.02"/>
</g>
<!-- 40 -->
<g id="node41" class="node">
<title>40</title>
<text xml:space="preserve" text-anchor="middle" x="749.38" y="-151.7" font-family="Times,serif" font-size="14.00">&lt;digits&gt;</text>
</g>
<!-- 37&#45;&gt;40 -->
<g id="edge40" class="edge">
<title>37&#45;&gt;40</title>
<path fill="none" stroke="black" d="M698.49,-201.21C707.18,-193.97 722.16,-181.52 733.62,-171.98"/>
<polygon fill="black" stroke="black" points="735.59,-174.89 741.04,-165.81 731.12,-169.51 735.59,-174.89"/>
</g>
<!-- 39 -->
<g id="node40" class="node">
<title>39</title>
<text xml:space="preserve" text-anchor="middle" x="687.38" y="-101.45" font-family="Times,serif" font-size="14.00">8 (56)</text>
</g>
<!-- 38&#45;&gt;39 -->
<g id="edge39" class="edge">
<title>38&#45;&gt;39</title>
<path fill="none" stroke="black" d="M687.38,-150.96C687.38,-144.74 687.38,-134.65 687.38,-125.89"/>
<polygon fill="black" stroke="black" points="690.88,-126.1 687.38,-116.1 683.88,-126.1 690.88,-126.1"/>
</g>
<!-- 41 -->
<g id="node42" class="node">
<title>41</title>
<text xml:space="preserve" text-anchor="middle" x="745.38" y="-101.45" font-family="Times,serif" font-size="14.00">&lt;digit&gt;</text>
</g>
<!-- 40&#45;&gt;41 -->
<g id="edge41" class="edge">
<title>40&#45;&gt;41</title>
<path fill="none" stroke="black" d="M748.88,-150.96C748.37,-144.74 747.53,-134.65 746.81,-125.89"/>
<polygon fill="black" stroke="black" points="750.31,-125.77 745.99,-116.1 743.33,-126.35 750.31,-125.77"/>
</g>
<!-- 43 -->
<g id="node44" class="node">
<title>43</title>
<text xml:space="preserve" text-anchor="middle" x="807.38" y="-101.45" font-family="Times,serif" font-size="14.00">&lt;digits&gt;</text>
</g>
<!-- 40&#45;&gt;43 -->
<g id="edge43" class="edge">
<title>40&#45;&gt;43</title>
<path fill="none" stroke="black" d="M756.49,-150.96C765.18,-143.72 780.16,-131.27 791.62,-121.73"/>
<polygon fill="black" stroke="black" points="793.59,-124.64 799.04,-115.56 789.12,-119.26 793.59,-124.64"/>
</g>
<!-- 42 -->
<g id="node43" class="node">
<title>42</title>
<text xml:space="preserve" text-anchor="middle" x="745.38" y="-51.2" font-family="Times,serif" font-size="14.00">8 (56)</text>
</g>
<!-- 41&#45;&gt;42 -->
<g id="edge42" class="edge">
<title>41&#45;&gt;42</title>
<path fill="none" stroke="black" d="M745.38,-100.71C745.38,-94.49 745.38,-84.4 745.38,-75.64"/>
<polygon fill="black" stroke="black" points="748.88,-75.85 745.38,-65.85 741.88,-75.85 748.88,-75.85"/>
</g>
<!-- 44 -->
<g id="node45" class="node">
<title>44</title>
<text xml:space="preserve" text-anchor="middle" x="803.38" y="-51.2" font-family="Times,serif" font-size="14.00">&lt;digit&gt;</text>
</g>
<!-- 43&#45;&gt;44 -->
<g id="edge44" class="edge">
<title>43&#45;&gt;44</title>
<path fill="none" stroke="black" d="M806.88,-100.71C806.37,-94.49 805.53,-84.4 804.81,-75.64"/>
<polygon fill="black" stroke="black" points="808.31,-75.52 803.99,-65.85 801.33,-76.1 808.31,-75.52"/>
</g>
<!-- 46 -->
<g id="node47" class="node">
<title>46</title>
<text xml:space="preserve" text-anchor="middle" x="865.38" y="-51.2" font-family="Times,serif" font-size="14.00">&lt;digits&gt;</text>
</g>
<!-- 43&#45;&gt;46 -->
<g id="edge46" class="edge">
<title>43&#45;&gt;46</title>
<path fill="none" stroke="black" d="M814.49,-100.71C823.18,-93.47 838.16,-81.02 849.62,-71.48"/>
<polygon fill="black" stroke="black" points="851.59,-74.39 857.04,-65.31 847.12,-69.01 851.59,-74.39"/>
</g>
<!-- 45 -->
<g id="node46" class="node">
<title>45</title>
<text xml:space="preserve" text-anchor="middle" x="803.38" y="-0.95" font-family="Times,serif" font-size="14.00">5 (53)</text>
</g>
<!-- 44&#45;&gt;45 -->
<g id="edge45" class="edge">
<title>44&#45;&gt;45</title>
<path fill="none" stroke="black" d="M803.38,-50.46C803.38,-44.24 803.38,-34.15 803.38,-25.39"/>
<polygon fill="black" stroke="black" points="806.88,-25.6 803.38,-15.6 799.88,-25.6 806.88,-25.6"/>
</g>
<!-- 49 -->
<g id="node50" class="node">
<title>49</title>
<text xml:space="preserve" text-anchor="middle" x="257.38" y="-754.7" font-family="Times,serif" font-size="14.00">&lt;int&gt;</text>
</g>
<!-- 48&#45;&gt;49 -->
<g id="edge49" class="edge">
<title>48&#45;&gt;49</title>
<path fill="none" stroke="black" d="M257.38,-804.21C257.38,-797.99 257.38,-787.9 257.38,-779.14"/>
<polygon fill="black" stroke="black" points="260.88,-779.35 257.38,-769.35 253.88,-779.35 260.88,-779.35"/>
</g>
<!-- 50 -->
<g id="node51" class="node">
<title>50</title>
<text xml:space="preserve" text-anchor="middle" x="247.38" y="-704.45" font-family="Times,serif" font-size="14.00">&lt;leaddigit&gt;</text>
</g>
<!-- 49&#45;&gt;50 -->
<g id="edge50" class="edge">
<title>49&#45;&gt;50</title>
<path fill="none" stroke="black" d="M256.15,-753.96C254.84,-747.66 252.72,-737.42 250.89,-728.58"/>
<polygon fill="black" stroke="black" points="254.38,-728.15 248.92,-719.07 247.52,-729.57 254.38,-728.15"/>
</g>
<!-- 52 -->
<g id="node53" class="node">
<title>52</title>
<text xml:space="preserve" text-anchor="middle" x="320.38" y="-704.45" font-family="Times,serif" font-size="14.00">&lt;digits&gt;</text>
</g>
<!-- 49&#45;&gt;52 -->
<g id="edge52" class="edge">
<title>49&#45;&gt;52</title>
<path fill="none" stroke="black" d="M265.35,-753.76C274.97,-746.4 291.37,-733.84 303.78,-724.34"/>
<polygon fill="black" stroke="black" points="305.65,-727.31 311.46,-718.46 301.39,-721.76 305.65,-727.31"/>
</g>
<!-- 51 -->
<g id="node52" class="node">
<title>51</title>
<text xml:space="preserve" text-anchor="middle" x="247.38" y="-654.2" font-family="Times,serif" font-size="14.00">3 (51)</text>
</g>
<!-- 50&#45;&gt;51 -->
<g id="edge51" class="edge">
<title>50&#45;&gt;51</title>
<path fill="none" stroke="black" d="M247.38,-703.71C247.38,-697.49 247.38,-687.4 247.38,-678.64"/>
<polygon fill="black" stroke="black" points="250.88,-678.85 247.38,-668.85 243.88,-678.85 250.88,-678.85"/>
</g>
<!-- 53 -->
<g id="node54" class="node">
<title>53</title>
<text xml:space="preserve" text-anchor="middle" x="311.38" y="-654.2" font-family="Times,serif" font-size="14.00">&lt;digit&gt;</text>
</g>
<!-- 52&#45;&gt;53 -->
<g id="edge53" class="edge">
<title>52&#45;&gt;53</title>
<path fill="none" stroke="black" d="M319.27,-703.71C318.11,-697.49 316.23,-687.4 314.59,-678.64"/>
<polygon fill="black" stroke="black" points="318.04,-678.02 312.77,-668.83 311.16,-679.3 318.04,-678.02"/>
</g>
<!-- 55 -->
<g id="node56" class="node">
<title>55</title>
<text xml:space="preserve" text-anchor="middle" x="373.38" y="-654.2" font-family="Times,serif" font-size="14.00">&lt;digits&gt;</text>
</g>
<!-- 52&#45;&gt;55 -->
<g id="edge55" class="edge">
<title>52&#45;&gt;55</title>
<path fill="none" stroke="black" d="M326.87,-703.71C334.66,-696.62 347.96,-684.51 358.35,-675.06"/>
<polygon fill="black" stroke="black" points="360.67,-677.68 365.7,-668.36 355.95,-672.5 360.67,-677.68"/>
</g>
<!-- 54 -->
<g id="node55" class="node">
<title>54</title>
<text xml:space="preserve" text-anchor="middle" x="311.38" y="-603.95" font-family="Times,serif" font-size="14.00">0 (48)</text>
</g>
<!-- 53&#45;&gt;54 -->
<g id="edge54" class="edge">
<title>53&#45;&gt;54</title>
<path fill="none" stroke="black" d="M311.38,-653.46C311.38,-647.24 311.38,-637.15 311.38,-628.39"/>
<polygon fill="black" stroke="black" points="314.88,-628.6 311.38,-618.6 307.88,-628.6 314.88,-628.6"/>
</g>
<!-- 56 -->
<g id="node57" class="node">
<title>56</title>
<text xml:space="preserve" text-anchor="middle" x="369.38" y="-603.95" font-family="Times,serif" font-size="14.00">&lt;digit&gt;</text>
</g>
<!-- 55&#45;&gt;56 -->
<g id="edge56" class="edge">
<title>55&#45;&gt;56</title>
<path fill="none" stroke="black" d="M372.88,-653.46C372.37,-647.24 371.53,-637.15 370.81,-628.39"/>
<polygon fill="black" stroke="black" points="374.31,-628.27 369.99,-618.6 367.33,-628.85 374.31,-628.27"/>
</g>
<!-- 58 -->
<g id="node59" class="node">
<title>58</title>
<text xml:space="preserve" text-anchor="middle" x="431.38" y="-603.95" font-family="Times,serif" font-size="14.00">&lt;digits&gt;</text>
</g>
<!-- 55&#45;&gt;58 -->
<g id="edge58" class="edge">
<title>55&#45;&gt;58</title>
<path fill="none" stroke="black" d="M380.49,-653.46C389.18,-646.22 404.16,-633.77 415.62,-624.23"/>
<polygon fill="black" stroke="black" points="417.59,-627.14 423.04,-618.06 413.12,-621.76 417.59,-627.14"/>
</g>
<!-- 57 -->
<g id="node58" class="node">
<title>57</title>
<text xml:space="preserve" text-anchor="middle" x="369.38" y="-553.7" font-family="Times,serif" font-size="14.00">1 (49)</text>
</g>
<!-- 56&#45;&gt;57 -->
<g id="edge57" class="edge">
<title>56&#45;&gt;57</title>
<path fill="none" stroke="black" d="M369.38,-603.21C369.38,-596.99 369.38,-586.9 369.38,-578.14"/>
<polygon fill="black" stroke="black" points="372.88,-578.35 369.38,-568.35 365.88,-578.35 372.88,-578.35"/>
</g>
<!-- 59 -->
<g id="node60" class="node">
<title>59</title>
</g>
<!-- 58&#45;&gt;59 -->
<g id="edge59" class="edge">
<title>58&#45;&gt;59</title>
<path fill="none" stroke="black" d="M431.38,-603.21C431.38,-603.16 431.38,-603.11 431.38,-603.06"/>
<polygon fill="black" stroke="black" points="434.88,-614.41 431.38,-604.42 427.88,-614.42 434.88,-614.41"/>
</g>
</g>
</svg>