<?xml version="1.0" encoding="UTF-8" standalone="no"?>
<!DOCTYPE svg PUBLIC "-//W3C//DTD SVG 1.1//EN"
 "http://www.w3.org/Graphics/SVG/1.1/DTD/svg11.dtd">
<!-- Generated by graphviz version 13.1.2 (20250808.2320)
 -->
<!-- Pages: 1 -->
<svg width="296pt" height="223pt"
 viewBox="0.00 0.00 296.00 223.00" xmlns="http://www.w3.org/2000/svg" xmlns:xlink="http://www.w3.org/1999/xlink">
<g id="graph0" class="graph" transform="scale(1 1) rotate(0) translate(4 219.25)">
<polygon fill="white" stroke="none" points="-4,4 -4,-219.25 292.25,-219.25 292.25,4 -4,4"/>
<!-- 0 -->
<g id="node1" class="node">
<title>0</title>
<text xml:space="preserve" text-anchor="middle" x="197" y="-201.95" font-family="Times,serif" font-size="14.00">&lt;start&gt;</text>
</g>
<!-- 1 -->
<g id="node2" class="node">
<title>1</title>
<text xml:space="preserve" text-anchor="middle" x="197" y="-151.7" font-family="Times,serif" font-size="14.00">&lt;expr&gt;</text>
</g>
<!-- 0&#45;&gt;1 -->
<g id="edge1" class="edge">
<title>0&#45;&gt;1</title>
<path fill="none" stroke="black" d="M197,-201.21C197,-194.99 197,-184.9 197,-176.14"/>
<polygon fill="black" stroke="black" points="200.5,-176.35 197,-166.35 193.5,-176.35 200.5,-176.35"/>
</g>
<!-- 2 -->
<g id="node3" class="node">
<title>2</title>
<text xml:space="preserve" text-anchor="middle" x="151" y="-101.45" font-family="Times,serif" font-size="14.00">&lt;expr&gt;</text>
</g>
<!-- 1&#45;&gt;2 -->
<g id="edge2" class="edge">
<title>1&#45;&gt;2</title>
<path fill="none" stroke="black" d="M191.36,-150.96C184.74,-144.01 173.53,-132.25 164.6,-122.89"/>
<polygon fill="black" stroke="black" points="167.16,-120.51 157.73,-115.69 162.1,-125.34 167.16,-120.51"/>
</g>
<!-- 12 -->
<g id="node13" class="node">
<title>12</title>
<text xml:space="preserve" text-anchor="middle" x="197" y="-101.45" font-family="Times,serif" font-size="14.00"> + </text>
</g>
<!-- 1&#45;&gt;12 -->
<g id="edge12" class="edge">
<title>1&#45;&gt;12</title>
<path fill="none" stroke="black" d="M197,-150.96C197,-144.74 197,-134.65 197,-125.89"/>
<polygon fill="black" stroke="black" points="200.5,-126.1 197,-116.1 193.5,-126.1 200.5,-126.1"/>
</g>
<!-- 13 -->
<g id="node14" class="node">
<title>13</title>
<text xml:space="preserve" text-anchor="middle" x="244" y="-101.45" font-family="Times,serif" font-size="14.00">&lt;term&gt;</text>
</g>
<!-- 1&#45;&gt;13 -->
<g id="edge13" class="edge">
<title>1&#45;&gt;13</title>
<path fill="none" stroke="black" d="M202.76,-150.96C209.6,-143.94 221.22,-132.01 230.39,-122.6"/>
<polygon fill="black" stroke="black" points="232.66,-125.28 237.13,-115.67 227.65,-120.4 232.66,-125.28"/>
</g>
<!-- 3 -->
<g id="node4" class="node">
<title>3</title>
<text xml:space="preserve" text-anchor="middle" x="98" y="-51.2" font-family="Times,serif" font-size="14.00">&lt;term&gt;</text>
</g>
<!-- 2&#45;&gt;3 -->
<g id="edge3" class="edge">
<title>2&#45;&gt;3</title>
<path fill="none" stroke="black" d="M144.5,-100.71C136.71,-93.62 123.41,-81.51 113.03,-72.06"/>
<polygon fill="black" stroke="black" points="115.42,-69.5 105.67,-65.36 110.71,-74.68 115.42,-69.5"/>
</g>
<!-- 7 -->
<g id="node8" class="node">
<title>7</title>
<text xml:space="preserve" text-anchor="middle" x="151" y="-51.2" font-family="Times,serif" font-size="14.00"> &#45; </text>
</g>
<!-- 2&#45;&gt;7 -->
<g id="edge7" class="edge">
<title>2&#45;&gt;7</title>
<path fill="none" stroke="black" d="M151,-100.71C151,-94.49 151,-84.4 151,-75.64"/>
<polygon fill="black" stroke="black" points="154.5,-75.85 151,-65.85 147.5,-75.85 154.5,-75.85"/>
</g>
<!-- 8 -->
<g id="node9" class="node">
<title>8</title>
<text xml:space="preserve" text-anchor="middle" x="199" y="-51.2" font-family="Times,serif" font-size="14.00">&lt;expr&gt;</text>
</g>
<!-- 2&#45;&gt;8 -->
<g id="edge8" class="edge">
<title>2&#45;&gt;8</title>
<path fill="none" stroke="black" d="M156.89,-100.71C163.87,-93.69 175.74,-81.76 185.1,-72.35"/>
<polygon fill="black" stroke="black" points="187.43,-74.97 192,-65.41 182.46,-70.03 187.43,-74.97"/>
</g>
<!-- 4 -->
<g id="node5" class="node">
<title>4</title>
<text xml:space="preserve" text-anchor="middle" x="24" y="-0.95" font-family="Times,serif" font-size="14.00">&lt;factor&gt;</text>
</g>
<!-- 3&#45;&gt;4 -->
<g id="edge4" class="edge">
<title>3&#45;&gt;4</title>
<path fill="none" stroke="black" d="M88.63,-50.26C77.11,-42.75 57.3,-29.84 42.64,-20.28"/>
<polygon fill="black" stroke="black" points="44.62,-17.39 34.33,-14.86 40.8,-23.26 44.62,-17.39"/>
</g>
<!-- 5 -->
<g id="node6" class="node">
<title>5</title>
<text xml:space="preserve" text-anchor="middle" x="73" y="-0.95" font-family="Times,serif" font-size="14.00"> * </text>
</g>
<!-- 3&#45;&gt;5 -->
<g id="edge5" class="edge">
<title>3&#45;&gt;5</title>
<path fill="none" stroke="black" d="M94.93,-50.46C91.56,-43.95 85.99,-33.21 81.31,-24.17"/>
<polygon fill="black" stroke="black" points="84.5,-22.7 76.79,-15.43 78.28,-25.92 84.5,-22.7"/>
</g>
<!-- 6 -->
<g id="node7" class="node">
<title>6</title>
<text xml:space="preserve" text-anchor="middle" x="119" y="-0.95" font-family="Times,serif" font-size="14.00">&lt;term&gt;</text>
</g>
<!-- 3&#45;&gt;6 -->
<g id="edge6" class="edge">
<title>3&#45;&gt;6</title>
<path fill="none" stroke="black" d="M100.58,-50.46C103.38,-44.02 107.98,-33.44 111.88,-24.47"/>
<polygon fill="black" stroke="black" points="115.02,-26.04 115.8,-15.48 108.6,-23.25 115.02,-26.04"/>
</g>
<!-- 9 -->
<g id="node10" class="node">
<title>9</title>
<text xml:space="preserve" text-anchor="middle" x="179" y="-0.95" font-family="Times,serif" font-size="14.00">&lt;term&gt;</text>
</g>
<!-- 8&#45;&gt;9 -->
<g id="edge9" class="edge">
<title>8&#45;&gt;9</title>
<path fill="none" stroke="black" d="M196.55,-50.46C193.88,-44.02 189.49,-33.44 185.78,-24.47"/>
<polygon fill="black" stroke="black" points="189.11,-23.39 182.05,-15.49 182.65,-26.07 189.11,-23.39"/>
</g>
<!-- 10 -->
<g id="node11" class="node">
<title>10</title>
<text xml:space="preserve" text-anchor="middle" x="224" y="-0.95" font-family="Times,serif" font-size="14.00"> &#45; </text>
</g>
<!-- 8&#45;&gt;10 -->
<g id="edge10" class="edge">
<title>8&#45;&gt;10</title>
<path fill="none" stroke="black" d="M202.07,-50.46C205.44,-43.95 211.01,-33.21 215.69,-24.17"/>
<polygon fill="black" stroke="black" points="218.72,-25.92 220.21,-15.43 212.5,-22.7 218.72,-25.92"/>
</g>
<!-- 11 -->
<g id="node12" class="node">
<title>11</title>
<text xml:space="preserve" text-anchor="middle" x="268" y="-0.95" font-family="Times,serif" font-size="14.00">&lt;expr&gt;</text>
</g>
<!-- 8&#45;&gt;11 -->
<g id="edge11" class="edge">
<title>8&#45;&gt;11</title>
<path fill="none" stroke="black" d="M207.74,-50.26C218.37,-42.83 236.59,-30.09 250.22,-20.56"/>
<polygon fill="black" stroke="black" points="252.12,-23.5 258.31,-14.9 248.11,-17.77 252.12,-23.5"/>
</g>
</g>
</svg>