<?xml version="1.0" encoding="UTF-8" standalone="no"?>
<!DOCTYPE svg PUBLIC "-//W3C//DTD SVG 1.1//EN"
 "http://www.w3.org/Graphics/SVG/1.1/DTD/svg11.dtd">
<!-- Generated by graphviz version 13.1.2 (20250808.2320)
 -->
<!-- Pages: 1 -->
<svg width="417pt" height="475pt"
 viewBox="0.00 0.00 417.00 475.00" xmlns="http://www.w3.org/2000/svg" xmlns:xlink="http://www.w3.org/1999/xlink">
<g id="graph0" class="graph" transform="scale(1 1) rotate(0) translate(4 470.5)">
<polygon fill="white" stroke="none" points="-4,4 -4,-470.5 413.38,-470.5 413.38,4 -4,4"/>
<!-- 0 -->
<g id="node1" class="node">
<title>0</title>
<text xml:space="preserve" text-anchor="middle" x="243" y="-453.2" font-family="Times,serif" font-size="14.00">&lt;start&gt;</text>
</g>
<!-- 1 -->
<g id="node2" class="node">
<title>1</title>
<text xml:space="preserve" text-anchor="middle" x="243" y="-402.95" font-family="Times,serif" font-size="14.00">&lt;expr&gt;</text>
</g>
<!-- 0&#45;&gt;1 -->
<g id="edge1" class="edge">
<title>0&#45;&gt;1</title>
<path fill="none" stroke="black" d="M243,-452.46C243,-446.24 243,-436.15 243,-427.39"/>
<polygon fill="black" stroke="black" points="246.5,-427.6 243,-417.6 239.5,-427.6 246.5,-427.6"/>
</g>
<!-- 2 -->
<g id="node3" class="node">
<title>2</title>
<text xml:space="preserve" text-anchor="middle" x="193" y="-352.7" font-family="Times,serif" font-size="14.00">&lt;expr&gt;</text>
</g>
<!-- 1&#45;&gt;2 -->
<g id="edge2" class="edge">
<title>1&#45;&gt;2</title>
<path fill="none" stroke="black" d="M236.87,-402.21C229.52,-395.12 216.98,-383.01 207.18,-373.56"/>
<polygon fill="black" stroke="black" points="209.9,-371.32 200.27,-366.89 205.04,-376.35 209.9,-371.32"/>
</g>
<!-- 27 -->
<g id="node28" class="node">
<title>27</title>
<text xml:space="preserve" text-anchor="middle" x="243" y="-352.7" font-family="Times,serif" font-size="14.00"> + </text>
</g>
<!-- 1&#45;&gt;27 -->
<g id="edge27" class="edge">
<title>1&#45;&gt;27</title>
<path fill="none" stroke="black" d="M243,-402.21C243,-395.99 243,-385.9 243,-377.14"/>
<polygon fill="black" stroke="black" points="246.5,-377.35 243,-367.35 239.5,-377.35 246.5,-377.35"/>
</g>
<!-- 28 -->
<g id="node29" class="node">
<title>28</title>
<text xml:space="preserve" text-anchor="middle" x="292" y="-352.7" font-family="Times,serif" font-size="14.00">&lt;term&gt;</text>
</g>
<!-- 1&#45;&gt;28 -->
<g id="edge28" class="edge">
<title>1&#45;&gt;28</title>
<path fill="none" stroke="black" d="M249.01,-402.21C256.14,-395.19 268.25,-383.26 277.81,-373.85"/>
<polygon fill="black" stroke="black" points="280.19,-376.41 284.86,-366.9 275.28,-371.42 280.19,-376.41"/>
</g>
<!-- 3 -->
<g id="node4" class="node">
<title>3</title>
<text xml:space="preserve" text-anchor="middle" x="129" y="-302.45" font-family="Times,serif" font-size="14.00">&lt;term&gt;</text>
</g>
<!-- 2&#45;&gt;3 -->
<g id="edge3" class="edge">
<title>2&#45;&gt;3</title>
<path fill="none" stroke="black" d="M184.89,-351.76C175.13,-344.4 158.46,-331.84 145.86,-322.34"/>
<polygon fill="black" stroke="black" points="148.14,-319.67 138.05,-316.45 143.93,-325.26 148.14,-319.67"/>
</g>
<!-- 20 -->
<g id="node21" class="node">
<title>20</title>
<text xml:space="preserve" text-anchor="middle" x="186" y="-302.45" font-family="Times,serif" font-size="14.00"> + </text>
</g>
<!-- 2&#45;&gt;20 -->
<g id="edge20" class="edge">
<title>2&#45;&gt;20</title>
<path fill="none" stroke="black" d="M192.14,-351.96C191.24,-345.74 189.78,-335.65 188.5,-326.89"/>
<polygon fill="black" stroke="black" points="191.98,-326.48 187.08,-317.09 185.05,-327.49 191.98,-326.48"/>
</g>
<!-- 21 -->
<g id="node22" class="node">
<title>21</title>
<text xml:space="preserve" text-anchor="middle" x="232" y="-302.45" font-family="Times,serif" font-size="14.00">&lt;expr&gt;</text>
</g>
<!-- 2&#45;&gt;21 -->
<g id="edge21" class="edge">
<title>2&#45;&gt;21</title>
<path fill="none" stroke="black" d="M197.78,-351.96C203.28,-345.16 212.51,-333.74 219.99,-324.48"/>
<polygon fill="black" stroke="black" points="222.66,-326.74 226.23,-316.77 217.22,-322.34 222.66,-326.74"/>
</g>
<!-- 4 -->
<g id="node5" class="node">
<title>4</title>
<text xml:space="preserve" text-anchor="middle" x="39" y="-252.2" font-family="Times,serif" font-size="14.00">&lt;factor&gt;</text>
</g>
<!-- 3&#45;&gt;4 -->
<g id="edge4" class="edge">
<title>3&#45;&gt;4</title>
<path fill="none" stroke="black" d="M117.6,-301.51C103.27,-293.83 78.36,-280.47 60.42,-270.86"/>
<polygon fill="black" stroke="black" points="62.11,-267.79 51.64,-266.15 58.8,-273.96 62.11,-267.79"/>
</g>
<!-- 8 -->
<g id="node9" class="node">
<title>8</title>
<text xml:space="preserve" text-anchor="middle" x="99" y="-252.2" font-family="Times,serif" font-size="14.00"> / </text>
</g>
<!-- 3&#45;&gt;8 -->
<g id="edge8" class="edge">
<title>3&#45;&gt;8</title>
<path fill="none" stroke="black" d="M125.32,-301.71C121.18,-295.05 114.3,-283.98 108.6,-274.82"/>
<polygon fill="black" stroke="black" points="111.76,-273.27 103.51,-266.63 105.82,-276.97 111.76,-273.27"/>
</g>
<!-- 9 -->
<g id="node10" class="node">
<title>9</title>
<text xml:space="preserve" text-anchor="middle" x="144" y="-252.2" font-family="Times,serif" font-size="14.00">&lt;term&gt;</text>
</g>
<!-- 3&#45;&gt;9 -->
<g id="edge9" class="edge">
<title>3&#45;&gt;9</title>
<path fill="none" stroke="black" d="M130.84,-301.71C132.8,-295.41 135.98,-285.17 138.73,-276.33"/>
<polygon fill="black" stroke="black" points="142.07,-277.37 141.7,-266.79 135.39,-275.3 142.07,-277.37"/>
</g>
<!-- 5 -->
<g id="node6" class="node">
<title>5</title>
<text xml:space="preserve" text-anchor="middle" x="27" y="-201.95" font-family="Times,serif" font-size="14.00">&lt;integer&gt;</text>
</g>
<!-- 4&#45;&gt;5 -->
<g id="edge5" class="edge">
<title>4&#45;&gt;5</title>
<path fill="none" stroke="black" d="M37.53,-251.46C35.96,-245.16 33.41,-234.92 31.22,-226.08"/>
<polygon fill="black" stroke="black" points="34.66,-225.42 28.85,-216.56 27.87,-227.11 34.66,-225.42"/>
</g>
<!-- 6 -->
<g id="node7" class="node">
<title>6</title>
<text xml:space="preserve" text-anchor="middle" x="27" y="-151.7" font-family="Times,serif" font-size="14.00">&lt;digit&gt;</text>
</g>
<!-- 5&#45;&gt;6 -->
<g id="edge6" class="edge">
<title>5&#45;&gt;6</title>
<path fill="none" stroke="black" d="M27,-201.21C27,-194.99 27,-184.9 27,-176.14"/>
<polygon fill="black" stroke="black" points="30.5,-176.35 27,-166.35 23.5,-176.35 30.5,-176.35"/>
</g>
<!-- 7 -->
<g id="node8" class="node">
<title>7</title>
<text xml:space="preserve" text-anchor="middle" x="27" y="-101.45" font-family="Times,serif" font-size="14.00">1 (49)</text>
</g>
<!-- 6&#45;&gt;7 -->
<g id="edge7" class="edge">
<title>6&#45;&gt;7</title>
<path fill="none" stroke="black" d="M27,-150.96C27,-144.74 27,-134.65 27,-125.89"/>
<polygon fill="black" stroke="black" points="30.5,-126.1 27,-116.1 23.5,-126.1 30.5,-126.1"/>
</g>
<!-- 10 -->
<g id="node11" class="node">
<title>10</title>
<text xml:space="preserve" text-anchor="middle" x="96" y="-201.95" font-family="Times,serif" font-size="14.00">&lt;factor&gt;</text>
</g>
<!-- 9&#45;&gt;10 -->
<g id="edge10" class="edge">
<title>9&#45;&gt;10</title>
<path fill="none" stroke="black" d="M138.11,-251.46C131.13,-244.44 119.26,-232.51 109.9,-223.1"/>
<polygon fill="black" stroke="black" points="112.54,-220.78 103,-216.16 107.57,-225.72 112.54,-220.78"/>
</g>
<!-- 14 -->
<g id="node15" class="node">
<title>14</title>
<text xml:space="preserve" text-anchor="middle" x="144" y="-201.95" font-family="Times,serif" font-size="14.00"> / </text>
</g>
<!-- 9&#45;&gt;14 -->
<g id="edge14" class="edge">
<title>9&#45;&gt;14</title>
<path fill="none" stroke="black" d="M144,-251.46C144,-245.24 144,-235.15 144,-226.39"/>
<polygon fill="black" stroke="black" points="147.5,-226.6 144,-216.6 140.5,-226.6 147.5,-226.6"/>
</g>
<!-- 15 -->
<g id="node16" class="node">
<title>15</title>
<text xml:space="preserve" text-anchor="middle" x="189" y="-201.95" font-family="Times,serif" font-size="14.00">&lt;term&gt;</text>
</g>
<!-- 9&#45;&gt;15 -->
<g id="edge15" class="edge">
<title>9&#45;&gt;15</title>
<path fill="none" stroke="black" d="M149.52,-251.46C156,-244.51 166.96,-232.75 175.7,-223.39"/>
<polygon fill="black" stroke="black" points="178.14,-225.9 182.4,-216.2 173.02,-221.12 178.14,-225.9"/>
</g>
<!-- 11 -->
<g id="node12" class="node">
<title>11</title>
<text xml:space="preserve" text-anchor="middle" x="96" y="-151.7" font-family="Times,serif" font-size="14.00">&lt;integer&gt;</text>
</g>
<!-- 10&#45;&gt;11 -->
<g id="edge11" class="edge">
<title>10&#45;&gt;11</title>
<path fill="none" stroke="black" d="M96,-201.21C96,-194.99 96,-184.9 96,-176.14"/>
<polygon fill="black" stroke="black" points="99.5,-176.35 96,-166.35 92.5,-176.35 99.5,-176.35"/>
</g>
<!-- 12 -->
<g id="node13" class="node">
<title>12</title>
<text xml:space="preserve" text-anchor="middle" x="96" y="-101.45" font-family="Times,serif" font-size="14.00">&lt;digit&gt;</text>
</g>
<!-- 11&#45;&gt;12 -->
<g id="edge12" class="edge">
<title>11&#45;&gt;12</title>
<path fill="none" stroke="black" d="M96,-150.96C96,-144.74 96,-134.65 96,-125.89"/>
<polygon fill="black" stroke="black" points="99.5,-126.1 96,-116.1 92.5,-126.1 99.5,-126.1"/>
</g>
<!-- 13 -->
<g id="node14" class="node">
<title>13</title>
<text xml:space="preserve" text-anchor="middle" x="96" y="-51.2" font-family="Times,serif" font-size="14.00">6 (54)</text>
</g>
<!-- 12&#45;&gt;13 -->
<g id="edge13" class="edge">
<title>12&#45;&gt;13</title>
<path fill="none" stroke="black" d="M96,-100.71C96,-94.49 96,-84.4 96,-75.64"/>
<polygon fill="black" stroke="black" points="99.5,-75.85 96,-65.85 92.5,-75.85 99.5,-75.85"/>
</g>
<!-- 16 -->
<g id="node17" class="node">
<title>16</title>
<text xml:space="preserve" text-anchor="middle" x="187" y="-151.7" font-family="Times,serif" font-size="14.00">&lt;factor&gt;</text>
</g>
<!-- 15&#45;&gt;16 -->
<g id="edge16" class="edge">
<title>15&#45;&gt;16</title>
<path fill="none" stroke="black" d="M188.75,-201.21C188.5,-194.99 188.08,-184.9 187.72,-176.14"/>
<polygon fill="black" stroke="black" points="191.22,-176.2 187.31,-166.35 184.23,-176.49 191.22,-176.2"/>
</g>
<!-- 17 -->
<g id="node18" class="node">
<title>17</title>
<text xml:space="preserve" text-anchor="middle" x="187" y="-101.45" font-family="Times,serif" font-size="14.00">&lt;integer&gt;</text>
</g>
<!-- 16&#45;&gt;17 -->
<g id="edge17" class="edge">
<title>16&#45;&gt;17</title>
<path fill="none" stroke="black" d="M187,-150.96C187,-144.74 187,-134.65 187,-125.89"/>
<polygon fill="black" stroke="black" points="190.5,-126.1 187,-116.1 183.5,-126.1 190.5,-126.1"/>
</g>
<!-- 18 -->
<g id="node19" class="node">
<title>18</title>
<text xml:space="preserve" text-anchor="middle" x="187" y="-51.2" font-family="Times,serif" font-size="14.00">&lt;digit&gt;</text>
</g>
<!-- 17&#45;&gt;18 -->
<g id="edge18" class="edge">
<title>17&#45;&gt;18</title>
<path fill="none" stroke="black" d="M187,-100.71C187,-94.49 187,-84.4 187,-75.64"/>
<polygon fill="black" stroke="black" points="190.5,-75.85 187,-65.85 183.5,-75.85 190.5,-75.85"/>
</g>
<!-- 19 -->
<g id="node20" class="node">
<title>19</title>
<text xml:space="preserve" text-anchor="middle" x="187" y="-0.95" font-family="Times,serif" font-size="14.00">1 (49)</text>
</g>
<!-- 18&#45;&gt;19 -->
<g id="edge19" class="edge">
<title>18&#45;&gt;19</title>
<path fill="none" stroke="black" d="M187,-50.46C187,-44.24 187,-34.15 187,-25.39"/>
<polygon fill="black" stroke="black" points="190.5,-25.6 187,-15.6 183.5,-25.6 190.5,-25.6"/>
</g>
<!-- 22 -->
<g id="node23" class="node">
<title>22</title>
<text xml:space="preserve" text-anchor="middle" x="232" y="-252.2" font-family="Times,serif" font-size="14.00">&lt;term&gt;</text>
</g>
<!-- 21&#45;&gt;22 -->
<g id="edge22" class="edge">
<title>21&#45;&gt;22</title>
<path fill="none" stroke="black" d="M232,-301.71C232,-295.49 232,-285.4 232,-276.64"/>
<polygon fill="black" stroke="black" points="235.5,-276.85 232,-266.85 228.5,-276.85 235.5,-276.85"/>
</g>
<!-- 23 -->
<g id="node24" class="node">
<title>23</title>
<text xml:space="preserve" text-anchor="middle" x="255" y="-201.95" font-family="Times,serif" font-size="14.00">&lt;factor&gt;</text>
</g>
<!-- 22&#45;&gt;23 -->
<g id="edge23" class="edge">
<title>22&#45;&gt;23</title>
<path fill="none" stroke="black" d="M234.82,-251.46C237.89,-245.02 242.93,-234.44 247.21,-225.47"/>
<polygon fill="black" stroke="black" points="250.36,-226.99 251.51,-216.46 244.04,-223.98 250.36,-226.99"/>
</g>
<!-- 24 -->
<g id="node25" class="node">
<title>24</title>
<text xml:space="preserve" text-anchor="middle" x="256" y="-151.7" font-family="Times,serif" font-size="14.00">&lt;integer&gt;</text>
</g>
<!-- 23&#45;&gt;24 -->
<g id="edge24" class="edge">
<title>23&#45;&gt;24</title>
<path fill="none" stroke="black" d="M255.12,-201.21C255.25,-194.99 255.46,-184.9 255.64,-176.14"/>
<polygon fill="black" stroke="black" points="259.14,-176.42 255.85,-166.35 252.14,-176.28 259.14,-176.42"/>
</g>
<!-- 25 -->
<g id="node26" class="node">
<title>25</title>
<text xml:space="preserve" text-anchor="middle" x="256" y="-101.45" font-family="Times,serif" font-size="14.00">&lt;digit&gt;</text>
</g>
<!-- 24&#45;&gt;25 -->
<g id="edge25" class="edge">
<title>24&#45;&gt;25</title>
<path fill="none" stroke="black" d="M256,-150.96C256,-144.74 256,-134.65 256,-125.89"/>
<polygon fill="black" stroke="black" points="259.5,-126.1 256,-116.1 252.5,-126.1 259.5,-126.1"/>
</g>
<!-- 26 -->
<g id="node27" class="node">
<title>26</title>
<text xml:space="preserve" text-anchor="middle" x="256" y="-51.2" font-family="Times,serif" font-size="14.00">7 (55)</text>
</g>
<!-- 25&#45;&gt;26 -->
<g id="edge26" class="edge">
<title>25&#45;&gt;26</title>
<path fill="none" stroke="black" d="M256,-100.71C256,-94.49 256,-84.4 256,-75.64"/>
<polygon fill="black" stroke="black" points="259.5,-75.85 256,-65.85 252.5,-75.85 259.5,-75.85"/>
</g>
<!-- 29 -->
<g id="node30" class="node">
<title>29</title>
<text xml:space="preserve" text-anchor="middle" x="317" y="-302.45" font-family="Times,serif" font-size="14.00">&lt;factor&gt;</text>
</g>
<!-- 28&#45;&gt;29 -->
<g id="edge29" class="edge">
<title>28&#45;&gt;29</title>
<path fill="none" stroke="black" d="M295.07,-351.96C298.44,-345.45 304.01,-334.71 308.69,-325.67"/>
<polygon fill="black" stroke="black" points="311.72,-327.42 313.21,-316.93 305.5,-324.2 311.72,-327.42"/>
</g>
<!-- 30 -->
<g id="node31" class="node">
<title>30</title>
<text xml:space="preserve" text-anchor="middle" x="286" y="-252.2" font-family="Times,serif" font-size="14.00">( (40)</text>
</g>
<!-- 29&#45;&gt;30 -->
<g id="edge30" class="edge">
<title>29&#45;&gt;30</title>
<path fill="none" stroke="black" d="M313.2,-301.71C308.92,-295.05 301.81,-283.98 295.92,-274.82"/>
<polygon fill="black" stroke="black" points="299,-273.13 290.65,-266.61 293.11,-276.92 299,-273.13"/>
</g>
<!-- 31 -->
<g id="node32" class="node">
<title>31</title>
<text xml:space="preserve" text-anchor="middle" x="340" y="-252.2" font-family="Times,serif" font-size="14.00">&lt;expr&gt;</text>
</g>
<!-- 29&#45;&gt;31 -->
<g id="edge31" class="edge">
<title>29&#45;&gt;31</title>
<path fill="none" stroke="black" d="M319.82,-301.71C322.89,-295.27 327.93,-284.69 332.21,-275.72"/>
<polygon fill="black" stroke="black" points="335.36,-277.24 336.51,-266.71 329.04,-274.23 335.36,-277.24"/>
</g>
<!-- 37 -->
<g id="node38" class="node">
<title>37</title>
<text xml:space="preserve" text-anchor="middle" x="394" y="-252.2" font-family="Times,serif" font-size="14.00">) (41)</text>
</g>
<!-- 29&#45;&gt;37 -->
<g id="edge37" class="edge">
<title>29&#45;&gt;37</title>
<path fill="none" stroke="black" d="M326.75,-301.51C338.85,-293.93 359.75,-280.83 375.05,-271.25"/>
<polygon fill="black" stroke="black" points="376.67,-274.36 383.29,-266.09 372.95,-268.43 376.67,-274.36"/>
</g>
<!-- 32 -->
<g id="node33" class="node">
<title>32</title>
<text xml:space="preserve" text-anchor="middle" x="340" y="-201.95" font-family="Times,serif" font-size="14.00">&lt;term&gt;</text>
</g>
<!-- 31&#45;&gt;32 -->
<g id="edge32" class="edge">
<title>31&#45;&gt;32</title>
<path fill="none" stroke="black" d="M340,-251.46C340,-245.24 340,-235.15 340,-226.39"/>
<polygon fill="black" stroke="black" points="343.5,-226.6 340,-216.6 336.5,-226.6 343.5,-226.6"/>
</g>
<!-- 33 -->
<g id="node34" class="node">
<title>33</title>
<text xml:space="preserve" text-anchor="middle" x="340" y="-151.7" font-family="Times,serif" font-size="14.00">&lt;factor&gt;</text>
</g>
<!-- 32&#45;&gt;33 -->
<g id="edge33" class="edge">
<title>32&#45;&gt;33</title>
<path fill="none" stroke="black" d="M340,-201.21C340,-194.99 340,-184.9 340,-176.14"/>
<polygon fill="black" stroke="black" points="343.5,-176.35 340,-166.35 336.5,-176.35 343.5,-176.35"/>
</g>
<!-- 34 -->
<g id="node35" class="node">
<title>34</title>
<text xml:space="preserve" text-anchor="middle" x="340" y="-101.45" font-family="Times,serif" font-size="14.00">&lt;integer&gt;</text>
</g>
<!-- 33&#45;&gt;34 -->
<g id="edge34" class="edge">
<title>33&#45;&gt;34</title>
<path fill="none" stroke="black" d="M340,-150.96C340,-144.74 340,-134.65 340,-125.89"/>
<polygon fill="black" stroke="black" points="343.5,-126.1 340,-116.1 336.5,-126.1 343.5,-126.1"/>
</g>
<!-- 35 -->
<g id="node36" class="node">
<title>35</title>
<text xml:space="preserve" text-anchor="middle" x="340" y="-51.2" font-family="Times,serif" font-size="14.00">&lt;digit&gt;</text>
</g>
<!-- 34&#45;&gt;35 -->
<g id="edge35" class="edge">
<title>34&#45;&gt;35</title>
<path fill="none" stroke="black" d="M340,-100.71C340,-94.49 340,-84.4 340,-75.64"/>
<polygon fill="black" stroke="black" points="343.5,-75.85 340,-65.85 336.5,-75.85 343.5,-75.85"/>
</g>
<!-- 36 -->
<g id="node37" class="node">
<title>36</title>
<text xml:space="preserve" text-anchor="middle" x="340" y="-0.95" font-family="Times,serif" font-size="14.00">8 (56)</text>
</g>
<!-- 35&#45;&gt;36 -->
<g id="edge36" class="edge">
<title>35&#45;&gt;36</title>
<path fill="none" stroke="black" d="M340,-50.46C340,-44.24 340,-34.15 340,-25.39"/>
<polygon fill="black" stroke="black" points="343.5,-25.6 340,-15.6 336.5,-25.6 343.5,-25.6"/>
</g>
</g>
</svg>