<?xml version="1.0" encoding="UTF-8" standalone="no"?>
<!DOCTYPE svg PUBLIC "-//W3C//DTD SVG 1.1//EN"
 "http://www.w3.org/Graphics/SVG/1.1/DTD/svg11.dtd">
<!-- Generated by graphviz version 13.1.2 (20250808.2320)
 -->
<!-- Pages: 1 -->
<svg width="211pt" height="223pt"
 viewBox="0.00 0.00 211.00 223.00" xmlns="http://www.w3.org/2000/svg" xmlns:xlink="http://www.w3.org/1999/xlink">
<g id="graph0" class="graph" transform="scale(1 1) rotate(0) translate(4 219.25)">
<polygon fill="white" stroke="none" points="-4,4 -4,-219.25 207,-219.25 207,4 -4,4"/>
<!-- 0 -->
<g id="node1" class="node">
<title>0</title>
<text xml:space="preserve" text-anchor="middle" x="128" y="-201.95" font-family="Times,serif" font-size="14.00">&lt;start&gt;</text>
</g>
<!-- 1 -->
<g id="node2" class="node">
<title>1</title>
<text xml:space="preserve" text-anchor="middle" x="128" y="-151.7" font-family="Times,serif" font-size="14.00">&lt;expr&gt;</text>
</g>
<!-- 0&#45;&gt;1 -->
<g id="edge1" class="edge">
<title>0&#45;&gt;1</title>
<path fill="none" stroke="black" d="M128,-201.21C128,-194.99 128,-184.9 128,-176.14"/>
<polygon fill="black" stroke="black" points="131.5,-176.35 128,-166.35 124.5,-176.35 131.5,-176.35"/>
</g>
<!-- 2 -->
<g id="node3" class="node">
<title>2</title>
<text xml:space="preserve" text-anchor="middle" x="78" y="-101.45" font-family="Times,serif" font-size="14.00">&lt;expr&gt;</text>
</g>
<!-- 1&#45;&gt;2 -->
<g id="edge2" class="edge">
<title>1&#45;&gt;2</title>
<path fill="none" stroke="black" d="M121.87,-150.96C114.52,-143.87 101.98,-131.76 92.18,-122.31"/>
<polygon fill="black" stroke="black" points="94.9,-120.07 85.27,-115.64 90.04,-125.1 94.9,-120.07"/>
</g>
<!-- 7 -->
<g id="node8" class="node">
<title>7</title>
<text xml:space="preserve" text-anchor="middle" x="128" y="-101.45" font-family="Times,serif" font-size="14.00"> + </text>
</g>
<!-- 1&#45;&gt;7 -->
<g id="edge7" class="edge">
<title>1&#45;&gt;7</title>
<path fill="none" stroke="black" d="M128,-150.96C128,-144.74 128,-134.65 128,-125.89"/>
<polygon fill="black" stroke="black" points="131.5,-126.1 128,-116.1 124.5,-126.1 131.5,-126.1"/>
</g>
<!-- 8 -->
<g id="node9" class="node">
<title>8</title>
<text xml:space="preserve" text-anchor="middle" x="177" y="-101.45" font-family="Times,serif" font-size="14.00">&lt;term&gt;</text>
</g>
<!-- 1&#45;&gt;8 -->
<g id="edge8" class="edge">
<title>1&#45;&gt;8</title>
<path fill="none" stroke="black" d="M134.01,-150.96C141.14,-143.94 153.25,-132.01 162.81,-122.6"/>
<polygon fill="black" stroke="black" points="165.19,-125.16 169.86,-115.65 160.28,-120.17 165.19,-125.16"/>
</g>
<!-- 3 -->
<g id="node4" class="node">
<title>3</title>
<text xml:space="preserve" text-anchor="middle" x="24" y="-51.2" font-family="Times,serif" font-size="14.00">&lt;term&gt;</text>
</g>
<!-- 2&#45;&gt;3 -->
<g id="edge3" class="edge">
<title>2&#45;&gt;3</title>
<path fill="none" stroke="black" d="M71.38,-100.71C63.36,-93.55 49.62,-81.26 38.99,-71.77"/>
<polygon fill="black" stroke="black" points="41.59,-69.4 31.8,-65.35 36.93,-74.62 41.59,-69.4"/>
</g>
<!-- 5 -->
<g id="node6" class="node">
<title>5</title>
<text xml:space="preserve" text-anchor="middle" x="71" y="-51.2" font-family="Times,serif" font-size="14.00"> + </text>
</g>
<!-- 2&#45;&gt;5 -->
<g id="edge5" class="edge">
<title>2&#45;&gt;5</title>
<path fill="none" stroke="black" d="M77.14,-100.71C76.24,-94.49 74.78,-84.4 73.5,-75.64"/>
<polygon fill="black" stroke="black" points="76.98,-75.23 72.08,-65.84 70.05,-76.24 76.98,-75.23"/>
</g>
<!-- 6 -->
<g id="node7" class="node">
<title>6</title>
<text xml:space="preserve" text-anchor="middle" x="117" y="-51.2" font-family="Times,serif" font-size="14.00">&lt;expr&gt;</text>
</g>
<!-- 2&#45;&gt;6 -->
<g id="edge6" class="edge">
<title>2&#45;&gt;6</title>
<path fill="none" stroke="black" d="M82.78,-100.71C88.28,-93.91 97.51,-82.49 104.99,-73.23"/>
<polygon fill="black" stroke="black" points="107.66,-75.49 111.23,-65.52 102.22,-71.09 107.66,-75.49"/>
</g>
<!-- 4 -->
<g id="node5" class="node">
<title>4</title>
<text xml:space="preserve" text-anchor="middle" x="24" y="-0.95" font-family="Times,serif" font-size="14.00">&lt;factor&gt;</text>
</g>
<!-- 3&#45;&gt;4 -->
<g id="edge4" class="edge">
<title>3&#45;&gt;4</title>
<path fill="none" stroke="black" d="M24,-50.46C24,-44.24 24,-34.15 24,-25.39"/>
<polygon fill="black" stroke="black" points="27.5,-25.6 24,-15.6 20.5,-25.6 27.5,-25.6"/>
</g>
<!-- 9 -->
<g id="node10" class="node">
<title>9</title>
<text xml:space="preserve" text-anchor="middle" x="179" y="-51.2" font-family="Times,serif" font-size="14.00">&lt;factor&gt;</text>
</g>
<!-- 8&#45;&gt;9 -->
<g id="edge9" class="edge">
<title>8&#45;&gt;9</title>
<path fill="none" stroke="black" d="M177.25,-100.71C177.5,-94.49 177.92,-84.4 178.28,-75.64"/>
<polygon fill="black" stroke="black" points="181.77,-75.99 178.69,-65.85 174.78,-75.7 181.77,-75.99"/>
</g>
</g>
</svg>