<?xml version="1.0" encoding="UTF-8" standalone="no"?>
<!DOCTYPE svg PUBLIC "-//W3C//DTD SVG 1.1//EN"
 "http://www.w3.org/Graphics/SVG/1.1/DTD/svg11.dtd">
<!-- Generated by graphviz version 13.1.2 (20250808.2320)
 -->
<!-- Pages: 1 -->
<svg width="188pt" height="274pt"
 viewBox="0.00 0.00 188.00 274.00" xmlns="http://www.w3.org/2000/svg" xmlns:xlink="http://www.w3.org/1999/xlink">
<g id="graph0" class="graph" transform="scale(1 1) rotate(0) translate(4 269.5)">
<polygon fill="white" stroke="none" points="-4,4 -4,-269.5 184,-269.5 184,4 -4,4"/>
<!-- 0 -->
<g id="node1" class="node">
<title>0</title>
<text xml:space="preserve" text-anchor="middle" x="112" y="-252.2" font-family="Times,serif" font-size="14.00">&lt;start&gt;</text>
</g>
<!-- 1 -->
<g id="node2" class="node">
<title>1</title>
<text xml:space="preserve" text-anchor="middle" x="112" y="-201.95" font-family="Times,serif" font-size="14.00">&lt;expr&gt;</text>
</g>
<!-- 0&#45;&gt;1 -->
<g id="edge1" class="edge">
<title>0&#45;&gt;1</title>
<path fill="none" stroke="black" d="M112,-251.46C112,-245.24 112,-235.15 112,-226.39"/>
<polygon fill="black" stroke="black" points="115.5,-226.6 112,-216.6 108.5,-226.6 115.5,-226.6"/>
</g>
<!-- 2 -->
<g id="node3" class="node">
<title>2</title>
<text xml:space="preserve" text-anchor="middle" x="66" y="-151.7" font-family="Times,serif" font-size="14.00">&lt;expr&gt;</text>
</g>
<!-- 1&#45;&gt;2 -->
<g id="edge2" class="edge">
<title>1&#45;&gt;2</title>
<path fill="none" stroke="black" d="M106.36,-201.21C99.74,-194.26 88.53,-182.5 79.6,-173.14"/>
<polygon fill="black" stroke="black" points="82.16,-170.76 72.73,-165.94 77.1,-175.59 82.16,-170.76"/>
</g>
<!-- 10 -->
<g id="node11" class="node">
<title>10</title>
<text xml:space="preserve" text-anchor="middle" x="112" y="-151.7" font-family="Times,serif" font-size="14.00"> + </text>
</g>
<!-- 1&#45;&gt;10 -->
<g id="edge10" class="edge">
<title>1&#45;&gt;10</title>
<path fill="none" stroke="black" d="M112,-201.21C112,-194.99 112,-184.9 112,-176.14"/>
<polygon fill="black" stroke="black" points="115.5,-176.35 112,-166.35 108.5,-176.35 115.5,-176.35"/>
</g>
<!-- 11 -->
<g id="node12" class="node">
<title>11</title>
<text xml:space="preserve" text-anchor="middle" x="159" y="-151.7" font-family="Times,serif" font-size="14.00">&lt;term&gt;</text>
</g>
<!-- 1&#45;&gt;11 -->
<g id="edge11" class="edge">
<title>1&#45;&gt;11</title>
<path fill="none" stroke="black" d="M117.76,-201.21C124.6,-194.19 136.22,-182.26 145.39,-172.85"/>
<polygon fill="black" stroke="black" points="147.66,-175.53 152.13,-165.92 142.65,-170.65 147.66,-175.53"/>
</g>
<!-- 3 -->
<g id="node4" class="node">
<title>3</title>
<text xml:space="preserve" text-anchor="middle" x="21" y="-101.45" font-family="Times,serif" font-size="14.00">&lt;term&gt;</text>
</g>
<!-- 2&#45;&gt;3 -->
<g id="edge3" class="edge">
<title>2&#45;&gt;3</title>
<path fill="none" stroke="black" d="M60.48,-150.96C54,-144.01 43.04,-132.25 34.3,-122.89"/>
<polygon fill="black" stroke="black" points="36.98,-120.62 27.6,-115.7 31.86,-125.4 36.98,-120.62"/>
</g>
<!-- 4 -->
<g id="node5" class="node">
<title>4</title>
<text xml:space="preserve" text-anchor="middle" x="66" y="-101.45" font-family="Times,serif" font-size="14.00"> &#45; </text>
</g>
<!-- 2&#45;&gt;4 -->
<g id="edge4" class="edge">
<title>2&#45;&gt;4</title>
<path fill="none" stroke="black" d="M66,-150.96C66,-144.74 66,-134.65 66,-125.89"/>
<polygon fill="black" stroke="black" points="69.5,-126.1 66,-116.1 62.5,-126.1 69.5,-126.1"/>
</g>
<!-- 5 -->
<g id="node6" class="node">
<title>5</title>
<text xml:space="preserve" text-anchor="middle" x="110" y="-101.45" font-family="Times,serif" font-size="14.00">&lt;expr&gt;</text>
</g>
<!-- 2&#45;&gt;5 -->
<g id="edge5" class="edge">
<title>2&#45;&gt;5</title>
<path fill="none" stroke="black" d="M71.4,-150.96C77.73,-144.01 88.45,-132.25 96.99,-122.89"/>
<polygon fill="black" stroke="black" points="99.39,-125.46 103.54,-115.71 94.22,-120.74 99.39,-125.46"/>
</g>
<!-- 6 -->
<g id="node7" class="node">
<title>6</title>
<text xml:space="preserve" text-anchor="middle" x="65" y="-51.2" font-family="Times,serif" font-size="14.00">&lt;term&gt;</text>
</g>
<!-- 5&#45;&gt;6 -->
<g id="edge6" class="edge">
<title>5&#45;&gt;6</title>
<path fill="none" stroke="black" d="M104.48,-100.71C98,-93.76 87.04,-82 78.3,-72.64"/>
<polygon fill="black" stroke="black" points="80.98,-70.37 71.6,-65.45 75.86,-75.15 80.98,-70.37"/>
</g>
<!-- 8 -->
<g id="node9" class="node">
<title>8</title>
<text xml:space="preserve" text-anchor="middle" x="110" y="-51.2" font-family="Times,serif" font-size="14.00"> &#45; </text>
</g>
<!-- 5&#45;&gt;8 -->
<g id="edge8" class="edge">
<title>5&#45;&gt;8</title>
<path fill="none" stroke="black" d="M110,-100.71C110,-94.49 110,-84.4 110,-75.64"/>
<polygon fill="black" stroke="black" points="113.5,-75.85 110,-65.85 106.5,-75.85 113.5,-75.85"/>
</g>
<!-- 9 -->
<g id="node10" class="node">
<title>9</title>
<text xml:space="preserve" text-anchor="middle" x="154" y="-51.2" font-family="Times,serif" font-size="14.00">&lt;expr&gt;</text>
</g>
<!-- 5&#45;&gt;9 -->
<g id="edge9" class="edge">
<title>5&#45;&gt;9</title>
<path fill="none" stroke="black" d="M115.4,-100.71C121.73,-93.76 132.45,-82 140.99,-72.64"/>
<polygon fill="black" stroke="black" points="143.39,-75.21 147.54,-65.46 138.22,-70.49 143.39,-75.21"/>
</g>
<!-- 7 -->
<g id="node8" class="node">
<title>7</title>
<text xml:space="preserve" text-anchor="middle" x="65" y="-0.95" font-family="Times,serif" font-size="14.00">&lt;factor&gt;</text>
</g>
<!-- 6&#45;&gt;7 -->
<g id="edge7" class="edge">
<title>6&#45;&gt;7</title>
<path fill="none" stroke="black" d="M65,-50.46C65,-44.24 65,-34.15 65,-25.39"/>
<polygon fill="black" stroke="black" points="68.5,-25.6 65,-15.6 61.5,-25.6 68.5,-25.6"/>
</g>
</g>
</svg>