<?xml version="1.0" encoding="UTF-8" standalone="no"?>
<!DOCTYPE svg PUBLIC "-//W3C//DTD SVG 1.1//EN"
 "http://www.w3.org/Graphics/SVG/1.1/DTD/svg11.dtd">
<!-- Generated by graphviz version 13.1.2 (20250808.2320)
 -->
<!-- Pages: 1 -->
<svg width="820pt" height="525pt"
 viewBox="0.00 0.00 820.00 525.00" xmlns="http://www.w3.org/2000/svg" xmlns:xlink="http://www.w3.org/1999/xlink">
<g id="graph0" class="graph" transform="scale(1 1) rotate(0) translate(4 520.75)">
<polygon fill="white" stroke="none" points="-4,4 -4,-520.75 816.25,-520.75 816.25,4 -4,4"/>
<!-- 0 -->
<g id="node1" class="node">
<title>0</title>
<text xml:space="preserve" text-anchor="middle" x="268.25" y="-503.45" font-family="Times,serif" font-size="14.00">&lt;start&gt;</text>
</g>
<!-- 1 -->
<g id="node2" class="node">
<title>1</title>
<text xml:space="preserve" text-anchor="middle" x="268.25" y="-453.2" font-family="Times,serif" font-size="14.00">&lt;expr&gt;</text>
</g>
<!-- 0&#45;&gt;1 -->
<g id="edge1" class="edge">
<title>0&#45;&gt;1</title>
<path fill="none" stroke="black" d="M268.25,-502.71C268.25,-496.49 268.25,-486.4 268.25,-477.64"/>
<polygon fill="black" stroke="black" points="271.75,-477.85 268.25,-467.85 264.75,-477.85 271.75,-477.85"/>
</g>
<!-- 2 -->
<g id="node3" class="node">
<title>2</title>
<text xml:space="preserve" text-anchor="middle" x="169.25" y="-402.95" font-family="Times,serif" font-size="14.00">&lt;term&gt;</text>
</g>
<!-- 1&#45;&gt;2 -->
<g id="edge2" class="edge">
<title>1&#45;&gt;2</title>
<path fill="none" stroke="black" d="M255.71,-452.26C239.72,-444.47 211.77,-430.85 191.98,-421.2"/>
<polygon fill="black" stroke="black" points="193.57,-418.08 183.05,-416.85 190.5,-424.38 193.57,-418.08"/>
</g>
<!-- 25 -->
<g id="node26" class="node">
<title>25</title>
<text xml:space="preserve" text-anchor="middle" x="268.25" y="-402.95" font-family="Times,serif" font-size="14.00"> + </text>
</g>
<!-- 1&#45;&gt;25 -->
<g id="edge25" class="edge">
<title>1&#45;&gt;25</title>
<path fill="none" stroke="black" d="M268.25,-452.46C268.25,-446.24 268.25,-436.15 268.25,-427.39"/>
<polygon fill="black" stroke="black" points="271.75,-427.6 268.25,-417.6 264.75,-427.6 271.75,-427.6"/>
</g>
<!-- 26 -->
<g id="node27" class="node">
<title>26</title>
<text xml:space="preserve" text-anchor="middle" x="421.25" y="-402.95" font-family="Times,serif" font-size="14.00">&lt;expr&gt;</text>
</g>
<!-- 1&#45;&gt;26 -->
<g id="edge26" class="edge">
<title>1&#45;&gt;26</title>
<path fill="none" stroke="black" d="M287.63,-452.26C313.72,-444.03 360.42,-429.31 391.12,-419.63"/>
<polygon fill="black" stroke="black" points="392.1,-422.99 400.59,-416.64 390,-416.31 392.1,-422.99"/>
</g>
<!-- 3 -->
<g id="node4" class="node">
<title>3</title>
<text xml:space="preserve" text-anchor="middle" x="76.25" y="-352.7" font-family="Times,serif" font-size="14.00">&lt;factor&gt;</text>
</g>
<!-- 2&#45;&gt;3 -->
<g id="edge3" class="edge">
<title>2&#45;&gt;3</title>
<path fill="none" stroke="black" d="M157.47,-402.01C142.59,-394.29 116.68,-380.85 98.12,-371.22"/>
<polygon fill="black" stroke="black" points="99.76,-368.13 89.28,-366.63 96.54,-374.35 99.76,-368.13"/>
</g>
<!-- 13 -->
<g id="node14" class="node">
<title>13</title>
<text xml:space="preserve" text-anchor="middle" x="146.25" y="-352.7" font-family="Times,serif" font-size="14.00"> * </text>
</g>
<!-- 2&#45;&gt;13 -->
<g id="edge13" class="edge">
<title>2&#45;&gt;13</title>
<path fill="none" stroke="black" d="M166.43,-402.21C163.36,-395.77 158.32,-385.19 154.04,-376.22"/>
<polygon fill="black" stroke="black" points="157.21,-374.73 149.74,-367.21 150.89,-377.74 157.21,-374.73"/>
</g>
<!-- 14 -->
<g id="node15" class="node">
<title>14</title>
<text xml:space="preserve" text-anchor="middle" x="192.25" y="-352.7" font-family="Times,serif" font-size="14.00">&lt;term&gt;</text>
</g>
<!-- 2&#45;&gt;14 -->
<g id="edge14" class="edge">
<title>2&#45;&gt;14</title>
<path fill="none" stroke="black" d="M172.07,-402.21C175.14,-395.77 180.18,-385.19 184.46,-376.22"/>
<polygon fill="black" stroke="black" points="187.61,-377.74 188.76,-367.21 181.29,-374.73 187.61,-377.74"/>
</g>
<!-- 4 -->
<g id="node5" class="node">
<title>4</title>
<text xml:space="preserve" text-anchor="middle" x="17.25" y="-302.45" font-family="Times,serif" font-size="14.00">+ (43)</text>
</g>
<!-- 3&#45;&gt;4 -->
<g id="edge4" class="edge">
<title>3&#45;&gt;4</title>
<path fill="none" stroke="black" d="M69.02,-351.96C60.17,-344.72 44.94,-332.27 33.28,-322.73"/>
<polygon fill="black" stroke="black" points="35.67,-320.17 25.72,-316.55 31.24,-325.59 35.67,-320.17"/>
</g>
<!-- 5 -->
<g id="node6" class="node">
<title>5</title>
<text xml:space="preserve" text-anchor="middle" x="76.25" y="-302.45" font-family="Times,serif" font-size="14.00">&lt;factor&gt;</text>
</g>
<!-- 3&#45;&gt;5 -->
<g id="edge5" class="edge">
<title>3&#45;&gt;5</title>
<path fill="none" stroke="black" d="M76.25,-351.96C76.25,-345.74 76.25,-335.65 76.25,-326.89"/>
<polygon fill="black" stroke="black" points="79.75,-327.1 76.25,-317.1 72.75,-327.1 79.75,-327.1"/>
</g>
<!-- 6 -->
<g id="node7" class="node">
<title>6</title>
<text xml:space="preserve" text-anchor="middle" x="17.25" y="-252.2" font-family="Times,serif" font-size="14.00">+ (43)</text>
</g>
<!-- 5&#45;&gt;6 -->
<g id="edge6" class="edge">
<title>5&#45;&gt;6</title>
<path fill="none" stroke="black" d="M69.02,-301.71C60.17,-294.47 44.94,-282.02 33.28,-272.48"/>
<polygon fill="black" stroke="black" points="35.67,-269.92 25.72,-266.3 31.24,-275.34 35.67,-269.92"/>
</g>
<!-- 7 -->
<g id="node8" class="node">
<title>7</title>
<text xml:space="preserve" text-anchor="middle" x="76.25" y="-252.2" font-family="Times,serif" font-size="14.00">&lt;factor&gt;</text>
</g>
<!-- 5&#45;&gt;7 -->
<g id="edge7" class="edge">
<title>5&#45;&gt;7</title>
<path fill="none" stroke="black" d="M76.25,-301.71C76.25,-295.49 76.25,-285.4 76.25,-276.64"/>
<polygon fill="black" stroke="black" points="79.75,-276.85 76.25,-266.85 72.75,-276.85 79.75,-276.85"/>
</g>
<!-- 8 -->
<g id="node9" class="node">
<title>8</title>
<text xml:space="preserve" text-anchor="middle" x="22.25" y="-201.95" font-family="Times,serif" font-size="14.00">&#45; (45)</text>
</g>
<!-- 7&#45;&gt;8 -->
<g id="edge8" class="edge">
<title>7&#45;&gt;8</title>
<path fill="none" stroke="black" d="M69.63,-251.46C61.61,-244.3 47.87,-232.01 37.24,-222.52"/>
<polygon fill="black" stroke="black" points="39.84,-220.15 30.05,-216.1 35.18,-225.37 39.84,-220.15"/>
</g>
<!-- 9 -->
<g id="node10" class="node">
<title>9</title>
<text xml:space="preserve" text-anchor="middle" x="79.25" y="-201.95" font-family="Times,serif" font-size="14.00">&lt;factor&gt;</text>
</g>
<!-- 7&#45;&gt;9 -->
<g id="edge9" class="edge">
<title>7&#45;&gt;9</title>
<path fill="none" stroke="black" d="M76.62,-251.46C77,-245.24 77.63,-235.15 78.18,-226.39"/>
<polygon fill="black" stroke="black" points="81.66,-226.8 78.79,-216.6 74.67,-226.36 81.66,-226.8"/>
</g>
<!-- 10 -->
<g id="node11" class="node">
<title>10</title>
<text xml:space="preserve" text-anchor="middle" x="79.25" y="-151.7" font-family="Times,serif" font-size="14.00">&lt;integer&gt;</text>
</g>
<!-- 9&#45;&gt;10 -->
<g id="edge10" class="edge">
<title>9&#45;&gt;10</title>
<path fill="none" stroke="black" d="M79.25,-201.21C79.25,-194.99 79.25,-184.9 79.25,-176.14"/>
<polygon fill="black" stroke="black" points="82.75,-176.35 79.25,-166.35 75.75,-176.35 82.75,-176.35"/>
</g>
<!-- 11 -->
<g id="node12" class="node">
<title>11</title>
<text xml:space="preserve" text-anchor="middle" x="79.25" y="-101.45" font-family="Times,serif" font-size="14.00">&lt;digit&gt;</text>
</g>
<!-- 10&#45;&gt;11 -->
<g id="edge11" class="edge">
<title>10&#45;&gt;11</title>
<path fill="none" stroke="black" d="M79.25,-150.96C79.25,-144.74 79.25,-134.65 79.25,-125.89"/>
<polygon fill="black" stroke="black" points="82.75,-126.1 79.25,-116.1 75.75,-126.1 82.75,-126.1"/>
</g>
<!-- 12 -->
<g id="node13" class="node">
<title>12</title>
<text xml:space="preserve" text-anchor="middle" x="79.25" y="-51.2" font-family="Times,serif" font-size="14.00">5 (53)</text>
</g>
<!-- 11&#45;&gt;12 -->
<g id="edge12" class="edge">
<title>11&#45;&gt;12</title>
<path fill="none" stroke="black" d="M79.25,-100.71C79.25,-94.49 79.25,-84.4 79.25,-75.64"/>
<polygon fill="black" stroke="black" points="82.75,-75.85 79.25,-65.85 75.75,-75.85 82.75,-75.85"/>
</g>
<!-- 15 -->
<g id="node16" class="node">
<title>15</title>
<text xml:space="preserve" text-anchor="middle" x="143.25" y="-302.45" font-family="Times,serif" font-size="14.00">&lt;factor&gt;</text>
</g>
<!-- 14&#45;&gt;15 -->
<g id="edge15" class="edge">
<title>14&#45;&gt;15</title>
<path fill="none" stroke="black" d="M186.24,-351.96C179.11,-344.94 167,-333.01 157.44,-323.6"/>
<polygon fill="black" stroke="black" points="159.97,-321.17 150.39,-316.65 155.06,-326.16 159.97,-321.17"/>
</g>
<!-- 19 -->
<g id="node20" class="node">
<title>19</title>
<text xml:space="preserve" text-anchor="middle" x="192.25" y="-302.45" font-family="Times,serif" font-size="14.00"> * </text>
</g>
<!-- 14&#45;&gt;19 -->
<g id="edge19" class="edge">
<title>14&#45;&gt;19</title>
<path fill="none" stroke="black" d="M192.25,-351.96C192.25,-345.74 192.25,-335.65 192.25,-326.89"/>
<polygon fill="black" stroke="black" points="195.75,-327.1 192.25,-317.1 188.75,-327.1 195.75,-327.1"/>
</g>
<!-- 20 -->
<g id="node21" class="node">
<title>20</title>
<text xml:space="preserve" text-anchor="middle" x="238.25" y="-302.45" font-family="Times,serif" font-size="14.00">&lt;term&gt;</text>
</g>
<!-- 14&#45;&gt;20 -->
<g id="edge20" class="edge">
<title>14&#45;&gt;20</title>
<path fill="none" stroke="black" d="M197.89,-351.96C204.51,-345.01 215.72,-333.25 224.65,-323.89"/>
<polygon fill="black" stroke="black" points="227.15,-326.34 231.52,-316.69 222.09,-321.51 227.15,-326.34"/>
</g>
<!-- 16 -->
<g id="node17" class="node">
<title>16</title>
<text xml:space="preserve" text-anchor="middle" x="145.25" y="-252.2" font-family="Times,serif" font-size="14.00">&lt;integer&gt;</text>
</g>
<!-- 15&#45;&gt;16 -->
<g id="edge16" class="edge">
<title>15&#45;&gt;16</title>
<path fill="none" stroke="black" d="M143.5,-301.71C143.75,-295.49 144.17,-285.4 144.53,-276.64"/>
<polygon fill="black" stroke="black" points="148.02,-276.99 144.94,-266.85 141.03,-276.7 148.02,-276.99"/>
</g>
<!-- 17 -->
<g id="node18" class="node">
<title>17</title>
<text xml:space="preserve" text-anchor="middle" x="145.25" y="-201.95" font-family="Times,serif" font-size="14.00">&lt;digit&gt;</text>
</g>
<!-- 16&#45;&gt;17 -->
<g id="edge17" class="edge">
<title>16&#45;&gt;17</title>
<path fill="none" stroke="black" d="M145.25,-251.46C145.25,-245.24 145.25,-235.15 145.25,-226.39"/>
<polygon fill="black" stroke="black" points="148.75,-226.6 145.25,-216.6 141.75,-226.6 148.75,-226.6"/>
</g>
<!-- 18 -->
<g id="node19" class="node">
<title>18</title>
<text xml:space="preserve" text-anchor="middle" x="145.25" y="-151.7" font-family="Times,serif" font-size="14.00">5 (53)</text>
</g>
<!-- 17&#45;&gt;18 -->
<g id="edge18" class="edge">
<title>17&#45;&gt;18</title>
<path fill="none" stroke="black" d="M145.25,-201.21C145.25,-194.99 145.25,-184.9 145.25,-176.14"/>
<polygon fill="black" stroke="black" points="148.75,-176.35 145.25,-166.35 141.75,-176.35 148.75,-176.35"/>
</g>
<!-- 21 -->
<g id="node22" class="node">
<title>21</title>
<text xml:space="preserve" text-anchor="middle" x="225.25" y="-252.2" font-family="Times,serif" font-size="14.00">&lt;factor&gt;</text>
</g>
<!-- 20&#45;&gt;21 -->
<g id="edge21" class="edge">
<title>20&#45;&gt;21</title>
<path fill="none" stroke="black" d="M236.66,-301.71C234.96,-295.41 232.2,-285.17 229.82,-276.33"/>
<polygon fill="black" stroke="black" points="233.23,-275.55 227.25,-266.8 226.47,-277.37 233.23,-275.55"/>
</g>
<!-- 22 -->
<g id="node23" class="node">
<title>22</title>
<text xml:space="preserve" text-anchor="middle" x="225.25" y="-201.95" font-family="Times,serif" font-size="14.00">&lt;integer&gt;</text>
</g>
<!-- 21&#45;&gt;22 -->
<g id="edge22" class="edge">
<title>21&#45;&gt;22</title>
<path fill="none" stroke="black" d="M225.25,-251.46C225.25,-245.24 225.25,-235.15 225.25,-226.39"/>
<polygon fill="black" stroke="black" points="228.75,-226.6 225.25,-216.6 221.75,-226.6 228.75,-226.6"/>
</g>
<!-- 23 -->
<g id="node24" class="node">
<title>23</title>
<text xml:space="preserve" text-anchor="middle" x="225.25" y="-151.7" font-family="Times,serif" font-size="14.00">&lt;digit&gt;</text>
</g>
<!-- 22&#45;&gt;23 -->
<g id="edge23" class="edge">
<title>22&#45;&gt;23</title>
<path fill="none" stroke="black" d="M225.25,-201.21C225.25,-194.99 225.25,-184.9 225.25,-176.14"/>
<polygon fill="black" stroke="black" points="228.75,-176.35 225.25,-166.35 221.75,-176.35 228.75,-176.35"/>
</g>
<!-- 24 -->
<g id="node25" class="node">
<title>24</title>
<text xml:space="preserve" text-anchor="middle" x="225.25" y="-101.45" font-family="Times,serif" font-size="14.00">6 (54)</text>
</g>
<!-- 23&#45;&gt;24 -->
<g id="edge24" class="edge">
<title>23&#45;&gt;24</title>
<path fill="none" stroke="black" d="M225.25,-150.96C225.25,-144.74 225.25,-134.65 225.25,-125.89"/>
<polygon fill="black" stroke="black" points="228.75,-126.1 225.25,-116.1 221.75,-126.1 228.75,-126.1"/>
</g>
<!-- 27 -->
<g id="node28" class="node">
<title>27</title>
<text xml:space="preserve" text-anchor="middle" x="398.25" y="-352.7" font-family="Times,serif" font-size="14.00">&lt;term&gt;</text>
</g>
<!-- 26&#45;&gt;27 -->
<g id="edge27" class="edge">
<title>26&#45;&gt;27</title>
<path fill="none" stroke="black" d="M418.43,-402.21C415.36,-395.77 410.32,-385.19 406.04,-376.22"/>
<polygon fill="black" stroke="black" points="409.21,-374.73 401.74,-367.21 402.89,-377.74 409.21,-374.73"/>
</g>
<!-- 46 -->
<g id="node47" class="node">
<title>46</title>
<text xml:space="preserve" text-anchor="middle" x="445.25" y="-352.7" font-family="Times,serif" font-size="14.00"> + </text>
</g>
<!-- 26&#45;&gt;46 -->
<g id="edge46" class="edge">
<title>26&#45;&gt;46</title>
<path fill="none" stroke="black" d="M424.19,-402.21C427.43,-395.7 432.77,-384.96 437.27,-375.92"/>
<polygon fill="black" stroke="black" points="440.29,-377.71 441.61,-367.19 434.02,-374.59 440.29,-377.71"/>
</g>
<!-- 47 -->
<g id="node48" class="node">
<title>47</title>
<text xml:space="preserve" text-anchor="middle" x="644.25" y="-352.7" font-family="Times,serif" font-size="14.00">&lt;expr&gt;</text>
</g>
<!-- 26&#45;&gt;47 -->
<g id="edge47" class="edge">
<title>26&#45;&gt;47</title>
<path fill="none" stroke="black" d="M441.43,-403.76C480.49,-395.31 566.64,-376.67 613.1,-366.61"/>
<polygon fill="black" stroke="black" points="613.76,-370.05 622.79,-364.52 612.28,-363.21 613.76,-370.05"/>
</g>
<!-- 28 -->
<g id="node29" class="node">
<title>28</title>
<text xml:space="preserve" text-anchor="middle" x="339.25" y="-302.45" font-family="Times,serif" font-size="14.00">&lt;factor&gt;</text>
</g>
<!-- 27&#45;&gt;28 -->
<g id="edge28" class="edge">
<title>27&#45;&gt;28</title>
<path fill="none" stroke="black" d="M391.02,-351.96C382.17,-344.72 366.94,-332.27 355.28,-322.73"/>
<polygon fill="black" stroke="black" points="357.67,-320.17 347.72,-316.55 353.24,-325.59 357.67,-320.17"/>
</g>
<!-- 34 -->
<g id="node35" class="node">
<title>34</title>
<text xml:space="preserve" text-anchor="middle" x="398.25" y="-302.45" font-family="Times,serif" font-size="14.00"> * </text>
</g>
<!-- 27&#45;&gt;34 -->
<g id="edge34" class="edge">
<title>27&#45;&gt;34</title>
<path fill="none" stroke="black" d="M398.25,-351.96C398.25,-345.74 398.25,-335.65 398.25,-326.89"/>
<polygon fill="black" stroke="black" points="401.75,-327.1 398.25,-317.1 394.75,-327.1 401.75,-327.1"/>
</g>
<!-- 35 -->
<g id="node36" class="node">
<title>35</title>
<text xml:space="preserve" text-anchor="middle" x="449.25" y="-302.45" font-family="Times,serif" font-size="14.00">&lt;term&gt;</text>
</g>
<!-- 27&#45;&gt;35 -->
<g id="edge35" class="edge">
<title>27&#45;&gt;35</title>
<path fill="none" stroke="black" d="M404.5,-351.96C412,-344.87 424.79,-332.76 434.79,-323.31"/>
<polygon fill="black" stroke="black" points="436.99,-326.04 441.85,-316.63 432.18,-320.96 436.99,-326.04"/>
</g>
<!-- 29 -->
<g id="node30" class="node">
<title>29</title>
<text xml:space="preserve" text-anchor="middle" x="282.25" y="-252.2" font-family="Times,serif" font-size="14.00">&#45; (45)</text>
</g>
<!-- 28&#45;&gt;29 -->
<g id="edge29" class="edge">
<title>28&#45;&gt;29</title>
<path fill="none" stroke="black" d="M332.26,-301.71C323.8,-294.55 309.29,-282.26 298.07,-272.77"/>
<polygon fill="black" stroke="black" points="300.35,-270.11 290.45,-266.32 295.82,-275.45 300.35,-270.11"/>
</g>
<!-- 30 -->
<g id="node31" class="node">
<title>30</title>
<text xml:space="preserve" text-anchor="middle" x="339.25" y="-252.2" font-family="Times,serif" font-size="14.00">&lt;factor&gt;</text>
</g>
<!-- 28&#45;&gt;30 -->
<g id="edge30" class="edge">
<title>28&#45;&gt;30</title>
<path fill="none" stroke="black" d="M339.25,-301.71C339.25,-295.49 339.25,-285.4 339.25,-276.64"/>
<polygon fill="black" stroke="black" points="342.75,-276.85 339.25,-266.85 335.75,-276.85 342.75,-276.85"/>
</g>
<!-- 31 -->
<g id="node32" class="node">
<title>31</title>
<text xml:space="preserve" text-anchor="middle" x="336.25" y="-201.95" font-family="Times,serif" font-size="14.00">&lt;integer&gt;</text>
</g>
<!-- 30&#45;&gt;31 -->
<g id="edge31" class="edge">
<title>30&#45;&gt;31</title>
<path fill="none" stroke="black" d="M338.88,-251.46C338.5,-245.24 337.87,-235.15 337.32,-226.39"/>
<polygon fill="black" stroke="black" points="340.83,-226.36 336.71,-216.6 333.84,-226.8 340.83,-226.36"/>
</g>
<!-- 32 -->
<g id="node33" class="node">
<title>32</title>
<text xml:space="preserve" text-anchor="middle" x="336.25" y="-151.7" font-family="Times,serif" font-size="14.00">&lt;digit&gt;</text>
</g>
<!-- 31&#45;&gt;32 -->
<g id="edge32" class="edge">
<title>31&#45;&gt;32</title>
<path fill="none" stroke="black" d="M336.25,-201.21C336.25,-194.99 336.25,-184.9 336.25,-176.14"/>
<polygon fill="black" stroke="black" points="339.75,-176.35 336.25,-166.35 332.75,-176.35 339.75,-176.35"/>
</g>
<!-- 33 -->
<g id="node34" class="node">
<title>33</title>
<text xml:space="preserve" text-anchor="middle" x="336.25" y="-101.45" font-family="Times,serif" font-size="14.00">5 (53)</text>
</g>
<!-- 32&#45;&gt;33 -->
<g id="edge33" class="edge">
<title>32&#45;&gt;33</title>
<path fill="none" stroke="black" d="M336.25,-150.96C336.25,-144.74 336.25,-134.65 336.25,-125.89"/>
<polygon fill="black" stroke="black" points="339.75,-126.1 336.25,-116.1 332.75,-126.1 339.75,-126.1"/>
</g>
<!-- 36 -->
<g id="node37" class="node">
<title>36</title>
<text xml:space="preserve" text-anchor="middle" x="405.25" y="-252.2" font-family="Times,serif" font-size="14.00">&lt;factor&gt;</text>
</g>
<!-- 35&#45;&gt;36 -->
<g id="edge36" class="edge">
<title>35&#45;&gt;36</title>
<path fill="none" stroke="black" d="M443.85,-301.71C437.52,-294.76 426.8,-283 418.26,-273.64"/>
<polygon fill="black" stroke="black" points="421.03,-271.49 411.71,-266.46 415.86,-276.21 421.03,-271.49"/>
</g>
<!-- 40 -->
<g id="node41" class="node">
<title>40</title>
<text xml:space="preserve" text-anchor="middle" x="454.25" y="-252.2" font-family="Times,serif" font-size="14.00"> * </text>
</g>
<!-- 35&#45;&gt;40 -->
<g id="edge40" class="edge">
<title>35&#45;&gt;40</title>
<path fill="none" stroke="black" d="M449.86,-301.71C450.51,-295.49 451.55,-285.4 452.46,-276.64"/>
<polygon fill="black" stroke="black" points="455.93,-277.15 453.48,-266.85 448.96,-276.43 455.93,-277.15"/>
</g>
<!-- 41 -->
<g id="node42" class="node">
<title>41</title>
<text xml:space="preserve" text-anchor="middle" x="500.25" y="-252.2" font-family="Times,serif" font-size="14.00">&lt;term&gt;</text>
</g>
<!-- 35&#45;&gt;41 -->
<g id="edge41" class="edge">
<title>35&#45;&gt;41</title>
<path fill="none" stroke="black" d="M455.5,-301.71C463,-294.62 475.79,-282.51 485.79,-273.06"/>
<polygon fill="black" stroke="black" points="487.99,-275.79 492.85,-266.38 483.18,-270.71 487.99,-275.79"/>
</g>
<!-- 37 -->
<g id="node38" class="node">
<title>37</title>
<text xml:space="preserve" text-anchor="middle" x="408.25" y="-201.95" font-family="Times,serif" font-size="14.00">&lt;integer&gt;</text>
</g>
<!-- 36&#45;&gt;37 -->
<g id="edge37" class="edge">
<title>36&#45;&gt;37</title>
<path fill="none" stroke="black" d="M405.62,-251.46C406,-245.24 406.63,-235.15 407.18,-226.39"/>
<polygon fill="black" stroke="black" points="410.66,-226.8 407.79,-216.6 403.67,-226.36 410.66,-226.8"/>
</g>
<!-- 38 -->
<g id="node39" class="node">
<title>38</title>
<text xml:space="preserve" text-anchor="middle" x="408.25" y="-151.7" font-family="Times,serif" font-size="14.00">&lt;digit&gt;</text>
</g>
<!-- 37&#45;&gt;38 -->
<g id="edge38" class="edge">
<title>37&#45;&gt;38</title>
<path fill="none" stroke="black" d="M408.25,-201.21C408.25,-194.99 408.25,-184.9 408.25,-176.14"/>
<polygon fill="black" stroke="black" points="411.75,-176.35 408.25,-166.35 404.75,-176.35 411.75,-176.35"/>
</g>
<!-- 39 -->
<g id="node40" class="node">
<title>39</title>
<text xml:space="preserve" text-anchor="middle" x="408.25" y="-101.45" font-family="Times,serif" font-size="14.00">8 (56)</text>
</g>
<!-- 38&#45;&gt;39 -->
<g id="edge39" class="edge">
<title>38&#45;&gt;39</title>
<path fill="none" stroke="black" d="M408.25,-150.96C408.25,-144.74 408.25,-134.65 408.25,-125.89"/>
<polygon fill="black" stroke="black" points="411.75,-126.1 408.25,-116.1 404.75,-126.1 411.75,-126.1"/>
</g>
<!-- 42 -->
<g id="node43" class="node">
<title>42</title>
<text xml:space="preserve" text-anchor="middle" x="487.25" y="-201.95" font-family="Times,serif" font-size="14.00">&lt;factor&gt;</text>
</g>
<!-- 41&#45;&gt;42 -->
<g id="edge42" class="edge">
<title>41&#45;&gt;42</title>
<path fill="none" stroke="black" d="M498.66,-251.46C496.96,-245.16 494.2,-234.92 491.82,-226.08"/>
<polygon fill="black" stroke="black" points="495.23,-225.3 489.25,-216.55 488.47,-227.12 495.23,-225.3"/>
</g>
<!-- 43 -->
<g id="node44" class="node">
<title>43</title>
<text xml:space="preserve" text-anchor="middle" x="487.25" y="-151.7" font-family="Times,serif" font-size="14.00">&lt;integer&gt;</text>
</g>
<!-- 42&#45;&gt;43 -->
<g id="edge43" class="edge">
<title>42&#45;&gt;43</title>
<path fill="none" stroke="black" d="M487.25,-201.21C487.25,-194.99 487.25,-184.9 487.25,-176.14"/>
<polygon fill="black" stroke="black" points="490.75,-176.35 487.25,-166.35 483.75,-176.35 490.75,-176.35"/>
</g>
<!-- 44 -->
<g id="node45" class="node">
<title>44</title>
<text xml:space="preserve" text-anchor="middle" x="487.25" y="-101.45" font-family="Times,serif" font-size="14.00">&lt;digit&gt;</text>
</g>
<!-- 43&#45;&gt;44 -->
<g id="edge44" class="edge">
<title>43&#45;&gt;44</title>
<path fill="none" stroke="black" d="M487.25,-150.96C487.25,-144.74 487.25,-134.65 487.25,-125.89"/>
<polygon fill="black" stroke="black" points="490.75,-126.1 487.25,-116.1 483.75,-126.1 490.75,-126.1"/>
</g>
<!-- 45 -->
<g id="node46" class="node">
<title>45</title>
<text xml:space="preserve" text-anchor="middle" x="487.25" y="-51.2" font-family="Times,serif" font-size="14.00">4 (52)</text>
</g>
<!-- 44&#45;&gt;45 -->
<g id="edge45" class="edge">
<title>44&#45;&gt;45</title>
<path fill="none" stroke="black" d="M487.25,-100.71C487.25,-94.49 487.25,-84.4 487.25,-75.64"/>
<polygon fill="black" stroke="black" points="490.75,-75.85 487.25,-65.85 483.75,-75.85 490.75,-75.85"/>
</g>
<!-- 48 -->
<g id="node49" class="node">
<title>48</title>
<text xml:space="preserve" text-anchor="middle" x="621.25" y="-302.45" font-family="Times,serif" font-size="14.00">&lt;term&gt;</text>
</g>
<!-- 47&#45;&gt;48 -->
<g id="edge48" class="edge">
<title>47&#45;&gt;48</title>
<path fill="none" stroke="black" d="M641.43,-351.96C638.36,-345.52 633.32,-334.94 629.04,-325.97"/>
<polygon fill="black" stroke="black" points="632.21,-324.48 624.74,-316.96 625.89,-327.49 632.21,-324.48"/>
</g>
<!-- 65 -->
<g id="node66" class="node">
<title>65</title>
<text xml:space="preserve" text-anchor="middle" x="668.25" y="-302.45" font-family="Times,serif" font-size="14.00"> + </text>
</g>
<!-- 47&#45;&gt;65 -->
<g id="edge65" class="edge">
<title>47&#45;&gt;65</title>
<path fill="none" stroke="black" d="M647.19,-351.96C650.43,-345.45 655.77,-334.71 660.27,-325.67"/>
<polygon fill="black" stroke="black" points="663.29,-327.46 664.61,-316.94 657.02,-324.34 663.29,-327.46"/>
</g>
<!-- 66 -->
<g id="node67" class="node">
<title>66</title>
<text xml:space="preserve" text-anchor="middle" x="734.25" y="-302.45" font-family="Times,serif" font-size="14.00">&lt;expr&gt;</text>
</g>
<!-- 47&#45;&gt;66 -->
<g id="edge66" class="edge">
<title>47&#45;&gt;66</title>
<path fill="none" stroke="black" d="M655.65,-351.76C669.98,-344.08 694.89,-330.72 712.83,-321.11"/>
<polygon fill="black" stroke="black" points="714.45,-324.21 721.61,-316.4 711.14,-318.04 714.45,-324.21"/>
</g>
<!-- 49 -->
<g id="node50" class="node">
<title>49</title>
<text xml:space="preserve" text-anchor="middle" x="570.25" y="-252.2" font-family="Times,serif" font-size="14.00">&lt;factor&gt;</text>
</g>
<!-- 48&#45;&gt;49 -->
<g id="edge49" class="edge">
<title>48&#45;&gt;49</title>
<path fill="none" stroke="black" d="M615,-301.71C607.5,-294.62 594.71,-282.51 584.71,-273.06"/>
<polygon fill="black" stroke="black" points="587.32,-270.71 577.65,-266.38 582.51,-275.79 587.32,-270.71"/>
</g>
<!-- 53 -->
<g id="node54" class="node">
<title>53</title>
<text xml:space="preserve" text-anchor="middle" x="621.25" y="-252.2" font-family="Times,serif" font-size="14.00"> / </text>
</g>
<!-- 48&#45;&gt;53 -->
<g id="edge53" class="edge">
<title>48&#45;&gt;53</title>
<path fill="none" stroke="black" d="M621.25,-301.71C621.25,-295.49 621.25,-285.4 621.25,-276.64"/>
<polygon fill="black" stroke="black" points="624.75,-276.85 621.25,-266.85 617.75,-276.85 624.75,-276.85"/>
</g>
<!-- 54 -->
<g id="node55" class="node">
<title>54</title>
<text xml:space="preserve" text-anchor="middle" x="668.25" y="-252.2" font-family="Times,serif" font-size="14.00">&lt;term&gt;</text>
</g>
<!-- 48&#45;&gt;54 -->
<g id="edge54" class="edge">
<title>48&#45;&gt;54</title>
<path fill="none" stroke="black" d="M627.01,-301.71C633.85,-294.69 645.47,-282.76 654.64,-273.35"/>
<polygon fill="black" stroke="black" points="656.91,-276.03 661.38,-266.42 651.9,-271.15 656.91,-276.03"/>
</g>
<!-- 50 -->
<g id="node51" class="node">
<title>50</title>
<text xml:space="preserve" text-anchor="middle" x="556.25" y="-201.95" font-family="Times,serif" font-size="14.00">&lt;integer&gt;</text>
</g>
<!-- 49&#45;&gt;50 -->
<g id="edge50" class="edge">
<title>49&#45;&gt;50</title>
<path fill="none" stroke="black" d="M568.53,-251.46C566.71,-245.16 563.73,-234.92 561.17,-226.08"/>
<polygon fill="black" stroke="black" points="564.55,-225.17 558.4,-216.54 557.83,-227.12 564.55,-225.17"/>
</g>
<!-- 51 -->
<g id="node52" class="node">
<title>51</title>
<text xml:space="preserve" text-anchor="middle" x="556.25" y="-151.7" font-family="Times,serif" font-size="14.00">&lt;digit&gt;</text>
</g>
<!-- 50&#45;&gt;51 -->
<g id="edge51" class="edge">
<title>50&#45;&gt;51</title>
<path fill="none" stroke="black" d="M556.25,-201.21C556.25,-194.99 556.25,-184.9 556.25,-176.14"/>
<polygon fill="black" stroke="black" points="559.75,-176.35 556.25,-166.35 552.75,-176.35 559.75,-176.35"/>
</g>
<!-- 52 -->
<g id="node53" class="node">
<title>52</title>
<text xml:space="preserve" text-anchor="middle" x="556.25" y="-101.45" font-family="Times,serif" font-size="14.00">0 (48)</text>
</g>
<!-- 51&#45;&gt;52 -->
<g id="edge52" class="edge">
<title>51&#45;&gt;52</title>
<path fill="none" stroke="black" d="M556.25,-150.96C556.25,-144.74 556.25,-134.65 556.25,-125.89"/>
<polygon fill="black" stroke="black" points="559.75,-126.1 556.25,-116.1 552.75,-126.1 559.75,-126.1"/>
</g>
<!-- 55 -->
<g id="node56" class="node">
<title>55</title>
<text xml:space="preserve" text-anchor="middle" x="625.25" y="-201.95" font-family="Times,serif" font-size="14.00">&lt;factor&gt;</text>
</g>
<!-- 54&#45;&gt;55 -->
<g id="edge55" class="edge">
<title>54&#45;&gt;55</title>
<path fill="none" stroke="black" d="M662.98,-251.46C656.85,-244.59 646.53,-233 638.22,-223.68"/>
<polygon fill="black" stroke="black" points="640.84,-221.36 631.57,-216.22 635.61,-226.01 640.84,-221.36"/>
</g>
<!-- 59 -->
<g id="node60" class="node">
<title>59</title>
<text xml:space="preserve" text-anchor="middle" x="673.25" y="-201.95" font-family="Times,serif" font-size="14.00"> / </text>
</g>
<!-- 54&#45;&gt;59 -->
<g id="edge59" class="edge">
<title>54&#45;&gt;59</title>
<path fill="none" stroke="black" d="M668.86,-251.46C669.51,-245.24 670.55,-235.15 671.46,-226.39"/>
<polygon fill="black" stroke="black" points="674.93,-226.9 672.48,-216.6 667.96,-226.18 674.93,-226.9"/>
</g>
<!-- 60 -->
<g id="node61" class="node">
<title>60</title>
<text xml:space="preserve" text-anchor="middle" x="718.25" y="-201.95" font-family="Times,serif" font-size="14.00">&lt;term&gt;</text>
</g>
<!-- 54&#45;&gt;60 -->
<g id="edge60" class="edge">
<title>54&#45;&gt;60</title>
<path fill="none" stroke="black" d="M674.38,-251.46C681.73,-244.37 694.27,-232.26 704.07,-222.81"/>
<polygon fill="black" stroke="black" points="706.21,-225.6 710.98,-216.14 701.35,-220.57 706.21,-225.6"/>
</g>
<!-- 56 -->
<g id="node57" class="node">
<title>56</title>
<text xml:space="preserve" text-anchor="middle" x="625.25" y="-151.7" font-family="Times,serif" font-size="14.00">&lt;integer&gt;</text>
</g>
<!-- 55&#45;&gt;56 -->
<g id="edge56" class="edge">
<title>55&#45;&gt;56</title>
<path fill="none" stroke="black" d="M625.25,-201.21C625.25,-194.99 625.25,-184.9 625.25,-176.14"/>
<polygon fill="black" stroke="black" points="628.75,-176.35 625.25,-166.35 621.75,-176.35 628.75,-176.35"/>
</g>
<!-- 57 -->
<g id="node58" class="node">
<title>57</title>
<text xml:space="preserve" text-anchor="middle" x="625.25" y="-101.45" font-family="Times,serif" font-size="14.00">&lt;digit&gt;</text>
</g>
<!-- 56&#45;&gt;57 -->
<g id="edge57" class="edge">
<title>56&#45;&gt;57</title>
<path fill="none" stroke="black" d="M625.25,-150.96C625.25,-144.74 625.25,-134.65 625.25,-125.89"/>
<polygon fill="black" stroke="black" points="628.75,-126.1 625.25,-116.1 621.75,-126.1 628.75,-126.1"/>
</g>
<!-- 58 -->
<g id="node59" class="node">
<title>58</title>
<text xml:space="preserve" text-anchor="middle" x="625.25" y="-51.2" font-family="Times,serif" font-size="14.00">9 (57)</text>
</g>
<!-- 57&#45;&gt;58 -->
<g id="edge58" class="edge">
<title>57&#45;&gt;58</title>
<path fill="none" stroke="black" d="M625.25,-100.71C625.25,-94.49 625.25,-84.4 625.25,-75.64"/>
<polygon fill="black" stroke="black" points="628.75,-75.85 625.25,-65.85 621.75,-75.85 628.75,-75.85"/>
</g>
<!-- 61 -->
<g id="node62" class="node">
<title>61</title>
<text xml:space="preserve" text-anchor="middle" x="716.25" y="-151.7" font-family="Times,serif" font-size="14.00">&lt;factor&gt;</text>
</g>
<!-- 60&#45;&gt;61 -->
<g id="edge61" class="edge">
<title>60&#45;&gt;61</title>
<path fill="none" stroke="black" d="M718,-201.21C717.75,-194.99 717.33,-184.9 716.97,-176.14"/>
<polygon fill="black" stroke="black" points="720.47,-176.2 716.56,-166.35 713.48,-176.49 720.47,-176.2"/>
</g>
<!-- 62 -->
<g id="node63" class="node">
<title>62</title>
<text xml:space="preserve" text-anchor="middle" x="716.25" y="-101.45" font-family="Times,serif" font-size="14.00">&lt;integer&gt;</text>
</g>
<!-- 61&#45;&gt;62 -->
<g id="edge62" class="edge">
<title>61&#45;&gt;62</title>
<path fill="none" stroke="black" d="M716.25,-150.96C716.25,-144.74 716.25,-134.65 716.25,-125.89"/>
<polygon fill="black" stroke="black" points="719.75,-126.1 716.25,-116.1 712.75,-126.1 719.75,-126.1"/>
</g>
<!-- 63 -->
<g id="node64" class="node">
<title>63</title>
<text xml:space="preserve" text-anchor="middle" x="716.25" y="-51.2" font-family="Times,serif" font-size="14.00">&lt;digit&gt;</text>
</g>
<!-- 62&#45;&gt;63 -->
<g id="edge63" class="edge">
<title>62&#45;&gt;63</title>
<path fill="none" stroke="black" d="M716.25,-100.71C716.25,-94.49 716.25,-84.4 716.25,-75.64"/>
<polygon fill="black" stroke="black" points="719.75,-75.85 716.25,-65.85 712.75,-75.85 719.75,-75.85"/>
</g>
<!-- 64 -->
<g id="node65" class="node">
<title>64</title>
<text xml:space="preserve" text-anchor="middle" x="716.25" y="-0.95" font-family="Times,serif" font-size="14.00">2 (50)</text>
</g>
<!-- 63&#45;&gt;64 -->
<g id="edge64" class="edge">
<title>63&#45;&gt;64</title>
<path fill="none" stroke="black" d="M716.25,-50.46C716.25,-44.24 716.25,-34.15 716.25,-25.39"/>
<polygon fill="black" stroke="black" points="719.75,-25.6 716.25,-15.6 712.75,-25.6 719.75,-25.6"/>
</g>
<!-- 67 -->
<g id="node68" class="node">
<title>67</title>
<text xml:space="preserve" text-anchor="middle" x="754.25" y="-252.2" font-family="Times,serif" font-size="14.00">&lt;term&gt;</text>
</g>
<!-- 66&#45;&gt;67 -->
<g id="edge67" class="edge">
<title>66&#45;&gt;67</title>
<path fill="none" stroke="black" d="M736.7,-301.71C739.37,-295.27 743.76,-284.69 747.47,-275.72"/>
<polygon fill="black" stroke="black" points="750.6,-277.32 751.2,-266.74 744.14,-274.64 750.6,-277.32"/>
</g>
<!-- 68 -->
<g id="node69" class="node">
<title>68</title>
<text xml:space="preserve" text-anchor="middle" x="784.25" y="-201.95" font-family="Times,serif" font-size="14.00">&lt;factor&gt;</text>
</g>
<!-- 67&#45;&gt;68 -->
<g id="edge68" class="edge">
<title>67&#45;&gt;68</title>
<path fill="none" stroke="black" d="M757.93,-251.46C762.07,-244.8 768.95,-233.73 774.65,-224.57"/>
<polygon fill="black" stroke="black" points="777.43,-226.72 779.74,-216.38 771.49,-223.02 777.43,-226.72"/>
</g>
<!-- 69 -->
<g id="node70" class="node">
<title>69</title>
<text xml:space="preserve" text-anchor="middle" x="785.25" y="-151.7" font-family="Times,serif" font-size="14.00">&lt;integer&gt;</text>
</g>
<!-- 68&#45;&gt;69 -->
<g id="edge69" class="edge">
<title>68&#45;&gt;69</title>
<path fill="none" stroke="black" d="M784.37,-201.21C784.5,-194.99 784.71,-184.9 784.89,-176.14"/>
<polygon fill="black" stroke="black" points="788.39,-176.42 785.1,-166.35 781.39,-176.28 788.39,-176.42"/>
</g>
<!-- 70 -->
<g id="node71" class="node">
<title>70</title>
<text xml:space="preserve" text-anchor="middle" x="785.25" y="-101.45" font-family="Times,serif" font-size="14.00">&lt;digit&gt;</text>
</g>
<!-- 69&#45;&gt;70 -->
<g id="edge70" class="edge">
<title>69&#45;&gt;70</title>
<path fill="none" stroke="black" d="M785.25,-150.96C785.25,-144.74 785.25,-134.65 785.25,-125.89"/>
<polygon fill="black" stroke="black" points="788.75,-126.1 785.25,-116.1 781.75,-126.1 788.75,-126.1"/>
</g>
<!-- 71 -->
<g id="node72" class="node">
<title>71</title>
<text xml:space="preserve" text-anchor="middle" x="785.25" y="-51.2" font-family="Times,serif" font-size="14.00">0 (48)</text>
</g>
<!-- 70&#45;&gt;71 -->
<g id="edge71" class="edge">
<title>70&#45;&gt;71</title>
<path fill="none" stroke="black" d="M785.25,-100.71C785.25,-94.49 785.25,-84.4 785.25,-75.64"/>
<polygon fill="black" stroke="black" points="788.75,-75.85 785.25,-65.85 781.75,-75.85 788.75,-75.85"/>
</g>
</g>
</svg>