<?xml version="1.0" encoding="UTF-8" standalone="no"?>
<!DOCTYPE svg PUBLIC "-//W3C//DTD SVG 1.1//EN"
 "http://www.w3.org/Graphics/SVG/1.1/DTD/svg11.dtd">
<!-- Generated by graphviz version 13.1.2 (20250808.2320)
 -->
<!-- Pages: 1 -->
<svg width="294pt" height="173pt"
 viewBox="0.00 0.00 294.00 173.00" xmlns="http://www.w3.org/2000/svg" xmlns:xlink="http://www.w3.org/1999/xlink">
<g id="graph0" class="graph" transform="scale(1 1) rotate(0) translate(4 169)">
<polygon fill="white" stroke="none" points="-4,4 -4,-169 290,-169 290,4 -4,4"/>
<!-- 0 -->
<g id="node1" class="node">
<title>0</title>
<text xml:space="preserve" text-anchor="middle" x="142" y="-151.7" font-family="Times,serif" font-size="14.00">&lt;start&gt;</text>
</g>
<!-- 1 -->
<g id="node2" class="node">
<title>1</title>
<text xml:space="preserve" text-anchor="middle" x="142" y="-101.45" font-family="Times,serif" font-size="14.00">&lt;expr&gt;</text>
</g>
<!-- 0&#45;&gt;1 -->
<g id="edge1" class="edge">
<title>0&#45;&gt;1</title>
<path fill="none" stroke="black" d="M142,-150.96C142,-144.74 142,-134.65 142,-125.89"/>
<polygon fill="black" stroke="black" points="145.5,-126.1 142,-116.1 138.5,-126.1 145.5,-126.1"/>
</g>
<!-- 2 -->
<g id="node3" class="node">
<title>2</title>
<text xml:space="preserve" text-anchor="middle" x="90" y="-51.2" font-family="Times,serif" font-size="14.00">&lt;expr&gt;</text>
</g>
<!-- 1&#45;&gt;2 -->
<g id="edge2" class="edge">
<title>1&#45;&gt;2</title>
<path fill="none" stroke="black" d="M135.62,-100.71C127.98,-93.62 114.94,-81.51 104.75,-72.06"/>
<polygon fill="black" stroke="black" points="107.25,-69.61 97.54,-65.37 102.49,-74.74 107.25,-69.61"/>
</g>
<!-- 6 -->
<g id="node7" class="node">
<title>6</title>
<text xml:space="preserve" text-anchor="middle" x="142" y="-51.2" font-family="Times,serif" font-size="14.00"> + </text>
</g>
<!-- 1&#45;&gt;6 -->
<g id="edge6" class="edge">
<title>1&#45;&gt;6</title>
<path fill="none" stroke="black" d="M142,-100.71C142,-94.49 142,-84.4 142,-75.64"/>
<polygon fill="black" stroke="black" points="145.5,-75.85 142,-65.85 138.5,-75.85 145.5,-75.85"/>
</g>
<!-- 7 -->
<g id="node8" class="node">
<title>7</title>
<text xml:space="preserve" text-anchor="middle" x="192" y="-51.2" font-family="Times,serif" font-size="14.00">&lt;term&gt;</text>
</g>
<!-- 1&#45;&gt;7 -->
<g id="edge7" class="edge">
<title>1&#45;&gt;7</title>
<path fill="none" stroke="black" d="M148.13,-100.71C155.48,-93.62 168.02,-81.51 177.82,-72.06"/>
<polygon fill="black" stroke="black" points="179.96,-74.85 184.73,-65.39 175.1,-69.82 179.96,-74.85"/>
</g>
<!-- 3 -->
<g id="node4" class="node">
<title>3</title>
<text xml:space="preserve" text-anchor="middle" x="21" y="-0.95" font-family="Times,serif" font-size="14.00">&lt;term&gt;</text>
</g>
<!-- 2&#45;&gt;3 -->
<g id="edge3" class="edge">
<title>2&#45;&gt;3</title>
<path fill="none" stroke="black" d="M81.26,-50.26C70.63,-42.83 52.41,-30.09 38.78,-20.56"/>
<polygon fill="black" stroke="black" points="40.89,-17.77 30.69,-14.9 36.88,-23.5 40.89,-17.77"/>
</g>
<!-- 4 -->
<g id="node5" class="node">
<title>4</title>
<text xml:space="preserve" text-anchor="middle" x="66" y="-0.95" font-family="Times,serif" font-size="14.00"> &#45; </text>
</g>
<!-- 2&#45;&gt;4 -->
<g id="edge4" class="edge">
<title>2&#45;&gt;4</title>
<path fill="none" stroke="black" d="M87.06,-50.46C83.82,-43.95 78.48,-33.21 73.98,-24.17"/>
<polygon fill="black" stroke="black" points="77.23,-22.84 69.64,-15.44 70.96,-25.96 77.23,-22.84"/>
</g>
<!-- 5 -->
<g id="node6" class="node">
<title>5</title>
<text xml:space="preserve" text-anchor="middle" x="110" y="-0.95" font-family="Times,serif" font-size="14.00">&lt;expr&gt;</text>
</g>
<!-- 2&#45;&gt;5 -->
<g id="edge5" class="edge">
<title>2&#45;&gt;5</title>
<path fill="none" stroke="black" d="M92.45,-50.46C95.12,-44.02 99.51,-33.44 103.22,-24.47"/>
<polygon fill="black" stroke="black" points="106.35,-26.07 106.95,-15.49 99.89,-23.39 106.35,-26.07"/>
</g>
<!-- 8 -->
<g id="node9" class="node">
<title>8</title>
<text xml:space="preserve" text-anchor="middle" x="172" y="-0.95" font-family="Times,serif" font-size="14.00">&lt;factor&gt;</text>
</g>
<!-- 7&#45;&gt;8 -->
<g id="edge8" class="edge">
<title>7&#45;&gt;8</title>
<path fill="none" stroke="black" d="M189.55,-50.46C186.88,-44.02 182.49,-33.44 178.78,-24.47"/>
<polygon fill="black" stroke="black" points="182.11,-23.39 175.05,-15.49 175.65,-26.07 182.11,-23.39"/>
</g>
<!-- 9 -->
<g id="node10" class="node">
<title>9</title>
<text xml:space="preserve" text-anchor="middle" x="220" y="-0.95" font-family="Times,serif" font-size="14.00"> / </text>
</g>
<!-- 7&#45;&gt;9 -->
<g id="edge9" class="edge">
<title>7&#45;&gt;9</title>
<path fill="none" stroke="black" d="M195.43,-50.46C199.25,-43.87 205.58,-32.97 210.86,-23.87"/>
<polygon fill="black" stroke="black" points="213.79,-25.8 215.78,-15.4 207.73,-22.29 213.79,-25.8"/>
</g>
<!-- 10 -->
<g id="node11" class="node">
<title>10</title>
<text xml:space="preserve" text-anchor="middle" x="265" y="-0.95" font-family="Times,serif" font-size="14.00">&lt;term&gt;</text>
</g>
<!-- 7&#45;&gt;10 -->
<g id="edge10" class="edge">
<title>7&#45;&gt;10</title>
<path fill="none" stroke="black" d="M201.25,-50.26C212.61,-42.75 232.15,-29.84 246.62,-20.28"/>
<polygon fill="black" stroke="black" points="248.38,-23.3 254.8,-14.87 244.52,-17.46 248.38,-23.3"/>
</g>
</g>
</svg>