<?xml version="1.0" encoding="UTF-8" standalone="no"?>
<!DOCTYPE svg PUBLIC "-//W3C//DTD SVG 1.1//EN"
 "http://www.w3.org/Graphics/SVG/1.1/DTD/svg11.dtd">
<!-- Generated by graphviz version 13.1.2 (20250808.2320)
 -->
<!-- Pages: 1 -->
<svg width="188pt" height="173pt"
 viewBox="0.00 0.00 188.00 173.00" xmlns="http://www.w3.org/2000/svg" xmlns:xlink="http://www.w3.org/1999/xlink">
<g id="graph0" class="graph" transform="scale(1 1) rotate(0) translate(4 169)">
<polygon fill="white" stroke="none" points="-4,4 -4,-169 184,-169 184,4 -4,4"/>
<!-- 0 -->
<g id="node1" class="node">
<title>0</title>
<text xml:space="preserve" text-anchor="middle" x="112" y="-151.7" font-family="Times,serif" font-size="14.00">&lt;start&gt;</text>
</g>
<!-- 1 -->
<g id="node2" class="node">
<title>1</title>
<text xml:space="preserve" text-anchor="middle" x="112" y="-101.45" font-family="Times,serif" font-size="14.00">&lt;expr&gt;</text>
</g>
<!-- 0&#45;&gt;1 -->
<g id="edge1" class="edge">
<title>0&#45;&gt;1</title>
<path fill="none" stroke="black" d="M112,-150.96C112,-144.74 112,-134.65 112,-125.89"/>
<polygon fill="black" stroke="black" points="115.5,-126.1 112,-116.1 108.5,-126.1 115.5,-126.1"/>
</g>
<!-- 2 -->
<g id="node3" class="node">
<title>2</title>
<text xml:space="preserve" text-anchor="middle" x="66" y="-51.2" font-family="Times,serif" font-size="14.00">&lt;expr&gt;</text>
</g>
<!-- 1&#45;&gt;2 -->
<g id="edge2" class="edge">
<title>1&#45;&gt;2</title>
<path fill="none" stroke="black" d="M106.36,-100.71C99.74,-93.76 88.53,-82 79.6,-72.64"/>
<polygon fill="black" stroke="black" points="82.16,-70.26 72.73,-65.44 77.1,-75.09 82.16,-70.26"/>
</g>
<!-- 6 -->
<g id="node7" class="node">
<title>6</title>
<text xml:space="preserve" text-anchor="middle" x="112" y="-51.2" font-family="Times,serif" font-size="14.00"> + </text>
</g>
<!-- 1&#45;&gt;6 -->
<g id="edge6" class="edge">
<title>1&#45;&gt;6</title>
<path fill="none" stroke="black" d="M112,-100.71C112,-94.49 112,-84.4 112,-75.64"/>
<polygon fill="black" stroke="black" points="115.5,-75.85 112,-65.85 108.5,-75.85 115.5,-75.85"/>
</g>
<!-- 7 -->
<g id="node8" class="node">
<title>7</title>
<text xml:space="preserve" text-anchor="middle" x="159" y="-51.2" font-family="Times,serif" font-size="14.00">&lt;term&gt;</text>
</g>
<!-- 1&#45;&gt;7 -->
<g id="edge7" class="edge">
<title>1&#45;&gt;7</title>
<path fill="none" stroke="black" d="M117.76,-100.71C124.6,-93.69 136.22,-81.76 145.39,-72.35"/>
<polygon fill="black" stroke="black" points="147.66,-75.03 152.13,-65.42 142.65,-70.15 147.66,-75.03"/>
</g>
<!-- 3 -->
<g id="node4" class="node">
<title>3</title>
<text xml:space="preserve" text-anchor="middle" x="21" y="-0.95" font-family="Times,serif" font-size="14.00">&lt;term&gt;</text>
</g>
<!-- 2&#45;&gt;3 -->
<g id="edge3" class="edge">
<title>2&#45;&gt;3</title>
<path fill="none" stroke="black" d="M60.48,-50.46C54,-43.51 43.04,-31.75 34.3,-22.39"/>
<polygon fill="black" stroke="black" points="36.98,-20.12 27.6,-15.2 31.86,-24.9 36.98,-20.12"/>
</g>
<!-- 4 -->
<g id="node5" class="node">
<title>4</title>
<text xml:space="preserve" text-anchor="middle" x="66" y="-0.95" font-family="Times,serif" font-size="14.00"> &#45; </text>
</g>
<!-- 2&#45;&gt;4 -->
<g id="edge4" class="edge">
<title>2&#45;&gt;4</title>
<path fill="none" stroke="black" d="M66,-50.46C66,-44.24 66,-34.15 66,-25.39"/>
<polygon fill="black" stroke="black" points="69.5,-25.6 66,-15.6 62.5,-25.6 69.5,-25.6"/>
</g>
<!-- 5 -->
<g id="node6" class="node">
<title>5</title>
<text xml:space="preserve" text-anchor="middle" x="110" y="-0.95" font-family="Times,serif" font-size="14.00">&lt;expr&gt;</text>
</g>
<!-- 2&#45;&gt;5 -->
<g id="edge5" class="edge">
<title>2&#45;&gt;5</title>
<path fill="none" stroke="black" d="M71.4,-50.46C77.73,-43.51 88.45,-31.75 96.99,-22.39"/>
<polygon fill="black" stroke="black" points="99.39,-24.96 103.54,-15.21 94.22,-20.24 99.39,-24.96"/>
</g>
</g>
</svg>