<?xml version="1.0" encoding="UTF-8" standalone="no"?>
<!DOCTYPE svg PUBLIC "-//W3C//DTD SVG 1.1//EN"
 "http://www.w3.org/Graphics/SVG/1.1/DTD/svg11.dtd">
<!-- Generated by graphviz version 13.1.2 (20250808.2320)
 -->
<!-- Pages: 1 -->
<svg width="208pt" height="173pt"
 viewBox="0.00 0.00 208.00 173.00" xmlns="http://www.w3.org/2000/svg" xmlns:xlink="http://www.w3.org/1999/xlink">
<g id="graph0" class="graph" transform="scale(1 1) rotate(0) translate(4 169)">
<polygon fill="white" stroke="none" points="-4,4 -4,-169 204,-169 204,4 -4,4"/>
<!-- 0 -->
<g id="node1" class="node">
<title>0</title>
<text xml:space="preserve" text-anchor="middle" x="125" y="-151.7" font-family="Times,serif" font-size="14.00">&lt;start&gt;</text>
</g>
<!-- 1 -->
<g id="node2" class="node">
<title>1</title>
<text xml:space="preserve" text-anchor="middle" x="125" y="-101.45" font-family="Times,serif" font-size="14.00">&lt;expr&gt;</text>
</g>
<!-- 0&#45;&gt;1 -->
<g id="edge1" class="edge">
<title>0&#45;&gt;1</title>
<path fill="none" stroke="black" d="M125,-150.96C125,-144.74 125,-134.65 125,-125.89"/>
<polygon fill="black" stroke="black" points="128.5,-126.1 125,-116.1 121.5,-126.1 128.5,-126.1"/>
</g>
<!-- 2 -->
<g id="node3" class="node">
<title>2</title>
<text xml:space="preserve" text-anchor="middle" x="75" y="-51.2" font-family="Times,serif" font-size="14.00">&lt;expr&gt;</text>
</g>
<!-- 1&#45;&gt;2 -->
<g id="edge2" class="edge">
<title>1&#45;&gt;2</title>
<path fill="none" stroke="black" d="M118.87,-100.71C111.52,-93.62 98.98,-81.51 89.18,-72.06"/>
<polygon fill="black" stroke="black" points="91.9,-69.82 82.27,-65.39 87.04,-74.85 91.9,-69.82"/>
</g>
<!-- 6 -->
<g id="node7" class="node">
<title>6</title>
<text xml:space="preserve" text-anchor="middle" x="125" y="-51.2" font-family="Times,serif" font-size="14.00"> + </text>
</g>
<!-- 1&#45;&gt;6 -->
<g id="edge6" class="edge">
<title>1&#45;&gt;6</title>
<path fill="none" stroke="black" d="M125,-100.71C125,-94.49 125,-84.4 125,-75.64"/>
<polygon fill="black" stroke="black" points="128.5,-75.85 125,-65.85 121.5,-75.85 128.5,-75.85"/>
</g>
<!-- 7 -->
<g id="node8" class="node">
<title>7</title>
<text xml:space="preserve" text-anchor="middle" x="174" y="-51.2" font-family="Times,serif" font-size="14.00">&lt;term&gt;</text>
</g>
<!-- 1&#45;&gt;7 -->
<g id="edge7" class="edge">
<title>1&#45;&gt;7</title>
<path fill="none" stroke="black" d="M131.01,-100.71C138.14,-93.69 150.25,-81.76 159.81,-72.35"/>
<polygon fill="black" stroke="black" points="162.19,-74.91 166.86,-65.4 157.28,-69.92 162.19,-74.91"/>
</g>
<!-- 3 -->
<g id="node4" class="node">
<title>3</title>
<text xml:space="preserve" text-anchor="middle" x="21" y="-0.95" font-family="Times,serif" font-size="14.00">&lt;term&gt;</text>
</g>
<!-- 2&#45;&gt;3 -->
<g id="edge3" class="edge">
<title>2&#45;&gt;3</title>
<path fill="none" stroke="black" d="M68.38,-50.46C60.36,-43.3 46.62,-31.01 35.99,-21.52"/>
<polygon fill="black" stroke="black" points="38.59,-19.15 28.8,-15.1 33.93,-24.37 38.59,-19.15"/>
</g>
<!-- 4 -->
<g id="node5" class="node">
<title>4</title>
<text xml:space="preserve" text-anchor="middle" x="68" y="-0.95" font-family="Times,serif" font-size="14.00"> + </text>
</g>
<!-- 2&#45;&gt;4 -->
<g id="edge4" class="edge">
<title>2&#45;&gt;4</title>
<path fill="none" stroke="black" d="M74.14,-50.46C73.24,-44.24 71.78,-34.15 70.5,-25.39"/>
<polygon fill="black" stroke="black" points="73.98,-24.98 69.08,-15.59 67.05,-25.99 73.98,-24.98"/>
</g>
<!-- 5 -->
<g id="node6" class="node">
<title>5</title>
<text xml:space="preserve" text-anchor="middle" x="114" y="-0.95" font-family="Times,serif" font-size="14.00">&lt;expr&gt;</text>
</g>
<!-- 2&#45;&gt;5 -->
<g id="edge5" class="edge">
<title>2&#45;&gt;5</title>
<path fill="none" stroke="black" d="M79.78,-50.46C85.28,-43.66 94.51,-32.24 101.99,-22.98"/>
<polygon fill="black" stroke="black" points="104.66,-25.24 108.23,-15.27 99.22,-20.84 104.66,-25.24"/>
</g>
<!-- 8 -->
<g id="node9" class="node">
<title>8</title>
<text xml:space="preserve" text-anchor="middle" x="176" y="-0.95" font-family="Times,serif" font-size="14.00">&lt;factor&gt;</text>
</g>
<!-- 7&#45;&gt;8 -->
<g id="edge8" class="edge">
<title>7&#45;&gt;8</title>
<path fill="none" stroke="black" d="M174.25,-50.46C174.5,-44.24 174.92,-34.15 175.28,-25.39"/>
<polygon fill="black" stroke="black" points="178.77,-25.74 175.69,-15.6 171.78,-25.45 178.77,-25.74"/>
</g>
</g>
</svg>