<?xml version="1.0" encoding="UTF-8" standalone="no"?>
<!DOCTYPE svg PUBLIC "-//W3C//DTD SVG 1.1//EN"
 "http://www.w3.org/Graphics/SVG/1.1/DTD/svg11.dtd">
<!-- Generated by graphviz version 13.1.2 (20250808.2320)
 -->
<!-- Pages: 1 -->
<svg width="332pt" height="324pt"
 viewBox="0.00 0.00 332.00 324.00" xmlns="http://www.w3.org/2000/svg" xmlns:xlink="http://www.w3.org/1999/xlink">
<g id="graph0" class="graph" transform="scale(1 1) rotate(0) translate(4 319.75)">
<polygon fill="white" stroke="none" points="-4,4 -4,-319.75 327.75,-319.75 327.75,4 -4,4"/>
<!-- 0 -->
<g id="node1" class="node">
<title>0</title>
<text xml:space="preserve" text-anchor="middle" x="202.12" y="-302.45" font-family="Times,serif" font-size="14.00">&lt;start&gt;</text>
</g>
<!-- 1 -->
<g id="node2" class="node">
<title>1</title>
<text xml:space="preserve" text-anchor="middle" x="202.12" y="-252.2" font-family="Times,serif" font-size="14.00">&lt;string&gt;</text>
</g>
<!-- 0&#45;&gt;1 -->
<g id="edge1" class="edge">
<title>0&#45;&gt;1</title>
<path fill="none" stroke="black" d="M202.12,-301.71C202.12,-295.49 202.12,-285.4 202.12,-276.64"/>
<polygon fill="black" stroke="black" points="205.63,-276.85 202.13,-266.85 198.63,-276.85 205.63,-276.85"/>
</g>
<!-- 2 -->
<g id="node3" class="node">
<title>2</title>
<text xml:space="preserve" text-anchor="middle" x="170.12" y="-201.95" font-family="Times,serif" font-size="14.00">&lt;letter&gt;</text>
</g>
<!-- 1&#45;&gt;2 -->
<g id="edge2" class="edge">
<title>1&#45;&gt;2</title>
<path fill="none" stroke="black" d="M198.2,-251.46C193.79,-244.8 186.44,-233.73 180.37,-224.57"/>
<polygon fill="black" stroke="black" points="183.36,-222.75 174.92,-216.35 177.53,-226.62 183.36,-222.75"/>
</g>
<!-- 9 -->
<g id="node10" class="node">
<title>9</title>
<text xml:space="preserve" text-anchor="middle" x="236.12" y="-201.95" font-family="Times,serif" font-size="14.00">&lt;string&gt;</text>
</g>
<!-- 1&#45;&gt;9 -->
<g id="edge9" class="edge">
<title>1&#45;&gt;9</title>
<path fill="none" stroke="black" d="M206.29,-251.46C211.04,-244.73 218.96,-233.48 225.45,-224.27"/>
<polygon fill="black" stroke="black" points="228.15,-226.52 231.05,-216.33 222.43,-222.49 228.15,-226.52"/>
</g>
<!-- 3 -->
<g id="node4" class="node">
<title>3</title>
<text xml:space="preserve" text-anchor="middle" x="127.12" y="-151.7" font-family="Times,serif" font-size="14.00">&lt;percent&gt;</text>
</g>
<!-- 2&#45;&gt;3 -->
<g id="edge3" class="edge">
<title>2&#45;&gt;3</title>
<path fill="none" stroke="black" d="M164.85,-201.21C158.73,-194.34 148.4,-182.75 140.1,-173.43"/>
<polygon fill="black" stroke="black" points="142.71,-171.11 133.45,-165.97 137.49,-175.76 142.71,-171.11"/>
</g>
<!-- 4 -->
<g id="node5" class="node">
<title>4</title>
<text xml:space="preserve" text-anchor="middle" x="19.12" y="-101.45" font-family="Times,serif" font-size="14.00">% (37)</text>
</g>
<!-- 3&#45;&gt;4 -->
<g id="edge4" class="edge">
<title>3&#45;&gt;4</title>
<path fill="none" stroke="black" d="M113.45,-150.76C95.76,-142.86 64.65,-128.96 43.02,-119.3"/>
<polygon fill="black" stroke="black" points="44.63,-116.19 34.07,-115.3 41.78,-122.58 44.63,-116.19"/>
</g>
<!-- 5 -->
<g id="node6" class="node">
<title>5</title>
<text xml:space="preserve" text-anchor="middle" x="87.12" y="-101.45" font-family="Times,serif" font-size="14.00">&lt;hexdigit&gt;</text>
</g>
<!-- 3&#45;&gt;5 -->
<g id="edge5" class="edge">
<title>3&#45;&gt;5</title>
<path fill="none" stroke="black" d="M122.22,-150.96C116.52,-144.09 106.92,-132.5 99.19,-123.18"/>
<polygon fill="black" stroke="black" points="102.11,-121.22 93.04,-115.75 96.72,-125.69 102.11,-121.22"/>
</g>
<!-- 7 -->
<g id="node8" class="node">
<title>7</title>
<text xml:space="preserve" text-anchor="middle" x="166.12" y="-101.45" font-family="Times,serif" font-size="14.00">&lt;hexdigit&gt;</text>
</g>
<!-- 3&#45;&gt;7 -->
<g id="edge7" class="edge">
<title>3&#45;&gt;7</title>
<path fill="none" stroke="black" d="M131.91,-150.96C137.4,-144.16 146.63,-132.74 154.12,-123.48"/>
<polygon fill="black" stroke="black" points="156.79,-125.74 160.35,-115.77 151.34,-121.34 156.79,-125.74"/>
</g>
<!-- 6 -->
<g id="node7" class="node">
<title>6</title>
<text xml:space="preserve" text-anchor="middle" x="87.12" y="-51.2" font-family="Times,serif" font-size="14.00">c (99)</text>
</g>
<!-- 5&#45;&gt;6 -->
<g id="edge6" class="edge">
<title>5&#45;&gt;6</title>
<path fill="none" stroke="black" d="M87.12,-100.71C87.12,-94.49 87.12,-84.4 87.12,-75.64"/>
<polygon fill="black" stroke="black" points="90.63,-75.85 87.13,-65.85 83.63,-75.85 90.63,-75.85"/>
</g>
<!-- 8 -->
<g id="node9" class="node">
<title>8</title>
<text xml:space="preserve" text-anchor="middle" x="166.12" y="-51.2" font-family="Times,serif" font-size="14.00">0 (48)</text>
</g>
<!-- 7&#45;&gt;8 -->
<g id="edge8" class="edge">
<title>7&#45;&gt;8</title>
<path fill="none" stroke="black" d="M166.12,-100.71C166.12,-94.49 166.12,-84.4 166.12,-75.64"/>
<polygon fill="black" stroke="black" points="169.63,-75.85 166.13,-65.85 162.63,-75.85 169.63,-75.85"/>
</g>
<!-- 10 -->
<g id="node11" class="node">
<title>10</title>
<text xml:space="preserve" text-anchor="middle" x="236.12" y="-151.7" font-family="Times,serif" font-size="14.00">&lt;letter&gt;</text>
</g>
<!-- 9&#45;&gt;10 -->
<g id="edge10" class="edge">
<title>9&#45;&gt;10</title>
<path fill="none" stroke="black" d="M236.12,-201.21C236.12,-194.99 236.12,-184.9 236.12,-176.14"/>
<polygon fill="black" stroke="black" points="239.63,-176.35 236.13,-166.35 232.63,-176.35 239.63,-176.35"/>
</g>
<!-- 13 -->
<g id="node14" class="node">
<title>13</title>
<text xml:space="preserve" text-anchor="middle" x="300.12" y="-151.7" font-family="Times,serif" font-size="14.00">&lt;string&gt;</text>
</g>
<!-- 9&#45;&gt;13 -->
<g id="edge13" class="edge">
<title>9&#45;&gt;13</title>
<path fill="none" stroke="black" d="M244.23,-201.01C254,-193.65 270.66,-181.09 283.26,-171.59"/>
<polygon fill="black" stroke="black" points="285.2,-174.51 291.08,-165.7 280.98,-168.92 285.2,-174.51"/>
</g>
<!-- 11 -->
<g id="node12" class="node">
<title>11</title>
<text xml:space="preserve" text-anchor="middle" x="237.12" y="-101.45" font-family="Times,serif" font-size="14.00">&lt;other&gt;</text>
</g>
<!-- 10&#45;&gt;11 -->
<g id="edge11" class="edge">
<title>10&#45;&gt;11</title>
<path fill="none" stroke="black" d="M236.25,-150.96C236.38,-144.74 236.59,-134.65 236.77,-125.89"/>
<polygon fill="black" stroke="black" points="240.26,-126.17 236.97,-116.1 233.26,-126.03 240.26,-126.17"/>
</g>
<!-- 12 -->
<g id="node13" class="node">
<title>12</title>
<text xml:space="preserve" text-anchor="middle" x="237.12" y="-51.2" font-family="Times,serif" font-size="14.00">4 (52)</text>
</g>
<!-- 11&#45;&gt;12 -->
<g id="edge12" class="edge">
<title>11&#45;&gt;12</title>
<path fill="none" stroke="black" d="M237.12,-100.71C237.12,-94.49 237.12,-84.4 237.12,-75.64"/>
<polygon fill="black" stroke="black" points="240.63,-75.85 237.13,-65.85 233.63,-75.85 240.63,-75.85"/>
</g>
<!-- 14 -->
<g id="node15" class="node">
<title>14</title>
<text xml:space="preserve" text-anchor="middle" x="300.12" y="-101.45" font-family="Times,serif" font-size="14.00">&lt;letter&gt;</text>
</g>
<!-- 13&#45;&gt;14 -->
<g id="edge14" class="edge">
<title>13&#45;&gt;14</title>
<path fill="none" stroke="black" d="M300.12,-150.96C300.12,-144.74 300.12,-134.65 300.12,-125.89"/>
<polygon fill="black" stroke="black" points="303.63,-126.1 300.13,-116.1 296.63,-126.1 303.63,-126.1"/>
</g>
<!-- 15 -->
<g id="node16" class="node">
<title>15</title>
<text xml:space="preserve" text-anchor="middle" x="300.12" y="-51.2" font-family="Times,serif" font-size="14.00">&lt;plus&gt;</text>
</g>
<!-- 14&#45;&gt;15 -->
<g id="edge15" class="edge">
<title>14&#45;&gt;15</title>
<path fill="none" stroke="black" d="M300.12,-100.71C300.12,-94.49 300.12,-84.4 300.12,-75.64"/>
<polygon fill="black" stroke="black" points="303.63,-75.85 300.13,-65.85 296.63,-75.85 303.63,-75.85"/>
</g>
<!-- 16 -->
<g id="node17" class="node">
<title>16</title>
<text xml:space="preserve" text-anchor="middle" x="300.12" y="-0.95" font-family="Times,serif" font-size="14.00">+ (43)</text>
</g>
<!-- 15&#45;&gt;16 -->
<g id="edge16" class="edge">
<title>15&#45;&gt;16</title>
<path fill="none" stroke="black" d="M300.12,-50.46C300.12,-44.24 300.12,-34.15 300.12,-25.39"/>
<polygon fill="black" stroke="black" points="303.63,-25.6 300.13,-15.6 296.63,-25.6 303.63,-25.6"/>
</g>
</g>
</svg>