<?xml version="1.0" encoding="UTF-8" standalone="no"?>
<!DOCTYPE svg PUBLIC "-//W3C//DTD SVG 1.1//EN"
 "http://www.w3.org/Graphics/SVG/1.1/DTD/svg11.dtd">
<!-- Generated by graphviz version 13.1.2 (20250808.2320)
 -->
<!-- Pages: 1 -->
<svg width="283pt" height="475pt"
 viewBox="0.00 0.00 283.00 475.00" xmlns="http://www.w3.org/2000/svg" xmlns:xlink="http://www.w3.org/1999/xlink">
<g id="graph0" class="graph" transform="scale(1 1) rotate(0) translate(4 470.5)">
<polygon fill="white" stroke="none" points="-4,4 -4,-470.5 279,-470.5 279,4 -4,4"/>
<!-- 0 -->
<g id="node1" class="node">
<title>0</title>
<text xml:space="preserve" text-anchor="middle" x="150" y="-453.2" font-family="Times,serif" font-size="14.00">&lt;start&gt;</text>
</g>
<!-- 1 -->
<g id="node2" class="node">
<title>1</title>
<text xml:space="preserve" text-anchor="middle" x="150" y="-402.95" font-family="Times,serif" font-size="14.00">&lt;expr&gt;</text>
</g>
<!-- 0&#45;&gt;1 -->
<g id="edge1" class="edge">
<title>0&#45;&gt;1</title>
<path fill="none" stroke="black" d="M150,-452.46C150,-446.24 150,-436.15 150,-427.39"/>
<polygon fill="black" stroke="black" points="153.5,-427.6 150,-417.6 146.5,-427.6 153.5,-427.6"/>
</g>
<!-- 2 -->
<g id="node3" class="node">
<title>2</title>
<text xml:space="preserve" text-anchor="middle" x="101" y="-352.7" font-family="Times,serif" font-size="14.00">&lt;expr&gt;</text>
</g>
<!-- 1&#45;&gt;2 -->
<g id="edge2" class="edge">
<title>1&#45;&gt;2</title>
<path fill="none" stroke="black" d="M143.99,-402.21C136.86,-395.19 124.75,-383.26 115.19,-373.85"/>
<polygon fill="black" stroke="black" points="117.72,-371.42 108.14,-366.9 112.81,-376.41 117.72,-371.42"/>
</g>
<!-- 22 -->
<g id="node23" class="node">
<title>22</title>
<text xml:space="preserve" text-anchor="middle" x="150" y="-352.7" font-family="Times,serif" font-size="14.00"> + </text>
</g>
<!-- 1&#45;&gt;22 -->
<g id="edge22" class="edge">
<title>1&#45;&gt;22</title>
<path fill="none" stroke="black" d="M150,-402.21C150,-395.99 150,-385.9 150,-377.14"/>
<polygon fill="black" stroke="black" points="153.5,-377.35 150,-367.35 146.5,-377.35 153.5,-377.35"/>
</g>
<!-- 23 -->
<g id="node24" class="node">
<title>23</title>
<text xml:space="preserve" text-anchor="middle" x="199" y="-352.7" font-family="Times,serif" font-size="14.00">&lt;term&gt;</text>
</g>
<!-- 1&#45;&gt;23 -->
<g id="edge23" class="edge">
<title>1&#45;&gt;23</title>
<path fill="none" stroke="black" d="M156.01,-402.21C163.14,-395.19 175.25,-383.26 184.81,-373.85"/>
<polygon fill="black" stroke="black" points="187.19,-376.41 191.86,-366.9 182.28,-371.42 187.19,-376.41"/>
</g>
<!-- 3 -->
<g id="node4" class="node">
<title>3</title>
<text xml:space="preserve" text-anchor="middle" x="41" y="-302.45" font-family="Times,serif" font-size="14.00">&lt;term&gt;</text>
</g>
<!-- 2&#45;&gt;3 -->
<g id="edge3" class="edge">
<title>2&#45;&gt;3</title>
<path fill="none" stroke="black" d="M93.64,-351.96C84.65,-344.72 69.15,-332.27 57.3,-322.73"/>
<polygon fill="black" stroke="black" points="59.58,-320.08 49.6,-316.54 55.2,-325.53 59.58,-320.08"/>
</g>
<!-- 8 -->
<g id="node9" class="node">
<title>8</title>
<text xml:space="preserve" text-anchor="middle" x="95" y="-302.45" font-family="Times,serif" font-size="14.00"> &#45; </text>
</g>
<!-- 2&#45;&gt;8 -->
<g id="edge8" class="edge">
<title>2&#45;&gt;8</title>
<path fill="none" stroke="black" d="M100.26,-351.96C99.49,-345.74 98.24,-335.65 97.15,-326.89"/>
<polygon fill="black" stroke="black" points="100.64,-326.58 95.93,-317.09 93.69,-327.45 100.64,-326.58"/>
</g>
<!-- 9 -->
<g id="node10" class="node">
<title>9</title>
<text xml:space="preserve" text-anchor="middle" x="139" y="-302.45" font-family="Times,serif" font-size="14.00">&lt;expr&gt;</text>
</g>
<!-- 2&#45;&gt;9 -->
<g id="edge9" class="edge">
<title>2&#45;&gt;9</title>
<path fill="none" stroke="black" d="M105.66,-351.96C111.02,-345.16 120.01,-333.74 127.3,-324.48"/>
<polygon fill="black" stroke="black" points="129.93,-326.8 133.37,-316.78 124.43,-322.47 129.93,-326.8"/>
</g>
<!-- 4 -->
<g id="node5" class="node">
<title>4</title>
<text xml:space="preserve" text-anchor="middle" x="30" y="-252.2" font-family="Times,serif" font-size="14.00">&lt;factor&gt;</text>
</g>
<!-- 3&#45;&gt;4 -->
<g id="edge4" class="edge">
<title>3&#45;&gt;4</title>
<path fill="none" stroke="black" d="M39.65,-301.71C38.22,-295.41 35.88,-285.17 33.87,-276.33"/>
<polygon fill="black" stroke="black" points="37.33,-275.79 31.7,-266.82 30.51,-277.34 37.33,-275.79"/>
</g>
<!-- 5 -->
<g id="node6" class="node">
<title>5</title>
<text xml:space="preserve" text-anchor="middle" x="27" y="-201.95" font-family="Times,serif" font-size="14.00">&lt;integer&gt;</text>
</g>
<!-- 4&#45;&gt;5 -->
<g id="edge5" class="edge">
<title>4&#45;&gt;5</title>
<path fill="none" stroke="black" d="M29.63,-251.46C29.25,-245.24 28.62,-235.15 28.07,-226.39"/>
<polygon fill="black" stroke="black" points="31.58,-226.36 27.46,-216.6 24.59,-226.8 31.58,-226.36"/>
</g>
<!-- 6 -->
<g id="node7" class="node">
<title>6</title>
<text xml:space="preserve" text-anchor="middle" x="27" y="-151.7" font-family="Times,serif" font-size="14.00">&lt;digit&gt;</text>
</g>
<!-- 5&#45;&gt;6 -->
<g id="edge6" class="edge">
<title>5&#45;&gt;6</title>
<path fill="none" stroke="black" d="M27,-201.21C27,-194.99 27,-184.9 27,-176.14"/>
<polygon fill="black" stroke="black" points="30.5,-176.35 27,-166.35 23.5,-176.35 30.5,-176.35"/>
</g>
<!-- 7 -->
<g id="node8" class="node">
<title>7</title>
<text xml:space="preserve" text-anchor="middle" x="27" y="-101.45" font-family="Times,serif" font-size="14.00">6 (54)</text>
</g>
<!-- 6&#45;&gt;7 -->
<g id="edge7" class="edge">
<title>6&#45;&gt;7</title>
<path fill="none" stroke="black" d="M27,-150.96C27,-144.74 27,-134.65 27,-125.89"/>
<polygon fill="black" stroke="black" points="30.5,-126.1 27,-116.1 23.5,-126.1 30.5,-126.1"/>
</g>
<!-- 10 -->
<g id="node11" class="node">
<title>10</title>
<text xml:space="preserve" text-anchor="middle" x="94" y="-252.2" font-family="Times,serif" font-size="14.00">&lt;term&gt;</text>
</g>
<!-- 9&#45;&gt;10 -->
<g id="edge10" class="edge">
<title>9&#45;&gt;10</title>
<path fill="none" stroke="black" d="M133.48,-301.71C127,-294.76 116.04,-283 107.3,-273.64"/>
<polygon fill="black" stroke="black" points="109.98,-271.37 100.6,-266.45 104.86,-276.15 109.98,-271.37"/>
</g>
<!-- 15 -->
<g id="node16" class="node">
<title>15</title>
<text xml:space="preserve" text-anchor="middle" x="139" y="-252.2" font-family="Times,serif" font-size="14.00"> &#45; </text>
</g>
<!-- 9&#45;&gt;15 -->
<g id="edge15" class="edge">
<title>9&#45;&gt;15</title>
<path fill="none" stroke="black" d="M139,-301.71C139,-295.49 139,-285.4 139,-276.64"/>
<polygon fill="black" stroke="black" points="142.5,-276.85 139,-266.85 135.5,-276.85 142.5,-276.85"/>
</g>
<!-- 16 -->
<g id="node17" class="node">
<title>16</title>
<text xml:space="preserve" text-anchor="middle" x="183" y="-252.2" font-family="Times,serif" font-size="14.00">&lt;expr&gt;</text>
</g>
<!-- 9&#45;&gt;16 -->
<g id="edge16" class="edge">
<title>9&#45;&gt;16</title>
<path fill="none" stroke="black" d="M144.4,-301.71C150.73,-294.76 161.45,-283 169.99,-273.64"/>
<polygon fill="black" stroke="black" points="172.39,-276.21 176.54,-266.46 167.22,-271.49 172.39,-276.21"/>
</g>
<!-- 11 -->
<g id="node12" class="node">
<title>11</title>
<text xml:space="preserve" text-anchor="middle" x="96" y="-201.95" font-family="Times,serif" font-size="14.00">&lt;factor&gt;</text>
</g>
<!-- 10&#45;&gt;11 -->
<g id="edge11" class="edge">
<title>10&#45;&gt;11</title>
<path fill="none" stroke="black" d="M94.25,-251.46C94.5,-245.24 94.92,-235.15 95.28,-226.39"/>
<polygon fill="black" stroke="black" points="98.77,-226.74 95.69,-216.6 91.78,-226.45 98.77,-226.74"/>
</g>
<!-- 12 -->
<g id="node13" class="node">
<title>12</title>
<text xml:space="preserve" text-anchor="middle" x="96" y="-151.7" font-family="Times,serif" font-size="14.00">&lt;integer&gt;</text>
</g>
<!-- 11&#45;&gt;12 -->
<g id="edge12" class="edge">
<title>11&#45;&gt;12</title>
<path fill="none" stroke="black" d="M96,-201.21C96,-194.99 96,-184.9 96,-176.14"/>
<polygon fill="black" stroke="black" points="99.5,-176.35 96,-166.35 92.5,-176.35 99.5,-176.35"/>
</g>
<!-- 13 -->
<g id="node14" class="node">
<title>13</title>
<text xml:space="preserve" text-anchor="middle" x="96" y="-101.45" font-family="Times,serif" font-size="14.00">&lt;digit&gt;</text>
</g>
<!-- 12&#45;&gt;13 -->
<g id="edge13" class="edge">
<title>12&#45;&gt;13</title>
<path fill="none" stroke="black" d="M96,-150.96C96,-144.74 96,-134.65 96,-125.89"/>
<polygon fill="black" stroke="black" points="99.5,-126.1 96,-116.1 92.5,-126.1 99.5,-126.1"/>
</g>
<!-- 14 -->
<g id="node15" class="node">
<title>14</title>
<text xml:space="preserve" text-anchor="middle" x="96" y="-51.2" font-family="Times,serif" font-size="14.00">9 (57)</text>
</g>
<!-- 13&#45;&gt;14 -->
<g id="edge14" class="edge">
<title>13&#45;&gt;14</title>
<path fill="none" stroke="black" d="M96,-100.71C96,-94.49 96,-84.4 96,-75.64"/>
<polygon fill="black" stroke="black" points="99.5,-75.85 96,-65.85 92.5,-75.85 99.5,-75.85"/>
</g>
<!-- 17 -->
<g id="node18" class="node">
<title>17</title>
<text xml:space="preserve" text-anchor="middle" x="183" y="-201.95" font-family="Times,serif" font-size="14.00">&lt;term&gt;</text>
</g>
<!-- 16&#45;&gt;17 -->
<g id="edge17" class="edge">
<title>16&#45;&gt;17</title>
<path fill="none" stroke="black" d="M183,-251.46C183,-245.24 183,-235.15 183,-226.39"/>
<polygon fill="black" stroke="black" points="186.5,-226.6 183,-216.6 179.5,-226.6 186.5,-226.6"/>
</g>
<!-- 18 -->
<g id="node19" class="node">
<title>18</title>
<text xml:space="preserve" text-anchor="middle" x="183" y="-151.7" font-family="Times,serif" font-size="14.00">&lt;factor&gt;</text>
</g>
<!-- 17&#45;&gt;18 -->
<g id="edge18" class="edge">
<title>17&#45;&gt;18</title>
<path fill="none" stroke="black" d="M183,-201.21C183,-194.99 183,-184.9 183,-176.14"/>
<polygon fill="black" stroke="black" points="186.5,-176.35 183,-166.35 179.5,-176.35 186.5,-176.35"/>
</g>
<!-- 19 -->
<g id="node20" class="node">
<title>19</title>
<text xml:space="preserve" text-anchor="middle" x="183" y="-101.45" font-family="Times,serif" font-size="14.00">&lt;integer&gt;</text>
</g>
<!-- 18&#45;&gt;19 -->
<g id="edge19" class="edge">
<title>18&#45;&gt;19</title>
<path fill="none" stroke="black" d="M183,-150.96C183,-144.74 183,-134.65 183,-125.89"/>
<polygon fill="black" stroke="black" points="186.5,-126.1 183,-116.1 179.5,-126.1 186.5,-126.1"/>
</g>
<!-- 20 -->
<g id="node21" class="node">
<title>20</title>
<text xml:space="preserve" text-anchor="middle" x="183" y="-51.2" font-family="Times,serif" font-size="14.00">&lt;digit&gt;</text>
</g>
<!-- 19&#45;&gt;20 -->
<g id="edge20" class="edge">
<title>19&#45;&gt;20</title>
<path fill="none" stroke="black" d="M183,-100.71C183,-94.49 183,-84.4 183,-75.64"/>
<polygon fill="black" stroke="black" points="186.5,-75.85 183,-65.85 179.5,-75.85 186.5,-75.85"/>
</g>
<!-- 21 -->
<g id="node22" class="node">
<title>21</title>
<text xml:space="preserve" text-anchor="middle" x="183" y="-0.95" font-family="Times,serif" font-size="14.00">5 (53)</text>
</g>
<!-- 20&#45;&gt;21 -->
<g id="edge21" class="edge">
<title>20&#45;&gt;21</title>
<path fill="none" stroke="black" d="M183,-50.46C183,-44.24 183,-34.15 183,-25.39"/>
<polygon fill="black" stroke="black" points="186.5,-25.6 183,-15.6 179.5,-25.6 186.5,-25.6"/>
</g>
<!-- 24 -->
<g id="node25" class="node">
<title>24</title>
<text xml:space="preserve" text-anchor="middle" x="224" y="-302.45" font-family="Times,serif" font-size="14.00">&lt;factor&gt;</text>
</g>
<!-- 23&#45;&gt;24 -->
<g id="edge24" class="edge">
<title>23&#45;&gt;24</title>
<path fill="none" stroke="black" d="M202.07,-351.96C205.44,-345.45 211.01,-334.71 215.69,-325.67"/>
<polygon fill="black" stroke="black" points="218.72,-327.42 220.21,-316.93 212.5,-324.2 218.72,-327.42"/>
</g>
<!-- 25 -->
<g id="node26" class="node">
<title>25</title>
<text xml:space="preserve" text-anchor="middle" x="248" y="-252.2" font-family="Times,serif" font-size="14.00">&lt;integer&gt;</text>
</g>
<!-- 24&#45;&gt;25 -->
<g id="edge25" class="edge">
<title>24&#45;&gt;25</title>
<path fill="none" stroke="black" d="M226.94,-301.71C230.18,-295.2 235.52,-284.46 240.02,-275.42"/>
<polygon fill="black" stroke="black" points="243.04,-277.21 244.36,-266.69 236.77,-274.09 243.04,-277.21"/>
</g>
<!-- 26 -->
<g id="node27" class="node">
<title>26</title>
<text xml:space="preserve" text-anchor="middle" x="248" y="-201.95" font-family="Times,serif" font-size="14.00">&lt;digit&gt;</text>
</g>
<!-- 25&#45;&gt;26 -->
<g id="edge26" class="edge">
<title>25&#45;&gt;26</title>
<path fill="none" stroke="black" d="M248,-251.46C248,-245.24 248,-235.15 248,-226.39"/>
<polygon fill="black" stroke="black" points="251.5,-226.6 248,-216.6 244.5,-226.6 251.5,-226.6"/>
</g>
<!-- 27 -->
<g id="node28" class="node">
<title>27</title>
<text xml:space="preserve" text-anchor="middle" x="248" y="-151.7" font-family="Times,serif" font-size="14.00">4 (52)</text>
</g>
<!-- 26&#45;&gt;27 -->
<g id="edge27" class="edge">
<title>26&#45;&gt;27</title>
<path fill="none" stroke="black" d="M248,-201.21C248,-194.99 248,-184.9 248,-176.14"/>
<polygon fill="black" stroke="black" points="251.5,-176.35 248,-166.35 244.5,-176.35 251.5,-176.35"/>
</g>
</g>
</svg>