<?xml version="1.0" encoding="UTF-8" standalone="no"?>
<!DOCTYPE svg PUBLIC "-//W3C//DTD SVG 1.1//EN"
 "http://www.w3.org/Graphics/SVG/1.1/DTD/svg11.dtd">
<!-- Generated by graphviz version 13.1.2 (20250808.2320)
 -->
<!-- Pages: 1 -->
<svg width="204pt" height="274pt"
 viewBox="0.00 0.00 204.00 274.00" xmlns="http://www.w3.org/2000/svg" xmlns:xlink="http://www.w3.org/1999/xlink">
<g id="graph0" class="graph" transform="scale(1 1) rotate(0) translate(4 269.5)">
<polygon fill="white" stroke="none" points="-4,4 -4,-269.5 200,-269.5 200,4 -4,4"/>
<!-- 0 -->
<g id="node1" class="node">
<title>0</title>
<text xml:space="preserve" text-anchor="middle" x="121" y="-252.2" font-family="Times,serif" font-size="14.00">&lt;start&gt;</text>
</g>
<!-- 1 -->
<g id="node2" class="node">
<title>1</title>
<text xml:space="preserve" text-anchor="middle" x="121" y="-201.95" font-family="Times,serif" font-size="14.00">&lt;expr&gt;</text>
</g>
<!-- 0&#45;&gt;1 -->
<g id="edge1" class="edge">
<title>0&#45;&gt;1</title>
<path fill="none" stroke="black" d="M121,-251.46C121,-245.24 121,-235.15 121,-226.39"/>
<polygon fill="black" stroke="black" points="124.5,-226.6 121,-216.6 117.5,-226.6 124.5,-226.6"/>
</g>
<!-- 2 -->
<g id="node3" class="node">
<title>2</title>
<text xml:space="preserve" text-anchor="middle" x="72" y="-151.7" font-family="Times,serif" font-size="14.00">&lt;expr&gt;</text>
</g>
<!-- 1&#45;&gt;2 -->
<g id="edge2" class="edge">
<title>1&#45;&gt;2</title>
<path fill="none" stroke="black" d="M114.99,-201.21C107.86,-194.19 95.75,-182.26 86.19,-172.85"/>
<polygon fill="black" stroke="black" points="88.72,-170.42 79.14,-165.9 83.81,-175.41 88.72,-170.42"/>
</g>
<!-- 10 -->
<g id="node11" class="node">
<title>10</title>
<text xml:space="preserve" text-anchor="middle" x="121" y="-151.7" font-family="Times,serif" font-size="14.00"> + </text>
</g>
<!-- 1&#45;&gt;10 -->
<g id="edge10" class="edge">
<title>1&#45;&gt;10</title>
<path fill="none" stroke="black" d="M121,-201.21C121,-194.99 121,-184.9 121,-176.14"/>
<polygon fill="black" stroke="black" points="124.5,-176.35 121,-166.35 117.5,-176.35 124.5,-176.35"/>
</g>
<!-- 11 -->
<g id="node12" class="node">
<title>11</title>
<text xml:space="preserve" text-anchor="middle" x="170" y="-151.7" font-family="Times,serif" font-size="14.00">&lt;term&gt;</text>
</g>
<!-- 1&#45;&gt;11 -->
<g id="edge11" class="edge">
<title>1&#45;&gt;11</title>
<path fill="none" stroke="black" d="M127.01,-201.21C134.14,-194.19 146.25,-182.26 155.81,-172.85"/>
<polygon fill="black" stroke="black" points="158.19,-175.41 162.86,-165.9 153.28,-170.42 158.19,-175.41"/>
</g>
<!-- 3 -->
<g id="node4" class="node">
<title>3</title>
<text xml:space="preserve" text-anchor="middle" x="21" y="-101.45" font-family="Times,serif" font-size="14.00">&lt;term&gt;</text>
</g>
<!-- 2&#45;&gt;3 -->
<g id="edge3" class="edge">
<title>2&#45;&gt;3</title>
<path fill="none" stroke="black" d="M65.75,-150.96C58.25,-143.87 45.46,-131.76 35.46,-122.31"/>
<polygon fill="black" stroke="black" points="38.07,-119.96 28.4,-115.63 33.26,-125.04 38.07,-119.96"/>
</g>
<!-- 4 -->
<g id="node5" class="node">
<title>4</title>
<text xml:space="preserve" text-anchor="middle" x="66" y="-101.45" font-family="Times,serif" font-size="14.00"> &#45; </text>
</g>
<!-- 2&#45;&gt;4 -->
<g id="edge4" class="edge">
<title>2&#45;&gt;4</title>
<path fill="none" stroke="black" d="M71.26,-150.96C70.49,-144.74 69.24,-134.65 68.15,-125.89"/>
<polygon fill="black" stroke="black" points="71.64,-125.58 66.93,-116.09 64.69,-126.45 71.64,-125.58"/>
</g>
<!-- 5 -->
<g id="node6" class="node">
<title>5</title>
<text xml:space="preserve" text-anchor="middle" x="110" y="-101.45" font-family="Times,serif" font-size="14.00">&lt;expr&gt;</text>
</g>
<!-- 2&#45;&gt;5 -->
<g id="edge5" class="edge">
<title>2&#45;&gt;5</title>
<path fill="none" stroke="black" d="M76.66,-150.96C82.02,-144.16 91.01,-132.74 98.3,-123.48"/>
<polygon fill="black" stroke="black" points="100.93,-125.8 104.37,-115.78 95.43,-121.47 100.93,-125.8"/>
</g>
<!-- 6 -->
<g id="node7" class="node">
<title>6</title>
<text xml:space="preserve" text-anchor="middle" x="65" y="-51.2" font-family="Times,serif" font-size="14.00">&lt;term&gt;</text>
</g>
<!-- 5&#45;&gt;6 -->
<g id="edge6" class="edge">
<title>5&#45;&gt;6</title>
<path fill="none" stroke="black" d="M104.48,-100.71C98,-93.76 87.04,-82 78.3,-72.64"/>
<polygon fill="black" stroke="black" points="80.98,-70.37 71.6,-65.45 75.86,-75.15 80.98,-70.37"/>
</g>
<!-- 8 -->
<g id="node9" class="node">
<title>8</title>
<text xml:space="preserve" text-anchor="middle" x="110" y="-51.2" font-family="Times,serif" font-size="14.00"> &#45; </text>
</g>
<!-- 5&#45;&gt;8 -->
<g id="edge8" class="edge">
<title>5&#45;&gt;8</title>
<path fill="none" stroke="black" d="M110,-100.71C110,-94.49 110,-84.4 110,-75.64"/>
<polygon fill="black" stroke="black" points="113.5,-75.85 110,-65.85 106.5,-75.85 113.5,-75.85"/>
</g>
<!-- 9 -->
<g id="node10" class="node">
<title>9</title>
<text xml:space="preserve" text-anchor="middle" x="154" y="-51.2" font-family="Times,serif" font-size="14.00">&lt;expr&gt;</text>
</g>
<!-- 5&#45;&gt;9 -->
<g id="edge9" class="edge">
<title>5&#45;&gt;9</title>
<path fill="none" stroke="black" d="M115.4,-100.71C121.73,-93.76 132.45,-82 140.99,-72.64"/>
<polygon fill="black" stroke="black" points="143.39,-75.21 147.54,-65.46 138.22,-70.49 143.39,-75.21"/>
</g>
<!-- 7 -->
<g id="node8" class="node">
<title>7</title>
<text xml:space="preserve" text-anchor="middle" x="65" y="-0.95" font-family="Times,serif" font-size="14.00">&lt;factor&gt;</text>
</g>
<!-- 6&#45;&gt;7 -->
<g id="edge7" class="edge">
<title>6&#45;&gt;7</title>
<path fill="none" stroke="black" d="M65,-50.46C65,-44.24 65,-34.15 65,-25.39"/>
<polygon fill="black" stroke="black" points="68.5,-25.6 65,-15.6 61.5,-25.6 68.5,-25.6"/>
</g>
<!-- 12 -->
<g id="node13" class="node">
<title>12</title>
<text xml:space="preserve" text-anchor="middle" x="172" y="-101.45" font-family="Times,serif" font-size="14.00">&lt;factor&gt;</text>
</g>
<!-- 11&#45;&gt;12 -->
<g id="edge12" class="edge">
<title>11&#45;&gt;12</title>
<path fill="none" stroke="black" d="M170.25,-150.96C170.5,-144.74 170.92,-134.65 171.28,-125.89"/>
<polygon fill="black" stroke="black" points="174.77,-126.24 171.69,-116.1 167.78,-125.95 174.77,-126.24"/>
</g>
</g>
</svg>