<?xml version="1.0" encoding="UTF-8" standalone="no"?>
<!DOCTYPE svg PUBLIC "-//W3C//DTD SVG 1.1//EN"
 "http://www.w3.org/Graphics/SVG/1.1/DTD/svg11.dtd">
<!-- Generated by graphviz version 13.1.2 (20250808.2320)
 -->
<!-- Pages: 1 -->
<svg width="232pt" height="274pt"
 viewBox="0.00 0.00 232.00 274.00" xmlns="http://www.w3.org/2000/svg" xmlns:xlink="http://www.w3.org/1999/xlink">
<g id="graph0" class="graph" transform="scale(1 1) rotate(0) translate(4 269.5)">
<polygon fill="white" stroke="none" points="-4,4 -4,-269.5 228,-269.5 228,4 -4,4"/>
<!-- 0 -->
<g id="node1" class="node">
<title>0</title>
<text xml:space="preserve" text-anchor="middle" x="122" y="-252.2" font-family="Times,serif" font-size="14.00">&lt;start&gt;</text>
</g>
<!-- 1 -->
<g id="node2" class="node">
<title>1</title>
<text xml:space="preserve" text-anchor="middle" x="122" y="-201.95" font-family="Times,serif" font-size="14.00">&lt;expr&gt;</text>
</g>
<!-- 0&#45;&gt;1 -->
<g id="edge1" class="edge">
<title>0&#45;&gt;1</title>
<path fill="none" stroke="black" d="M122,-251.46C122,-245.24 122,-235.15 122,-226.39"/>
<polygon fill="black" stroke="black" points="125.5,-226.6 122,-216.6 118.5,-226.6 125.5,-226.6"/>
</g>
<!-- 2 -->
<g id="node3" class="node">
<title>2</title>
<text xml:space="preserve" text-anchor="middle" x="73" y="-151.7" font-family="Times,serif" font-size="14.00">&lt;expr&gt;</text>
</g>
<!-- 1&#45;&gt;2 -->
<g id="edge2" class="edge">
<title>1&#45;&gt;2</title>
<path fill="none" stroke="black" d="M115.99,-201.21C108.86,-194.19 96.75,-182.26 87.19,-172.85"/>
<polygon fill="black" stroke="black" points="89.72,-170.42 80.14,-165.9 84.81,-175.41 89.72,-170.42"/>
</g>
<!-- 10 -->
<g id="node11" class="node">
<title>10</title>
<text xml:space="preserve" text-anchor="middle" x="122" y="-151.7" font-family="Times,serif" font-size="14.00"> + </text>
</g>
<!-- 1&#45;&gt;10 -->
<g id="edge10" class="edge">
<title>1&#45;&gt;10</title>
<path fill="none" stroke="black" d="M122,-201.21C122,-194.99 122,-184.9 122,-176.14"/>
<polygon fill="black" stroke="black" points="125.5,-176.35 122,-166.35 118.5,-176.35 125.5,-176.35"/>
</g>
<!-- 11 -->
<g id="node12" class="node">
<title>11</title>
<text xml:space="preserve" text-anchor="middle" x="171" y="-151.7" font-family="Times,serif" font-size="14.00">&lt;term&gt;</text>
</g>
<!-- 1&#45;&gt;11 -->
<g id="edge11" class="edge">
<title>1&#45;&gt;11</title>
<path fill="none" stroke="black" d="M128.01,-201.21C135.14,-194.19 147.25,-182.26 156.81,-172.85"/>
<polygon fill="black" stroke="black" points="159.19,-175.41 163.86,-165.9 154.28,-170.42 159.19,-175.41"/>
</g>
<!-- 3 -->
<g id="node4" class="node">
<title>3</title>
<text xml:space="preserve" text-anchor="middle" x="21" y="-101.45" font-family="Times,serif" font-size="14.00">&lt;term&gt;</text>
</g>
<!-- 2&#45;&gt;3 -->
<g id="edge3" class="edge">
<title>2&#45;&gt;3</title>
<path fill="none" stroke="black" d="M66.62,-150.96C58.98,-143.87 45.94,-131.76 35.75,-122.31"/>
<polygon fill="black" stroke="black" points="38.25,-119.86 28.54,-115.62 33.49,-124.99 38.25,-119.86"/>
</g>
<!-- 4 -->
<g id="node5" class="node">
<title>4</title>
<text xml:space="preserve" text-anchor="middle" x="66" y="-101.45" font-family="Times,serif" font-size="14.00"> &#45; </text>
</g>
<!-- 2&#45;&gt;4 -->
<g id="edge4" class="edge">
<title>2&#45;&gt;4</title>
<path fill="none" stroke="black" d="M72.14,-150.96C71.24,-144.74 69.78,-134.65 68.5,-125.89"/>
<polygon fill="black" stroke="black" points="71.98,-125.48 67.08,-116.09 65.05,-126.49 71.98,-125.48"/>
</g>
<!-- 5 -->
<g id="node6" class="node">
<title>5</title>
<text xml:space="preserve" text-anchor="middle" x="110" y="-101.45" font-family="Times,serif" font-size="14.00">&lt;expr&gt;</text>
</g>
<!-- 2&#45;&gt;5 -->
<g id="edge5" class="edge">
<title>2&#45;&gt;5</title>
<path fill="none" stroke="black" d="M77.54,-150.96C82.75,-144.16 91.51,-132.74 98.61,-123.48"/>
<polygon fill="black" stroke="black" points="101.2,-125.86 104.5,-115.79 95.64,-121.6 101.2,-125.86"/>
</g>
<!-- 6 -->
<g id="node7" class="node">
<title>6</title>
<text xml:space="preserve" text-anchor="middle" x="43" y="-51.2" font-family="Times,serif" font-size="14.00">&lt;term&gt;</text>
</g>
<!-- 5&#45;&gt;6 -->
<g id="edge6" class="edge">
<title>5&#45;&gt;6</title>
<path fill="none" stroke="black" d="M101.51,-100.51C91.19,-93.08 73.5,-80.34 60.26,-70.81"/>
<polygon fill="black" stroke="black" points="62.6,-68.17 52.44,-65.17 58.5,-73.85 62.6,-68.17"/>
</g>
<!-- 8 -->
<g id="node9" class="node">
<title>8</title>
<text xml:space="preserve" text-anchor="middle" x="88" y="-51.2" font-family="Times,serif" font-size="14.00"> &#45; </text>
</g>
<!-- 5&#45;&gt;8 -->
<g id="edge8" class="edge">
<title>5&#45;&gt;8</title>
<path fill="none" stroke="black" d="M107.3,-100.71C104.37,-94.27 99.54,-83.69 95.45,-74.72"/>
<polygon fill="black" stroke="black" points="98.68,-73.36 91.35,-65.72 92.31,-76.27 98.68,-73.36"/>
</g>
<!-- 9 -->
<g id="node10" class="node">
<title>9</title>
<text xml:space="preserve" text-anchor="middle" x="132" y="-51.2" font-family="Times,serif" font-size="14.00">&lt;expr&gt;</text>
</g>
<!-- 5&#45;&gt;9 -->
<g id="edge9" class="edge">
<title>5&#45;&gt;9</title>
<path fill="none" stroke="black" d="M112.7,-100.71C115.63,-94.27 120.46,-83.69 124.55,-74.72"/>
<polygon fill="black" stroke="black" points="127.69,-76.27 128.65,-65.72 121.32,-73.36 127.69,-76.27"/>
</g>
<!-- 7 -->
<g id="node8" class="node">
<title>7</title>
<text xml:space="preserve" text-anchor="middle" x="43" y="-0.95" font-family="Times,serif" font-size="14.00">&lt;factor&gt;</text>
</g>
<!-- 6&#45;&gt;7 -->
<g id="edge7" class="edge">
<title>6&#45;&gt;7</title>
<path fill="none" stroke="black" d="M43,-50.46C43,-44.24 43,-34.15 43,-25.39"/>
<polygon fill="black" stroke="black" points="46.5,-25.6 43,-15.6 39.5,-25.6 46.5,-25.6"/>
</g>
<!-- 12 -->
<g id="node13" class="node">
<title>12</title>
<text xml:space="preserve" text-anchor="middle" x="173" y="-101.45" font-family="Times,serif" font-size="14.00">&lt;factor&gt;</text>
</g>
<!-- 11&#45;&gt;12 -->
<g id="edge12" class="edge">
<title>11&#45;&gt;12</title>
<path fill="none" stroke="black" d="M171.25,-150.96C171.5,-144.74 171.92,-134.65 172.28,-125.89"/>
<polygon fill="black" stroke="black" points="175.77,-126.24 172.69,-116.1 168.78,-125.95 175.77,-126.24"/>
</g>
<!-- 13 -->
<g id="node14" class="node">
<title>13</title>
<text xml:space="preserve" text-anchor="middle" x="197" y="-51.2" font-family="Times,serif" font-size="14.00">&lt;integer&gt;</text>
</g>
<!-- 12&#45;&gt;13 -->
<g id="edge13" class="edge">
<title>12&#45;&gt;13</title>
<path fill="none" stroke="black" d="M175.94,-100.71C179.18,-94.2 184.52,-83.46 189.02,-74.42"/>
<polygon fill="black" stroke="black" points="192.04,-76.21 193.36,-65.69 185.77,-73.09 192.04,-76.21"/>
</g>
</g>
</svg>