<?xml version="1.0" encoding="UTF-8" standalone="no"?>
<!DOCTYPE svg PUBLIC "-//W3C//DTD SVG 1.1//EN"
 "http://www.w3.org/Graphics/SVG/1.1/DTD/svg11.dtd">
<!-- Generated by graphviz version 13.1.2 (20250808.2320)
 -->
<!-- Pages: 1 -->
<svg width="391pt" height="456pt"
 viewBox="0.00 0.00 391.00 456.00" xmlns="http://www.w3.org/2000/svg" xmlns:xlink="http://www.w3.org/1999/xlink">
<g id="graph0" class="graph" transform="scale(1 1) rotate(0) translate(4 451.5)">
<polygon fill="white" stroke="none" points="-4,4 -4,-451.5 387.32,-451.5 387.32,4 -4,4"/>
<!-- start -->
<g id="node1" class="node">
<title>start</title>
<ellipse fill="none" stroke="black" cx="213.57" cy="-429.5" rx="35.46" ry="18"/>
<text xml:space="preserve" text-anchor="middle" x="213.57" y="-423.32" font-family="Times,serif" font-size="14.00">&lt;start&gt;</text>
</g>
<!-- state -->
<g id="node2" class="node">
<title>state</title>
<ellipse fill="none" stroke="black" cx="213.57" cy="-356.5" rx="36.41" ry="18"/>
<text xml:space="preserve" text-anchor="middle" x="213.57" y="-350.32" font-family="Times,serif" font-size="14.00">&lt;state&gt;</text>
</g>
<!-- start&#45;&gt;state -->
<g id="edge1" class="edge">
<title>start&#45;&gt;state</title>
<path fill="none" stroke="black" d="M213.57,-411.31C213.57,-403.73 213.57,-394.6 213.57,-386.04"/>
<polygon fill="black" stroke="black" points="217.07,-386.04 213.57,-376.04 210.07,-386.04 217.07,-386.04"/>
</g>
<!-- state&#45;1 -->
<g id="node3" class="node">
<title>state&#45;1</title>
<ellipse fill="none" stroke="black" cx="43.57" cy="-145" rx="43.57" ry="18"/>
<text xml:space="preserve" text-anchor="middle" x="43.57" y="-138.82" font-family="Times,serif" font-size="14.00">&lt;state&#45;1&gt;</text>
</g>
<!-- state&#45;&gt;state&#45;1 -->
<g id="edge2" class="edge">
<title>state&#45;&gt;state&#45;1</title>
<path fill="none" stroke="black" d="M177.76,-352.46C136.22,-348.13 71.43,-338.62 55.82,-320.5 20.78,-279.84 28.28,-212.16 36.28,-174.14"/>
<polygon fill="black" stroke="black" points="39.6,-175.36 38.4,-164.84 32.77,-173.81 39.6,-175.36"/>
<text xml:space="preserve" text-anchor="start" x="55.82" y="-271.57" font-family="Times,serif" font-size="14.00">click(&#39;terms and conditions&#39;)</text>
</g>
<!-- state&#45;2 -->
<g id="node4" class="node">
<title>state&#45;2</title>
<ellipse fill="none" stroke="black" cx="213.57" cy="-199" rx="43.57" ry="18"/>
<text xml:space="preserve" text-anchor="middle" x="213.57" y="-192.82" font-family="Times,serif" font-size="14.00">&lt;state&#45;2&gt;</text>
</g>
<!-- state&#45;&gt;state&#45;2 -->
<g id="edge3" class="edge">
<title>state&#45;&gt;state&#45;2</title>
<path fill="none" stroke="black" d="M213.57,-338.26C213.57,-311.76 213.57,-260.7 213.57,-228.6"/>
<polygon fill="black" stroke="black" points="217.07,-228.83 213.57,-218.83 210.07,-228.83 217.07,-228.83"/>
<text xml:space="preserve" text-anchor="start" x="213.57" y="-307.2" font-family="Times,serif" font-size="14.00">fill(&#39;city&#39;, &#39;&lt;text&gt;&#39;)</text>
<text xml:space="preserve" text-anchor="start" x="213.57" y="-292.95" font-family="Times,serif" font-size="14.00">fill(&#39;zip&#39;, &#39;&lt;number&gt;&#39;)</text>
<text xml:space="preserve" text-anchor="start" x="213.57" y="-278.7" font-family="Times,serif" font-size="14.00">fill(&#39;name&#39;, &#39;&lt;text&gt;&#39;)</text>
<text xml:space="preserve" text-anchor="start" x="213.57" y="-264.45" font-family="Times,serif" font-size="14.00">check(&#39;terms&#39;, &lt;boolean&gt;)</text>
<text xml:space="preserve" text-anchor="start" x="213.57" y="-250.2" font-family="Times,serif" font-size="14.00">fill(&#39;email&#39;, &#39;&lt;email&gt;&#39;)</text>
<text xml:space="preserve" text-anchor="start" x="213.57" y="-235.95" font-family="Times,serif" font-size="14.00">submit(&#39;submit&#39;)</text>
</g>
<!-- end -->
<g id="node5" class="node">
<title>end</title>
<ellipse fill="none" stroke="black" cx="347.57" cy="-91" rx="33.07" ry="18"/>
<text xml:space="preserve" text-anchor="middle" x="347.57" y="-84.83" font-family="Times,serif" font-size="14.00">&lt;end&gt;</text>
</g>
<!-- state&#45;&gt;end -->
<g id="edge4" class="edge">
<title>state&#45;&gt;end</title>
<path fill="none" stroke="black" d="M249.21,-351.83C287.4,-347.08 344.33,-337.34 357.57,-320.5 403.7,-261.81 376.68,-166.09 359.07,-119.38"/>
<polygon fill="black" stroke="black" points="362.42,-118.32 355.51,-110.28 355.9,-120.87 362.42,-118.32"/>
</g>
<!-- unexplored -->
<g id="node6" class="node">
<title>unexplored</title>
<ellipse fill="none" stroke="black" cx="107.57" cy="-18" rx="59.31" ry="18"/>
<text xml:space="preserve" text-anchor="middle" x="107.57" y="-11.82" font-family="Times,serif" font-size="14.00">&lt;unexplored&gt;</text>
</g>
<!-- state&#45;1&#45;&gt;unexplored -->
<g id="edge5" class="edge">
<title>state&#45;1&#45;&gt;unexplored</title>
<path fill="none" stroke="black" d="M52.33,-126.88C63.01,-106.03 81.17,-70.56 93.74,-46.01"/>
<polygon fill="black" stroke="black" points="96.78,-47.76 98.22,-37.26 90.55,-44.57 96.78,-47.76"/>
</g>
<!-- state&#45;2&#45;&gt;end -->
<g id="edge7" class="edge">
<title>state&#45;2&#45;&gt;end</title>
<path fill="none" stroke="black" d="M251.03,-189.63C268.72,-184.25 289.25,-175.82 304.57,-163 318.53,-151.32 329.18,-133.87 336.39,-119.2"/>
<polygon fill="black" stroke="black" points="339.4,-121.05 340.4,-110.5 333.04,-118.12 339.4,-121.05"/>
</g>
<!-- state&#45;3 -->
<g id="node7" class="node">
<title>state&#45;3</title>
<ellipse fill="none" stroke="black" cx="180.57" cy="-91" rx="43.57" ry="18"/>
<text xml:space="preserve" text-anchor="middle" x="180.57" y="-84.83" font-family="Times,serif" font-size="14.00">&lt;state&#45;3&gt;</text>
</g>
<!-- state&#45;2&#45;&gt;state&#45;3 -->
<g id="edge6" class="edge">
<title>state&#45;2&#45;&gt;state&#45;3</title>
<path fill="none" stroke="black" d="M208.27,-180.97C203.17,-164.61 195.38,-139.59 189.36,-120.24"/>
<polygon fill="black" stroke="black" points="192.73,-119.29 186.42,-110.79 186.05,-121.37 192.73,-119.29"/>
<text xml:space="preserve" text-anchor="start" x="201.95" y="-138.82" font-family="Times,serif" font-size="14.00">click(&#39;order form&#39;)</text>
</g>
<!-- state&#45;3&#45;&gt;unexplored -->
<g id="edge8" class="edge">
<title>state&#45;3&#45;&gt;unexplored</title>
<path fill="none" stroke="black" d="M164,-73.89C154.71,-64.85 142.93,-53.39 132.54,-43.28"/>
<polygon fill="black" stroke="black" points="135.27,-41.06 125.66,-36.6 130.39,-46.08 135.27,-41.06"/>
</g>
</g>
</svg>